<svg id="Logo_FIXED" data-name="Logo FIXED" xmlns="http://www.w3.org/2000/svg" viewBox="0 0 250 243.83">
  <defs>
    <style>
      .cls-1 {
        fill: #000111;
        fill-rule: evenodd;
      }
    </style>
  </defs>
  <title>アートボード 1</title>
  <path class="cls-1" d="M125,0A125,125,0,0,0,85.5,243.61c6.25,1.15,8.53-2.71,8.53-6,0-3-.11-10.83-.17-21.26-34.77,7.55-42.11-16.76-42.11-16.76-5.68-14.44-13.87-18.28-13.87-18.28-11.35-7.76.85-7.6.85-7.6,12.55.88,19.15,12.88,19.15,12.88C69,205.67,87.13,200.16,94.25,197c1.13-8.08,4.36-13.59,7.94-16.72-27.76-3.15-56.94-13.87-56.94-61.77A48.36,48.36,0,0,1,58.11,84.92c-1.28-3.16-5.57-15.87,1.23-33.08,0,0,10.49-3.36,34.37,12.82a118.49,118.49,0,0,1,62.59,0c23.87-16.18,34.34-12.82,34.34-12.82,6.82,17.21,2.53,29.92,1.25,33.08a48.23,48.23,0,0,1,12.84,33.55c0,48-29.22,58.58-57.07,61.68,4.49,3.86,8.49,11.49,8.49,23.15,0,16.71-.16,30.19-.16,34.29,0,3.34,2.26,7.23,8.6,6A125,125,0,0,0,125,0Z"/>
</svg>
