<?xml version="1.0" encoding="utf-8"?>
<!-- Generator: Adobe Illustrator 23.0.6, SVG Export Plug-In . SVG Version: 6.00 Build 0)  -->
<svg version="1.1" id="レイヤー_1" xmlns="http://www.w3.org/2000/svg" xmlns:xlink="http://www.w3.org/1999/xlink" x="0px"
	 y="0px" viewBox="0 0 22 24.6" style="enable-background:new 0 0 22 24.6;" xml:space="preserve">
<style type="text/css">
	.st0{fill:#111111;}
	.st1{fill:#E4EDF4;}
	.st2{fill:#DA2037;}
</style>
<path class="st0" d="M13,12.7v-0.8c5.2-1,9-5.5,9-10.9V0h-1H1H0v1c0,5.4,3.8,9.9,9,10.9v0.9c-5.2,1-9,5.5-9,10.9v1h1h20h1v-1
	C22.1,18.2,18.2,13.6,13,12.7z"/>
<title>アートボード 1</title>
<path class="st1" d="M12,13.6V11c5.1-0.5,9-4.8,9-10H1c0,5.2,3.9,9.5,9,10v2.6c-5.1,0.5-9,4.8-9,10h20C21.1,18.4,17.1,14.1,12,13.6z
	"/>
<g>
	<path class="st2" d="M12,17c-0.7-0.6-1.1-1.5-1-2.5c0,0.9-0.4,1.8-1,2.5c-3.4,0.4-6,2.5-6,5.1h14C18,19.5,15.4,17.3,12,17z"/>
	<path class="st2" d="M11,12.5c0-1.1,0.3-2.2,0.9-3.1c2.6-0.1,4.9-1.6,6.1-3.8l-12.3,2c1.3,1,2.8,1.6,4.4,1.7
		C10.8,10.3,11.1,11.4,11,12.5z"/>
</g>
</svg>
