<svg id="レイヤー_1" data-name="レイヤー 1" xmlns="http://www.w3.org/2000/svg" viewBox="0 0 20 22.5">
  <defs>
    <style>
      .cls-1 {
        fill: #e4edf4;
      }

      .cls-2 {
        fill: #da2037;
      }
    </style>
  </defs>
  <title>アートボード 1</title>
  <path class="cls-1" d="M11,12.55V10A10,10,0,0,0,20,0H0A10,10,0,0,0,9,10v2.6a10,10,0,0,0-9,10H20A10,10,0,0,0,11,12.55Z"/>
  <g>
    <path class="cls-2" d="M11,16a2.88,2.88,0,0,1-1-2.48A3.65,3.65,0,0,1,9,16c-3.4.36-6,2.48-6,5.06H17C17,18.46,14.41,16.34,11,16Z"/>
    <path class="cls-2" d="M10,11.5a6.24,6.24,0,0,1,.86-3.13A7.44,7.44,0,0,0,17,4.54L4.68,6.64A8.23,8.23,0,0,0,9.13,8.38,4.79,4.79,0,0,1,10,11.5Z"/>
  </g>
</svg>
