<?xml version="1.0" encoding="UTF-8" standalone="no"?>
<svg width="1370px" height="420px" viewBox="0 0 1370 420" version="1.1" xmlns="http://www.w3.org/2000/svg" xmlns:xlink="http://www.w3.org/1999/xlink">
    <!-- Generator: Sketch 3.8.1 (29687) - http://www.bohemiancoding.com/sketch -->
    <title>machimachi_logo_horizontal</title>
    <desc>Created with Sketch.</desc>
    <defs></defs>
    <g id="logos" stroke="none" stroke-width="1" fill="none" fill-rule="evenodd">
        <g id="machimachi_logo_horizontal">
            <path d="M1274.55814,189.255814 C1276.76728,189.255814 1278.55814,191.046675 1278.55814,193.255814 L1278.55814,212.093023 C1278.55814,214.302162 1276.76728,216.093023 1274.55814,216.093023 C1274.55814,216.093023 1196.04431,216.093017 1196.04431,216.093506 C1194.69854,239.745665 1189.72162,257.413169 1179.60969,272.278811 C1168.3576,288.82061 1150.5564,301.961315 1123.59314,313.669047 C1121.96782,314.374779 1120.07188,313.927098 1118.93392,312.568879 L1104.51531,295.359577 C1102.76372,293.268971 1103.57212,290.076949 1106.10766,289.072082 C1130.70081,279.325489 1145.63928,269.538438 1154.51265,257.560774 C1162.20828,247.172858 1165.83827,234.664387 1166.8843,216.093599 C1166.8843,216.093017 1080.60465,216.093023 1080.60465,216.093023 C1078.39551,216.093023 1076.60465,214.302162 1076.60465,212.093023 L1076.60465,193.255814 C1076.60465,191.046675 1078.39551,189.255814 1080.60465,189.255814 L1167.06987,189.256006 C1167.06987,189.256006 1167.07079,151.993994 1167.07079,151.993994 C1146.1467,155.709503 1125.86141,158.578364 1108.19319,160.261052 C1106.29194,160.442123 1104.52789,159.253857 1103.98128,157.423894 L1098.63244,139.516917 C1097.90607,137.085152 1099.59881,134.600435 1102.1277,134.38635 C1124.59929,132.483993 1150.5684,128.826372 1174.65988,124.098137 C1200.96029,118.936374 1223.63907,112.794205 1239.55818,106.296609 C1241.41775,105.537602 1243.55182,106.275286 1244.54571,108.020646 L1254.08059,124.764832 C1255.28551,126.880786 1254.33627,129.573342 1252.07075,130.46582 C1237.83526,136.073738 1218.60376,141.481704 1196.46492,146.26001 C1196.46508,146.26001 1196.46511,189.256006 1196.46511,189.256006 L1274.55814,189.255814 Z M1018.68217,130.651163 C1019.50672,130.651163 1020.31113,130.905981 1020.98529,131.38074 L1037.49691,143.008647 C1039.27787,144.262844 1039.72787,146.711511 1038.50919,148.516961 C1014.40139,184.232223 979.864236,224.357028 948.530064,254.760613 C962.975781,269.784919 973.362739,281.258382 981.114193,290.997389 C982.509791,292.750832 982.192706,295.308598 980.411189,296.668177 L962.736771,310.156549 C960.956356,311.515287 958.407347,311.147555 957.083573,309.340993 C936.889877,281.782536 894.360803,238.303501 865.077032,215.725937 C863.113433,214.212017 862.986015,211.294702 864.810142,209.615347 L879.461305,196.126975 C880.896806,194.805402 883.076368,194.712394 884.619235,195.906873 C898.637187,206.75948 913.401101,220.011398 928.484073,234.666348 C952.615219,211.410967 979.083516,181.030111 995.09031,158.185238 C995.09031,158.186047 841.24031,158.186047 841.24031,158.186047 C839.031171,158.186047 837.24031,156.395186 837.24031,154.186047 L837.24031,134.651163 C837.24031,132.442024 839.031171,130.651163 841.24031,130.651163 L1018.68217,130.651163 Z M789.317829,189.255814 C791.526968,189.255814 793.317829,191.046675 793.317829,193.255814 L793.317829,212.093023 C793.317829,214.302162 791.526968,216.093023 789.317829,216.093023 C789.317829,216.093023 710.804004,216.093017 710.804004,216.093506 C709.458226,239.745665 704.481315,257.413169 694.36938,272.278811 C683.117288,288.82061 665.31609,301.961315 638.352829,313.669047 C636.727508,314.374779 634.831575,313.927098 633.693608,312.568879 L619.275003,295.359577 C617.523414,293.268971 618.331813,290.076949 620.867348,289.072082 C645.460496,279.325489 660.398974,269.538438 669.272336,257.560774 C676.967971,247.172858 680.597957,234.664387 681.643994,216.093599 C681.643994,216.093017 595.364341,216.093023 595.364341,216.093023 C593.155202,216.093023 591.364341,214.302162 591.364341,212.093023 L591.364341,193.255814 C591.364341,191.046675 593.155202,189.255814 595.364341,189.255814 L681.829557,189.256006 C681.829557,189.256006 681.830485,151.993994 681.830484,151.993994 C660.906389,155.709503 640.621102,158.578364 622.95288,160.261052 C621.051627,160.442123 619.287583,159.253857 618.740971,157.423894 L613.392134,139.516917 C612.665762,137.085152 614.358502,134.600435 616.887389,134.38635 C639.358979,132.483993 665.328087,128.826372 689.419572,124.098137 C715.719983,118.936374 738.39876,112.794205 754.317869,106.296609 C756.177438,105.537602 758.311512,106.275286 759.305397,108.020646 L768.840281,124.764832 C770.045199,126.880786 769.095958,129.573342 766.830439,130.46582 C752.594953,136.073738 733.36345,141.481704 711.224605,146.26001 C711.224767,146.26001 711.224805,189.256006 711.224805,189.256006 L789.317829,189.255814 Z M533.44186,130.651163 C534.266412,130.651163 535.070817,130.905981 535.744975,131.38074 L552.256603,143.008647 C554.037562,144.262844 554.487562,146.711511 553.268883,148.516961 C529.161081,184.232223 494.623926,224.357028 463.289754,254.760613 C477.735471,269.784919 488.122429,281.258382 495.873883,290.997389 C497.269481,292.750832 496.952396,295.308598 495.170879,296.668177 L477.496461,310.156549 C475.716046,311.515287 473.167037,311.147555 471.843263,309.340993 C451.649567,281.782536 409.120493,238.303501 379.836722,215.725937 C377.873123,214.212017 377.745704,211.294702 379.569832,209.615347 L394.220995,196.126975 C395.656496,194.805402 397.836057,194.712394 399.378925,195.906873 C413.396877,206.75948 428.160791,220.011398 443.243763,234.666348 C467.374908,211.410967 493.843206,181.030111 509.85,158.185238 C509.85,158.186047 356,158.186047 356,158.186047 C353.790861,158.186047 352,156.395186 352,154.186047 L352,134.651163 C352,132.442024 353.790861,130.651163 356,130.651163 L533.44186,130.651163 Z" id="マチマチ" fill="#424257"></path>
            <path d="M92,322.041442 C92,324.251581 93.7913215,326.043252 96.0018103,326.043252 L222,326.043252 L92,196.043252 L92,322.041442 Z" id="Combined-Shape" fill="#40B379"></path>
            <path d="M237.839192,326.043252 L271.99857,326.043252 C274.210035,326.043252 276,324.252408 276,322.04329 L276,158.043252 L172.919596,261.123656 L235.919596,324.123656 L237.839192,326.043252 L237.839192,326.043252 Z" id="Combined-Shape" fill="#FACD46"></path>
            <path d="M186.828884,68.8721359 L276,158.043252 L92,158.043252 L181.171116,68.8721359 C182.733466,67.3097865 185.26553,67.3087815 186.828884,68.8721359 Z" id="Combined-Shape" fill="#EB5E75"></path>
        </g>
    </g>
</svg>