<svg id="ロゴ" xmlns="http://www.w3.org/2000/svg" viewBox="0 0 1000.01 186.04">
  <defs>
    <style>
      .cls-1 {
        fill: #282828;
      }

      .cls-2 {
        fill: #fff;
      }
    </style>
  </defs>
  <title>アートボード 1</title>
  <g>
    <path class="cls-1" d="M0,186V60.94L67.36,0l67.37,60.46V186Zm111-23.72v-81H23.73v81ZM102.71,60.39,67.36,29,32.23,60.39Z"/>
    <polygon class="cls-1" points="661.9 177.44 661.9 42.28 742.23 42.28 742.23 65.27 684.82 65.27 684.82 95.48 734.75 95.48 734.75 118.47 684.82 118.47 684.82 154.45 744.51 154.45 744.51 177.44 661.9 177.44"/>
    <path class="cls-1" d="M456,179.59c-49.15,0-51.6-62.22-51.6-70.8s2.45-68.66,51.6-68.66c49.54,0,51.61,60.08,51.61,68.66S505.57,179.59,456,179.59Zm0-115.72c-25.55,0-26.74,40.63-26.74,47.06s1.19,44.92,26.74,44.92c25.94,0,26.74-38.48,26.74-44.92S482,63.87,456,63.87Z"/>
    <polygon class="cls-1" points="329.03 177.42 329.03 66.93 295.53 66.93 295.53 42.28 387.08 42.28 387.08 66.93 353.58 66.93 353.58 177.42 329.03 177.42"/>
    <g>
      <path class="cls-1" d="M964.42,81.45c-4.75,0-8.61,4.23-8.61,9.44s3.86,9.43,8.61,9.43S973,96.1,973,90.89,969.18,81.45,964.42,81.45Z"/>
      <path class="cls-1" d="M948.52,40.6A51.5,51.5,0,1,0,1000,92.11v0A51.51,51.51,0,0,0,948.52,40.6Zm-8.76,64.91c0,7.17-3,16.58-16.33,16.58a16.31,16.31,0,0,1-2-.08v-7.16a9.5,9.5,0,0,0,2.13.21c4.86,0,8.07-3.22,8.07-9.55V74.74h8.17Zm-4.22-37.46a4.72,4.72,0,1,1,4.76-4.72A4.71,4.71,0,0,1,935.54,68.05Zm28.92,39.27a16.9,16.9,0,0,1-8.61-2.32v16.28h-8.22V74.74h7.11a1.07,1.07,0,0,1,1.07,1.07h0v.86a18.13,18.13,0,0,1,2.59-1.24l.34-.13.43-.14.43-.15.26-.06.52-.13.72-.17.55-.1.86-.11a1.43,1.43,0,0,0,.5-.06c.48,0,1-.07,1.45-.07s1,0,1.51.08h.21A16.83,16.83,0,0,1,976,78.86l.08.07c.31.3.61.6.89.92l.47.53c.16.18.32.38.47.58s.37.5.54.76v.06a15.86,15.86,0,0,1,2.11,4.53,2.17,2.17,0,0,0,.11.42c0,.14.14.53.2.81s.15.84.2,1.27a1.54,1.54,0,0,0,0,.47c0,.5.08,1,.08,1.54A16.67,16.67,0,0,1,964.46,107.32Z"/>
      <path class="cls-2" d="M963,74.38c.47,0,1-.07,1.45-.07C964,74.31,963.49,74.34,963,74.38Z"/>
      <path class="cls-2" d="M964.46,74.31a9.62,9.62,0,0,1,1.51.08C965.46,74.34,965,74.32,964.46,74.31Z"/>
      <path class="cls-2" d="M977.49,80.38,978,81Z"/>
      <path class="cls-2" d="M976.13,78.93c.31.29.6.6.89.92C976.74,79.53,976.44,79.23,976.13,78.93Z"/>
      <path class="cls-2" d="M959.6,75l-.43.15.69-.21Z"/>
      <path class="cls-2" d="M973.23,76.73a17.13,17.13,0,0,0-7.05-2.32A17.37,17.37,0,0,1,976,78.86,18,18,0,0,0,973.23,76.73Z"/>
      <path class="cls-2" d="M960.38,74.82l.72-.17Z"/>
      <path class="cls-2" d="M981,87.54c.08.41.15.83.2,1.27A5.34,5.34,0,0,1,981,87.54Z"/>
      <path class="cls-2" d="M961.65,74.55l.86-.11Z"/>
      <path class="cls-2" d="M981.29,90.82a10.07,10.07,0,0,0-.08-1.54C981.26,89.8,981.29,90.31,981.29,90.82Z"/>
      <path class="cls-2" d="M980.65,86.31a2.17,2.17,0,0,0,.11.42C980.73,86.59,980.69,86.45,980.65,86.31Z"/>
      <path class="cls-2" d="M978.5,81.72v0Z"/>
      <path class="cls-2" d="M958.4,75.43l.34-.13Z"/>
      <path class="cls-2" d="M961.1,74.65l.55-.1Z"/>
      <path class="cls-2" d="M955.81,76.67a18.66,18.66,0,0,1,2.59-1.24A18.13,18.13,0,0,0,955.81,76.67Z"/>
      <path class="cls-2" d="M959.86,75l.52-.13Z"/>
      <path class="cls-2" d="M958.74,75.3l.43-.14Z"/>
      <path class="cls-2" d="M977,79.85c.16.17.31.35.47.53A4.8,4.8,0,0,0,977,79.85Z"/>
      <path class="cls-2" d="M980.76,86.73c.07.27.14.53.2.81C980.9,87.26,980.83,87,980.76,86.73Z"/>
      <path class="cls-2" d="M978.54,81.78a16.56,16.56,0,0,1,2.11,4.53A15.86,15.86,0,0,0,978.54,81.78Z"/>
      <path class="cls-2" d="M962.51,74.44a1.43,1.43,0,0,0,.5-.06C962.84,74.39,962.68,74.42,962.51,74.44Z"/>
      <path class="cls-2" d="M981.16,88.81a1.54,1.54,0,0,0,.05.47C981.19,89.12,981.18,89,981.16,88.81Z"/>
      <path class="cls-2" d="M976,78.86l.08.07Z"/>
      <path class="cls-2" d="M978,81c.19.25.37.5.54.76C978.33,81.46,978.15,81.21,978,81Z"/>
    </g>
    <path class="cls-1" d="M815.62,179.59c-21.5,0-43.73-13.74-43.73-36.73v-7.24h26v3.18c.15,9.72,7.56,16.52,18,16.52,4.17,0,17.75-1.09,17.78-15,0-13.54-14.59-19.46-28.66-25.14-11.13-4.5-29.57-12.51-29.57-37.35,0-22.53,17-37.67,42.19-37.67,20.27,0,40.72,10.88,40.72,35.19V81H833s.27-3.82.27-4.81c0-7.23-6.18-11.72-16.14-11.72-11.93,0-16.18,6.74-16.18,13,0,11.45,12.14,15.26,21.77,19.77,21.31,10,37,17.33,37,43.93C859.77,166.42,837.56,179.59,815.62,179.59Z"/>
    <path class="cls-1" d="M227.46,179.59c-21.49,0-43.72-13.74-43.72-36.73v-7.24h26v3.18c.15,9.72,7.56,16.52,18,16.52,4.17,0,17.75-1.09,17.77-15,0-13.54-14.58-19.46-28.65-25.14-11.13-4.5-29.56-12.51-29.56-37.35,0-22.53,16.95-37.67,42.17-37.67,20.28,0,40.73,10.88,40.73,35.19V81H244.85s.27-3.82.27-4.81c0-7.23-6.18-11.72-16.14-11.72-11.93,0-16.18,6.74-16.18,13,0,11.45,12.13,15.26,21.76,19.77,21.32,10,37.05,17.33,37.05,43.93C271.61,166.42,249.4,179.59,227.46,179.59Z"/>
    <path class="cls-1" d="M604.81,177.44l-29.52-54.35H563.57v54.35h-22.8V42.28H579c27.24,0,44.16,15.44,44.16,40.31,0,17.39-9.56,31.36-24.37,35.66l33,57.08a1.39,1.39,0,0,1-.46,1.91,1.42,1.42,0,0,1-.72.2ZM575.6,100.2c17,0,23.06-4.81,23.06-18.37,0-13.93-8.52-16.66-23.25-16.66H563.57v35Z"/>
  </g>
</svg>
