<svg id="レイヤー_1" data-name="レイヤー 1" xmlns="http://www.w3.org/2000/svg" viewBox="0 0 500.15 146.64">
  <defs>
    <style>
      .cls-1 {
        fill: #231815;
      }

      .cls-2 {
        fill: #aaa;
      }

      .cls-3 {
        fill: #fff;
      }
    </style>
  </defs>
  <title>アートボード 1</title>
  <path class="cls-1" d="M498,105.1l-.14-.09.17-.69a4.43,4.43,0,0,0-1.54-4.49,4.43,4.43,0,0,0-1.71-2.48,4.3,4.3,0,0,0-.08-.45c0-.16-.06-.49-.07-.7v-.13a4.45,4.45,0,0,0-.08-1.78,4.45,4.45,0,0,0,2.91-4l.22-5.36A4.42,4.42,0,0,0,496,81.28H496l.07-1.89a4.46,4.46,0,0,0-1.67-3.64l-.32-.26a4.39,4.39,0,0,0-3.16-.93h-.55l-.06-.29a4.39,4.39,0,0,0-3.56-3.47l-6.9-1.23a4.41,4.41,0,0,0-3.22.67l-.47.32a4.45,4.45,0,0,0-2,3.94,1.75,1.75,0,0,1-.67,1.47L473,76a4.46,4.46,0,0,0-2.95-4.35l-.51-.18a4.61,4.61,0,0,0-2.18-.2l-6.84,1.1a4.45,4.45,0,0,0-2.61,1.44l-.37.41a4.41,4.41,0,0,0-1.11,3h-.93a4.46,4.46,0,0,0-2.9,1.29l-.11.11h0a1.77,1.77,0,0,0-.05-.5V78a4.42,4.42,0,0,0-1.07-3.23,4.49,4.49,0,0,0-4.66-1.32L436.4,76.71a4.39,4.39,0,0,0-2.74,2.45,4.46,4.46,0,0,0,.06,3.68c.12.24.23.46.34.65l-1.21.07a4.42,4.42,0,0,0-3,1.48l-.32.36a4.46,4.46,0,0,0-1.09,2.39l-.58,4.64c-8.05-1-12.58-2.83-18.22-9.68l-2.29-3-.16-.2a7.11,7.11,0,0,0-5.34-2.69l-1.26.06c-.45,0-.91.06-1.4.06H399a4.61,4.61,0,0,0-1.33.2l-.69.22a4.48,4.48,0,0,0-2.27,1.6c-1.07,1.44-2.11,2.76-3.17,4a18,18,0,0,0-7.8-7.92L391.61,40a4.42,4.42,0,0,0-2.78-5.12l.24-1a4.42,4.42,0,0,0-3.35-5.29h0a28.25,28.25,0,0,0-8.31-.42,24,24,0,0,0-7.22,2.17,14.45,14.45,0,0,0-7,5.84,4.23,4.23,0,0,0-.45,1.18c-1.11,4.85-2.59,11.75-4.39,20.52-1.58,7.62-2.59,12.48-3.11,14.83a10.84,10.84,0,0,1-4,3.2l6.21-27.46a5.25,5.25,0,0,0,.09-.55,9.46,9.46,0,0,0-2.21-7.7l-.27-.28A8.84,8.84,0,0,0,352.76,34a8.68,8.68,0,0,0-5.84-2.92,38.94,38.94,0,0,0-5.4.19,28.16,28.16,0,0,0-8.4,2.24,4.38,4.38,0,0,0-2.61,3.13l-2.34,10.61a23.9,23.9,0,0,0-3.75-5.73,20.67,20.67,0,0,0-18.1-7.17c-1.34.12-2.67.3-3.95.54l3.53-15.71a5,5,0,0,0,.09-.56,8,8,0,0,0-2.5-6.9,7.94,7.94,0,0,0-2-5.66c-2.34-2.58-6.21-3.55-12.05-3A26,26,0,0,0,281.11,5a4.44,4.44,0,0,0-2.54,3.15c-3.29,15.89-6.14,29.4-8.51,40.41A4.4,4.4,0,0,0,267.9,46l-.47-.22.23-1a4.41,4.41,0,0,0-2.3-4.91c-2.11-1.07-4.89-1.42-8.57-1.1a22.26,22.26,0,0,0-8.88,2.5,13.45,13.45,0,0,0-5.82,5.6,4.42,4.42,0,0,0-.36,1l-7,31.89v.17c-.23,1.28-.4,2.33-.52,3.19a11.72,11.72,0,0,1-4.3,3.41L236,59.11a5.25,5.25,0,0,0,.09-.55c.3-3.2-.44-5.79-2.21-7.7l-.28-.28a8.85,8.85,0,0,0-2.26-5.89,8.72,8.72,0,0,0-5.84-2.92,38.94,38.94,0,0,0-5.4.19,28.47,28.47,0,0,0-8.4,2.24,2.35,2.35,0,0,0-.45.22,23.87,23.87,0,0,0-1.07-6.55v-.13a23.86,23.86,0,0,0-2.2-4.92c-.1-.39-.2-.76-.3-1.13v-.12c-2.79-8.69-9.5-14.41-20-17a64.46,64.46,0,0,0-19.79-1c-11.68,1-21.75,4.32-29.92,9.81A40,40,0,0,0,134.39,26a14,14,0,0,0-1.17-1,4.44,4.44,0,0,0,3.12-4.84l-1.12-8.09a4.41,4.41,0,0,0-1.71-2.93,4.76,4.76,0,0,0-.47-.31l0-.66a4.42,4.42,0,0,0-3.8-3.78,9.5,9.5,0,0,1-1.62-2.06,4.43,4.43,0,0,0-6-1.81h0l-7.2,3.82a4.42,4.42,0,0,0-1.17.89A4.42,4.42,0,0,0,108.9,2.9L95.82,4a4.35,4.35,0,0,0-3.14,1.73,4.47,4.47,0,0,0-.83,3.48c.06.28.11.56.16.84l-6,.51c-3.3.28-6.47.34-8.55.34H75.2a4.32,4.32,0,0,0-1.77.37,4.75,4.75,0,0,0-.57-.69l-.41-.4A4.45,4.45,0,0,0,68.84,9l-11,1.25-33,3.19-11.06.88a4.35,4.35,0,0,0-2.64,1.15l-.53.49a4.42,4.42,0,0,0-1.42,2.87l-.46,5.31A4.45,4.45,0,0,0,10,27.62l.41.4a4.22,4.22,0,0,0,.56.47,4.41,4.41,0,0,0,1.31,3.06l.4.4a4.54,4.54,0,0,0,.93.7c.46,1,.94,1.84,1.44,2.7.28.46.58.94.92,1.45l-10.19.78a4.47,4.47,0,0,0-2.66,1.16l-.53.49a4.38,4.38,0,0,0-1.33,2.34L.1,47a4.39,4.39,0,0,0,1.22,4.07l.4.4a4.22,4.22,0,0,0,.56.47A4.38,4.38,0,0,0,3.6,55l.4.4a4.47,4.47,0,0,0,3.59,1.25l11.68-1.28L23.49,55,20.93,66.23a4.4,4.4,0,0,0,2.17,4.85,4.43,4.43,0,0,0,4.38,4.48h.4L42,74.4a4.4,4.4,0,0,0,4-3.8l2.51-18.12,11.74-1L65.39,51a16,16,0,0,1-1.59,2.71,6.26,6.26,0,0,1-1.51.75,4.46,4.46,0,0,0-3.84,4.34V62a4.45,4.45,0,0,0,1.36,3.24,4.71,4.71,0,0,0,.92.69A4.49,4.49,0,0,0,62,69.17c1.34,1.28,3,1.5,6.18,1.5a3.84,3.84,0,0,0,.48,0h.39c3.12-.34,12.17-1.33,17.39-12.7A4.44,4.44,0,0,0,88,60.34l4.27,3.37a4.42,4.42,0,0,0,6.2-.7c.61-.73,1-1.21,1.33-1.74s.74-1.09,1.11-1.66c.14-.22.27-.45.42-.72.76-1,1.56-2,2.46-3.06s1.93-2.19,2.9-3.26l.2-.2c.06.11.13.21.2.32l.19.3c.74,1.38,1.4,2.53,2.08,3.63a31.61,31.61,0,0,0,5,6.34,15.28,15.28,0,0,0,10.22,4.29h.13a15.53,15.53,0,0,0,5.31-1l.13-.06h.1a18,18,0,0,0,2,1.8,22.14,22.14,0,0,0,6.85,3.51c-13.83,7.94-21.32,17.12-22.3,27.32a15.22,15.22,0,0,0,2.67,10.69,14.21,14.21,0,0,0,4.19,8.1c3.31,3.22,7.83,4.62,13.48,4.13,14.31-1.24,23.8-10.83,28.22-28.51l3-12.47h1.69c0,.88-.08,1.83-.17,2.84a55.25,55.25,0,0,0,.19,14.19v.12a18.46,18.46,0,0,0,2.67,6.77,17.91,17.91,0,0,0,2.6,6.27,14.14,14.14,0,0,0,6.25,4.82,19.27,19.27,0,0,0,9.35,1.24,32.59,32.59,0,0,0,17.51-6.67c3.79,3,9.06,4.23,15.8,3.65a29.16,29.16,0,0,0,16.66-6.88c2.89,2.84,6.91,4.27,12,4.27a21,21,0,0,0,2.59-.11c5.18-.45,10.36-2.74,15.4-6.8.3-.24.59-.48.88-.74a19.64,19.64,0,0,0,6,3.21,30.36,30.36,0,0,0,9.92,1.51c.7,0,1.42,0,2.12-.06h.2c11-1,20.36-4.77,27.83-11.34a41.54,41.54,0,0,0,6.31-7l.24.35a14.39,14.39,0,0,0,4.6,8.36l.16.14a28.61,28.61,0,0,0-5,13.12c-.48,5,.45,9.2,2.76,12.44a14.54,14.54,0,0,0,5.3,9.1c4,3.14,8.87,4.49,14.7,4,8.4-.73,15.17-4.07,20.12-9.92l.6-.73a3.67,3.67,0,0,0,.42.61l-2.65,7.39a4.42,4.42,0,0,0,1.79,5.23l-.13.35a4.42,4.42,0,0,0,2.28,5.5l.5.23a4.43,4.43,0,0,0,1.89.43h.61c13.46-1.83,20.35-2.76,35.9-9.8l.21.22c.89.94,3.24,3.44,3.56,3.91a4.45,4.45,0,0,0,3.6,1.93h.66a4.43,4.43,0,0,0,2.47-.75l6.14-4.13a4.25,4.25,0,0,0,.75,1.17,4.43,4.43,0,0,0,3.3,1.48h.35l6.87-.55a4.53,4.53,0,0,0,1.86-.57,4.34,4.34,0,0,0,2.35.46l7.05-.56A4.36,4.36,0,0,0,449,139a11,11,0,0,0,2.08,1.51,9.77,9.77,0,0,0,3.31,1.13,9,9,0,0,0,4.5-.51,9.49,9.49,0,0,0,4.29-3.37l3.18,1.68.26.13.19.09a4.43,4.43,0,0,0,6.06-2.43l.19-.51c.12-.27.42-1,.89-1.89.3.47.61.9.92,1.32l.08.1a12.57,12.57,0,0,0,5.34,4.11,10.51,10.51,0,0,0,5,.6,10.8,10.8,0,0,0,4.31-1.58,11.09,11.09,0,0,0,1.68-1.3,6.62,6.62,0,0,0,.77-.82l.09-.1c.2-.24.4-.49.57-.74a11.7,11.7,0,0,0,1.55-3,12.89,12.89,0,0,0,.65-5.68,18.77,18.77,0,0,0-.79-4,25.43,25.43,0,0,0-1.09-3.07,18.34,18.34,0,0,0-.57-2.52c-.14-.48-.34-1.15-.62-1.9a5.39,5.39,0,0,0,.33-.5,14.79,14.79,0,0,0,2.47.4,4.4,4.4,0,0,0,4.67-3.37L500,110A4.41,4.41,0,0,0,498,105.1ZM298.53,77.85a11,11,0,0,1-6.8,4.63c.49-2.36,1.14-5.38,2-9l1.51-6.6c2.17-3.89,4.65-5.91,7.59-6.16a6.11,6.11,0,0,1,1.48,0,8.11,8.11,0,0,1-.08,1.38h0C303.59,68.47,301.68,73.75,298.53,77.85Zm-97,4.9c-.64,2.66-1,4.62-1.21,6a12.94,12.94,0,0,1-2.1,1.81c.09-1.34.2-2.82.34-4.42.43-5.53-.07-9.65-1.52-12.59A10.63,10.63,0,0,0,196,71.83a31,31,0,0,0,7.94-7.33c.86-1.13,1.65-2.27,2.36-3.42-1.37,6.29-2.95,13.54-4.74,21.67ZM177.92,41.9h0a4.15,4.15,0,0,0,.11-1.45,13.42,13.42,0,0,1,3.46,1.65,9.47,9.47,0,0,1,1,.8A13,13,0,0,1,178,51.68a16.36,16.36,0,0,1-2.89,2Zm-54.53,4.84a19.79,19.79,0,0,0-.06,2.88,2.18,2.18,0,0,1-.7-.58,45.34,45.34,0,0,1-1.77-4.59c-.29-.85-.57-1.73-.84-2.66a7.73,7.73,0,0,1,1.54-.58,1.91,1.91,0,0,0,.47-.12h.06a3.46,3.46,0,0,1,.78-.09V39.5h0L123,41a4.87,4.87,0,0,1,1.08.17l.33.12A31.54,31.54,0,0,0,123.39,46.74Z"/>
  <g>
    <path class="cls-2" d="M167.59,40.64a24.88,24.88,0,0,0-11.89,4.21q-.19.84-7.77,34.42-22.76,11.64-24.14,26.1a10.51,10.51,0,0,0,3,9q3.54,3.45,10,2.89,18.42-1.61,24.3-25.17l12.52-51.3A28.85,28.85,0,0,0,167.59,40.64ZM143.77,97.51q-2.16,8.65-7,9.08-4.14.36-3.78-3.43.6-6.28,12.69-13.81Z"/>
    <path class="cls-2" d="M309.24,44.88a29,29,0,0,0-14.82,5.17l7.16-31.9q.53-5.46-9.24-4.61a21.94,21.94,0,0,0-6.92,1.55q-8.75,42.27-13.11,61.23-1.55,6.83-2.16,10.83a26.5,26.5,0,0,1-2.8,3.77q-4.12,4.53-7.3,4.81Q256.52,96,257,91.3q.24-2.49,8.92-41.35-2-1-6.17-.64a17.89,17.89,0,0,0-7.15,2,9.23,9.23,0,0,0-4,3.7l-7,31.9c-.35,1.91-.56,3.3-.64,4.17q-4.58,6.17-10.68,6.69-6.59.57-5.92-6.42a17.92,17.92,0,0,1,.49-2.63l6.92-30.59a5.29,5.29,0,0,0-1-4.26,4.27,4.27,0,0,0-2.88-1.51,34,34,0,0,0-4.73.17A24.36,24.36,0,0,0,216,54.41q-2.72,13.19-7.63,35.48a48.57,48.57,0,0,0-1.16,5.86v.93q-4.34,5.2-9.17,5.64c-2.19.19-3.56-.54-4.08-2.18s-.46-6.44.23-14.42q.54-7-1.08-10.26t-6.89-3.87a29.12,29.12,0,0,0,14.19-9.82,30.55,30.55,0,0,0,6.16-13.23c.05-.56.16-1.64.31-3.26a17.25,17.25,0,0,0-.85-6.22Q202.52,28.31,189.17,25a60,60,0,0,0-18.43-.87q-16.45,1.44-27.84,9.07a32.33,32.33,0,0,0-6.09,5.23,13.84,13.84,0,0,0-2.8-4.9A12.63,12.63,0,0,0,130.52,31a10.36,10.36,0,0,0-4.13-1,15.06,15.06,0,0,0-3.84.4c-.6.15-1.19.29-1.77.48a17.13,17.13,0,0,0-1.83.62l.25-.08a18.89,18.89,0,0,0-4.76,2.47c-.25.17-.47.35-.71.52A123.11,123.11,0,0,1,112,21.87l2.82-.27,8.77-.83,4-.43a9.57,9.57,0,0,0,4.41.41l-1.11-8.09c-1.69.24-4.08-2.76-4.93-4.34l-3.61,1.92-3.61,1.9a21.66,21.66,0,0,0,2.47,3.6L115,16.4l-3.38.38c-.08-1.86-.11-3.72-.1-5.57l-13,1.13Q99,15.16,99.62,18l-10.9.93a111,111,0,0,1-11.24.33l-.53.48-.54,9.45-1,8.62c-.09.66-.17,1.29-.25,1.91L61.13,41l-.8.08c.45-.23.91-.46,1.36-.71a25.58,25.58,0,0,0,4.84-3.21,8.42,8.42,0,0,0,2.09-2.85A6.79,6.79,0,0,0,69,30a7.65,7.65,0,0,0-.84-2,8.56,8.56,0,0,0-1.25-1.67,7.05,7.05,0,0,0-4.29-2.11,9.91,9.91,0,0,0-1.09,0L71,23.44l.53-.5.46-5.3-.4-.4L60.54,18.5,27.47,21.69l-11.08.88-.53.49-.46,5.31.4.4L26.94,27.5,37,26.44,34.25,41.78a5,5,0,0,1-2-.58,6.86,6.86,0,0,1-2.73-3.08A22.36,22.36,0,0,1,27.85,34a21,21,0,0,1-.51-2.22,13.39,13.39,0,0,1-.26-2.1l-8.54.93c.38,1.18.77,2.8,1.2,3.75A27.72,27.72,0,0,0,21.14,37a22.37,22.37,0,0,0,3.73,4.82,21.94,21.94,0,0,0,3.06,2.37L20,45l-11.62.9-.54.49L6.7,51.83l.41.4L18.79,51l13.63-1.42L27.53,71.1,41.64,70l3-21.6L59.9,47l14.45-1.11c-.91,6.59-1.78,10.35-4.82,14.53a8.44,8.44,0,0,1-4.38,2.37V66c.28.28,3.08.26,3.08.26,3.32-.38,13.1-.8,16.54-17.37l1.15-5.73c.36-.41.7-.83,1.07-1.22.7-.74,1.41-1.47,2.14-2.15A12,12,0,0,1,91.4,38a3.2,3.2,0,0,1,2.24-.44,2.19,2.19,0,0,1,1.44.73c1,1.33.89,4.4-.2,7.87C94.33,48,93.67,49.9,93,51.74c-.34.92-.71,1.82-1.09,2.7-.19.44-.38.88-.58,1.29l-.55,1.1h0l4.28,3.37h0c.52-.63.8-1,1.15-1.51s.65-1,1-1.42c.18-.28.33-.56.49-.84q1.35-1.78,2.79-3.49t3-3.38c1-1.11,2.11-2.16,3.19-3.22.52-.52,1.06-1,1.61-1.51.56,1.26,1.14,2.52,1.76,3.78a60.71,60.71,0,0,0,3.12,5.64,26.51,26.51,0,0,0,4.25,5.47,10.87,10.87,0,0,0,7.2,3.09,11,11,0,0,0,3.89-.71,12.37,12.37,0,0,0,3.06-1.64,11.81,11.81,0,0,0,3.4,4,19.17,19.17,0,0,0,12.71,3.72l2.56-9q-9.77-.43-9.16-6.72a13.61,13.61,0,0,1,4.72-8.88q8-7.15,21.48-8.34,10.49-.91,16.69,3.25t5.53,11a17.39,17.39,0,0,1-6.08,11.7,20.74,20.74,0,0,1-12.08,4.93H171l-2.3,10.19c3.72-.08,6.15.84,7.29,2.78s1.48,5.63,1,11.08a51.89,51.89,0,0,0,.14,13,14.18,14.18,0,0,0,2,5.24,9.7,9.7,0,0,0,4.35,3.26,15,15,0,0,0,7.23.9,27.76,27.76,0,0,0,18.18-8.46,10.7,10.7,0,0,0,2,2.35q4.35,3.86,13.13,3.09a25.16,25.16,0,0,0,17.71-9.42q2.9,7.64,13.51,6.7,6.46-.56,13-5.84A24.17,24.17,0,0,0,272,97.08c.32.49.65,1,1,1.49a12.45,12.45,0,0,0,6.25,4.16,27.46,27.46,0,0,0,10.5,1.27Q304.87,102.7,315,93.74t13-24.59c.18-1,.3-1.87.39-2.74q.88-9.36-4.78-15.81A16.28,16.28,0,0,0,309.24,44.88ZM48.56,25.42,60,24.31l1.13-.09a9.09,9.09,0,0,0-2.81.72,12.18,12.18,0,0,0-3,1.79,28.3,28.3,0,0,0-4.13,4.48,38.15,38.15,0,0,1-4.62,4.89Zm8,16-9.73.94.4-.25a41.82,41.82,0,0,0,8.56-7.25,15,15,0,0,1,3.5-2.9c1.44-.71,2.12-.76,2.85-.47a1.77,1.77,0,0,1,1.34,1.41,3.72,3.72,0,0,1-.26,1.78,10.48,10.48,0,0,1-2.76,3.91,25.66,25.66,0,0,1-3.92,2.88Zm47.24,1.93c-.45.45-.88.91-1.31,1.37a12.81,12.81,0,0,0,.13-3.86,10.18,10.18,0,0,0-1.38-4.18,7.78,7.78,0,0,0-3.68-3.14,6.8,6.8,0,0,0-4.6-.17A8.3,8.3,0,0,0,89.6,35.6a38.72,38.72,0,0,0-2.86,3.14l1.78-14.61,12.27-1.19a134.38,134.38,0,0,0,4.26,14c.47,1.27,1,2.53,1.47,3.79-.92.86-1.84,1.76-2.74,2.67ZM129,56.78a4.33,4.33,0,0,1-1.89,1,4.65,4.65,0,0,1-2.13.11,6.05,6.05,0,0,1-3.51-2.22,22,22,0,0,1-2.68-4.5,57.27,57.27,0,0,1-2.08-5.37c-.7-2-1.28-4.1-1.8-6.19a21.85,21.85,0,0,1,2.27-1.38,13.74,13.74,0,0,1,3.54-1.42l.24-.07a8,8,0,0,1,2.34-.23,9.48,9.48,0,0,1,2.24.39,10.47,10.47,0,0,1,1.69.72,5.12,5.12,0,0,1,1.4,1,8.86,8.86,0,0,1,2.17,3.61,24.19,24.19,0,0,1,.9,4.77,27,27,0,0,0-1.36,6.28,15.18,15.18,0,0,0-.06,1.91A8.5,8.5,0,0,1,129,56.78ZM311.14,68.7q-1,10.8-6.56,18Q300,92.6,293.81,93.14c-2.53.22-4.45-.22-5.74-1.32a4.84,4.84,0,0,1-1.7-4.44q.27-2.77,3-14.9l1.66-7.2q4.43-8.39,11.38-9c3.41-.3,5.8.83,7.18,3.37A15.65,15.65,0,0,1,311.14,68.7Z"/>
    <path class="cls-2" d="M416.39,113.87l-33.13,2.6-9.82.6-.42.37-1.57,7.25.37.31,9.82-.94,5.65-.44c-1.94,3.36-6.17,8.41-10.07,9.44l-1.21.12-1.41.13-.51.54-2.9,8.09.5.24c14.49-2,20.73-2.9,37.58-10.79.9,1.09,5.54,5.8,6.36,7h.6l6.34-4.27.14-.45c-3.41-4.06-5.43-7.09-17.37-9.54l-.55.1-2,.94-.21.51a46.69,46.69,0,0,1,4.37,3.7c-7.36,2.12-10.79,3.28-26,3.74,6.07-2.43,12.83-7,14.93-10.26l18.92-1.41,9.82-.61.41-.31,1.58-7.36-.31-.25Z"/>
    <path class="cls-2" d="M407.81,91.05l-2.32-3a2.73,2.73,0,0,0-1.95-1.18c-.72,0-1.72.13-2.91.11l-.7.22a64.52,64.52,0,0,1-8,9c-1.79-8-6.64-12.3-14.58-13L387.29,39a23.15,23.15,0,0,0-7-.33,19.36,19.36,0,0,0-5.8,1.8,10.07,10.07,0,0,0-4.92,4q-1.67,7.32-4.37,20.43t-3.33,15.88q-4.31,5.77-10.28,6.3-6.58.57-5.92-6.42a26.48,26.48,0,0,1,.5-2.63l6.91-30.59a5.29,5.29,0,0,0-1-4.26,4.27,4.27,0,0,0-2.88-1.51,34,34,0,0,0-4.73.17,24.21,24.21,0,0,0-7.08,1.91q-1.93,8.76-3.64,16.55t-3.2,14.51a91.93,91.93,0,0,0-1.81,10q-.67,7.11,3.22,10.66T342.85,99Q332,109,331.06,118.6q-.75,7.83,3.86,11.49t11.56,3q10.86-1,17.13-8.38a40.36,40.36,0,0,0,7.92-15.36l5,4.71a1.09,1.09,0,0,0,.91.31,4.06,4.06,0,0,0,1.54-.62,66.43,66.43,0,0,0,7.64-5l.67-.46v.06l.15-.17a42.1,42.1,0,0,0,4.32-3.56c2.86-2.73,5.61-5.55,9.78-13.93,1.37,4.17,5.54,9.44,9.27,12.88a32.46,32.46,0,0,0,3.74,3.09,30.16,30.16,0,0,0,10,4,2.75,2.75,0,0,0,3.05-1.13l3.49-6.9C420.73,101.53,414.76,99.51,407.81,91.05Zm-51.76,17.82q-1.73,7.91-3.68,10.67a6.87,6.87,0,0,1-5.19,3,6.07,6.07,0,0,1-5-1.45q-1.77-1.73-1.39-5.64,1.35-10.35,18.1-19.8Zm15.66-.17c.19-.71.37-1.44.53-2.18l3.37-15q7.62,1.61,10.31,9.51A100.81,100.81,0,0,1,371.71,108.7Z"/>
    <path class="cls-2" d="M395.16,111.9a27.28,27.28,0,0,0,3.88,1,23.72,23.72,0,0,0,3.95.4,21.53,21.53,0,0,0,3.93-.28v-3a10.67,10.67,0,0,1-6.32-1.2,11.17,11.17,0,0,1-4.73-4.3s-1.4,1.25-2.76,2.36-3.28,2.55-3.28,2.55c.47.3,1.1.65,1.44.82l2,1C393.9,111.45,394.53,111.68,395.16,111.9Z"/>
    <path class="cls-2" d="M449.67,116.47l-1.56.16a5.15,5.15,0,0,0,1.15-1.18,2.51,2.51,0,0,0,.13-2.66,2.75,2.75,0,0,0-.7-.78l.22.19a2.26,2.26,0,0,0-1.24-.62,4,4,0,0,0-.69-.06h-1.26l1.34-.48a20.24,20.24,0,0,0,2.09-.9,7.22,7.22,0,0,0,2.58-2.07c.13-.19.26-.39.37-.59a5.16,5.16,0,0,0,.31-.73,3.78,3.78,0,0,0,0-2.44,3.52,3.52,0,0,0-1.14-1.58,3.61,3.61,0,0,0-1.21-.6,4,4,0,0,0-1.38-.12,7.81,7.81,0,0,0-2.71.78,26.58,26.58,0,0,1-3.41,1.51,10,10,0,0,1-3.38.64,2.4,2.4,0,0,1-.92-.15h0c-.05-.33.61-1.22,1.51-1.88a26.11,26.11,0,0,1,6.49-3.4,43.81,43.81,0,0,1,7.18-2.12,8.15,8.15,0,0,0,1.56-.13V93.92a5.5,5.5,0,0,1-2.41-1.64A9.48,9.48,0,0,1,451,89.64a16.92,16.92,0,0,1-.94-3.19c-.12-.55-.21-1.11-.29-1.67,0-.28-.06-.56-.08-.83a2.66,2.66,0,0,1,0-.69l-10.31,3.22c.26.53.45.81.67,1.18a11.58,11.58,0,0,0,.67,1c.45.66.93,1.3,1.43,1.92a24.37,24.37,0,0,0,2,2.19l-4.15.4-5.18.34-.32.36-.74,5.89.28.31,4-.51-.58.45a10.4,10.4,0,0,0-1.65,1.73,5.22,5.22,0,0,0-1.14,2.74,3.85,3.85,0,0,0,.27,1.84,3.5,3.5,0,0,0,1.35,1.55,4.75,4.75,0,0,0,1.67.62l-.53.32a18.37,18.37,0,0,0-1.89,1.39c-.35.32-.68.65-1,1a3.75,3.75,0,0,0-.76,1.4,2.73,2.73,0,0,0-.09.9,2.61,2.61,0,0,0,.34,1.12,2.37,2.37,0,0,0,.63.74,3.67,3.67,0,0,0,.53.34,3.38,3.38,0,0,0,1.21.31h.74a8.31,8.31,0,0,0,1.17-.11c.72-.11,1.39-.24,2.06-.37l3.87-.8c.61-.13,1.24-.23,1.86-.3a2.81,2.81,0,0,1,.41,0l-.33.27a15.52,15.52,0,0,1-2.64,1.48c-.92.41-1.86.78-2.82,1.14l-1,.07-7.27.37-.43.42L431,125l-.47,2.81-1.62,8.33,6.87-.55.17-.68,4.26-.28-.22.85,7-.56,1.4-9.53.35-2.07.18-1.13,1.08-5.4Zm-.94-8.61s-.08.07-.41,0h-.15A1.06,1.06,0,0,1,448.73,107.86ZM437,111.57s0-.07.26.05h-.06Zm9.87,2.4h0s0,0,0,0Zm-6.38,18.27-4.26.28,2-12.48h.2l4.07-.28Z"/>
    <path class="cls-2" d="M494,107.32a7.62,7.62,0,0,1-1.09-2,11.65,11.65,0,0,1-.55-2.26,8.93,8.93,0,0,1-.11-1.16,5.42,5.42,0,0,1,0-.57c0-.16,0-.41.05-.43l-7.85,1.55a7.24,7.24,0,0,0,.41,1c.14.28.28.56.43.82.29.53.61,1,.95,1.54a17.62,17.62,0,0,0,1.91,2.31l-3.93.42-2.59.27-3.1.26-2.47.21a35.54,35.54,0,0,0,4.11-1.64,8.75,8.75,0,0,0,1.05-.55,2.83,2.83,0,0,0,1.27-1.44,2,2,0,0,0-.14-1.7,2.42,2.42,0,0,0-1-.93,3.2,3.2,0,0,0-.91-.28,5.5,5.5,0,0,1-.62-.08h-1.45c.84-.15,1.7-.32,2.59-.55a18.06,18.06,0,0,0,2.36-.77,6.28,6.28,0,0,0,1.69-1,3.94,3.94,0,0,0,.62-.67,2.27,2.27,0,0,0,.3-.46,3.55,3.55,0,0,0,.28-.63,3.39,3.39,0,0,0-.07-2.39,3.48,3.48,0,0,0-.7-1.07,4.07,4.07,0,0,0-.69-.55,4.39,4.39,0,0,0-1.53-.55,6.11,6.11,0,0,0-.86-.09A9.87,9.87,0,0,0,481,94a18.76,18.76,0,0,0-2.25.33l-3.95.88a53.71,53.71,0,0,1-7.77,1.14,14.63,14.63,0,0,1-3.68-.13,1.83,1.83,0,0,1-.39-.09,2,2,0,0,1,.36-.19,14.91,14.91,0,0,1,1.65-.71c1.18-.42,2.43-.78,3.7-1.11,2.54-.65,5.15-1.18,7.77-1.65,5.25-.94,11.32-1.69,16.61-2.3l.11-2.41.12-2.93L493,84.5l-8.18.76a6,6,0,0,0,2.93-4l-.1-.49-6.9-1.22-.47.31c.13,2.39-1,4.33-3.36,6l-5.61.36a5.24,5.24,0,0,1-1-4.83l-.51-.18L463,82.31l-.37.42a6.11,6.11,0,0,0,2.57,4.09l-7.69.4-.36.36-.79,4.77.31.31,6.32-.63c-.4.16-.81.34-1.22.55a6.35,6.35,0,0,0-2.25,1.73,3.35,3.35,0,0,0-.53,1.07,3.23,3.23,0,0,0-.07,1.2,3,3,0,0,0,1.24,2,6.26,6.26,0,0,0,2.63,1l.7.09c-.6.21-1.21.42-1.82.67a10.16,10.16,0,0,0-1,.46,9.82,9.82,0,0,0-1.24.66,3.14,3.14,0,0,0-.5.38l-.16.14-.22.24a3,3,0,0,0-.49.9,2.81,2.81,0,0,0-.12,1,2.52,2.52,0,0,0,.25.94,3.45,3.45,0,0,0,.25.41,2,2,0,0,0,.19.22,3.62,3.62,0,0,0,.42.36,3.2,3.2,0,0,0,.51.29l.36.12a6.07,6.07,0,0,0,1.52.22h2.21c1.4-.07,2.76-.21,4.12-.32l8-.7a20.8,20.8,0,0,1,2.23-.1,43,43,0,0,1-6.33,2.36,101.3,101.3,0,0,1-11.42,2.44c.12-.21.24-.43.35-.66a3.72,3.72,0,0,0,.18-.42,4.31,4.31,0,0,0,.22-.6L455,107c.05-.18,0-.07,0-.07V107a1.18,1.18,0,0,1-.14.28,6,6,0,0,1-.41.62,9,9,0,0,1-1.15,1.24,11.13,11.13,0,0,1-1.45,1.11,15.68,15.68,0,0,1-1.67,1l2.63,5.41.28-.14.08.07,4.87-.5c-.07,1.39-.19,2.81-.35,4.18v.26l-.17.09a35.41,35.41,0,0,0-3.74,2.34,10.41,10.41,0,0,0-3.18,3.64,7.54,7.54,0,0,0-.73,5.33,7.12,7.12,0,0,0,1.23,2.59,7,7,0,0,0,2.24,2,5.09,5.09,0,0,0,1.78.61,4.61,4.61,0,0,0,2.27-.25,5.32,5.32,0,0,0,2.83-2.75c.13-.28.2-.45.27-.61l.21-.52.41-1,.78-2.09a66.26,66.26,0,0,0,2.37-8.54c.08-.37.15-.74.22-1.12a5.27,5.27,0,0,1,1.43.08,4.51,4.51,0,0,1,.88.28,2,2,0,0,1,.64.4,2.38,2.38,0,0,1,.6,1.47,9.19,9.19,0,0,1-.75,3.58,19.14,19.14,0,0,1-1.7,3.27c-.35.56-.72,1.13-1.1,1.69l-.58.84-.29.41-.15.21-.08.1h0c.13.08-.32-.15.3.18h0l4.9,2.59.3.14v-.05l.24-.61s.46-1.08,1.28-2.69a27.56,27.56,0,0,1,3.34-4.62l1-1.17a35.94,35.94,0,0,0,2.08,4.28,24.55,24.55,0,0,0,1.74,2.68,8.22,8.22,0,0,0,3.46,2.74,6,6,0,0,0,2.87.35,6.4,6.4,0,0,0,2.53-.93,7,7,0,0,0,1-.79,6.52,6.52,0,0,0,.5-.55c.12-.15.23-.3.33-.44a7.5,7.5,0,0,0,1-1.95,8.83,8.83,0,0,0,.42-3.85,14.28,14.28,0,0,0-.63-3.16,12.22,12.22,0,0,0-3.23-5.91,6,6,0,0,0-3.44-1.43,6.84,6.84,0,0,0-3.43.59,8.66,8.66,0,0,0-1.94,1.1,8.43,8.43,0,0,1-.2-1,19.38,19.38,0,0,1-.15-3.73l4.57-.35,5.9-.39.38-.31.67-4.36a12.72,12.72,0,0,0,2.52,1.65,9.65,9.65,0,0,0,3.49.91l.66-2.76A6.07,6.07,0,0,1,494,107.32Zm-12-7.43h.14a.49.49,0,0,1-.17,0ZM461.23,102h0Zm-5,26.19c-.18.64-.35,1.28-.54,1.92l-.62,1.76c-.1.34-.13.32.14.28s.34.17,0,.12a3.26,3.26,0,0,1-2-1.48,2.51,2.51,0,0,1-.25-1.29,5.6,5.6,0,0,1,.35-1.56,8.12,8.12,0,0,1,2.06-2.86,18.45,18.45,0,0,1,1.75-1.55c-.23,1.58-.54,3.13-.92,4.67ZM479,121.74a8.94,8.94,0,0,1,1.89-1.33H481a3.76,3.76,0,0,1,2-.41,2,2,0,0,1,1.49,1,4.49,4.49,0,0,1,.67,2,17.09,17.09,0,0,1,.06,2.48,18.31,18.31,0,0,1-.18,2.46,5.94,5.94,0,0,1-.5,1.7,2.73,2.73,0,0,1-.37.52l-.09.12H484a1.33,1.33,0,0,1-.19-.14,3.9,3.9,0,0,1-.59-.63,20.85,20.85,0,0,1-1.5-2,25,25,0,0,1-2.39-4.51c-.17-.4-.34-.81-.5-1.21Zm-6.37-2.55c.32,1.27.57,2.56.9,3.84-.82.79-1.61,1.59-2.36,2.43l-.16.19a10.92,10.92,0,0,0-1-3.8,6,6,0,0,0-1.56-2.09,3.43,3.43,0,0,0-1.16-.66,8.74,8.74,0,0,0-1.14-.32,9,9,0,0,0-1.46-.18c.18-1,.34-2.08.48-3.15h.57l5.8-.49h0c.32,1.39.61,2.82,1,4.23Z"/>
  </g>
  <g>
    <path class="cls-3" d="M165.05,34.47a24.88,24.88,0,0,0-11.89,4.21q-.19.84-7.77,34.42-22.75,11.64-24.14,26.1a10.51,10.51,0,0,0,3,9q3.54,3.45,10,2.89,18.42-1.61,24.3-25.17l12.52-51.3A28.85,28.85,0,0,0,165.05,34.47ZM141.23,91.34q-2.16,8.66-7,9.08-4.14.36-3.78-3.43.6-6.28,12.69-13.81Z"/>
    <path class="cls-3" d="M306.7,38.71a29,29,0,0,0-14.82,5.17L299,12q.53-5.46-9.24-4.61a21.94,21.94,0,0,0-6.92,1.55q-8.76,42.27-13.11,61.23c-1,4.55-1.75,8.15-2.16,10.83a26.5,26.5,0,0,1-2.8,3.77q-4.12,4.53-7.3,4.81c-2.35.21-3.37-1.27-3.08-4.43q.24-2.49,8.91-41.35c-1.33-.67-3.39-.88-6.16-.64a17.89,17.89,0,0,0-7.15,2,9.17,9.17,0,0,0-4,3.7l-7,31.9c-.35,1.91-.56,3.3-.64,4.17q-4.59,6.16-10.68,6.69-6.58.57-5.92-6.42a17.92,17.92,0,0,1,.49-2.63L229.16,52a5.32,5.32,0,0,0-1-4.26,4.27,4.27,0,0,0-2.88-1.51,34,34,0,0,0-4.73.17,24.53,24.53,0,0,0-7.08,1.91q-2.72,13.18-7.63,35.48a48.57,48.57,0,0,0-1.16,5.86v.92q-4.34,5.22-9.17,5.65c-2.19.19-3.56-.54-4.08-2.18s-.46-6.44.22-14.42q.56-7-1.07-10.26t-6.89-3.87A29.09,29.09,0,0,0,197.8,55.6,30.4,30.4,0,0,0,204,42.37c.05-.56.16-1.65.31-3.27a17.23,17.23,0,0,0-.85-6.21Q200,22.14,186.63,18.83A60.31,60.31,0,0,0,168.2,18q-16.45,1.39-27.84,9a32.19,32.19,0,0,0-6.53,5.74,13.13,13.13,0,0,0-2.1-3.17A12.72,12.72,0,0,0,128.25,27a10.29,10.29,0,0,0-4.14-1,15.06,15.06,0,0,0-3.84.4c-.6.16-1.19.29-1.77.48s-1.1.33-1.82.62l.24-.08a18.89,18.89,0,0,0-4.76,2.47c-.25.17-.47.35-.71.53a120.21,120.21,0,0,1-1.74-12.53l2.81-.26,8.77-.84,4-.43a9.77,9.77,0,0,0,3.35.5,4.87,4.87,0,0,0,1.07-.08l-1.12-8.09c-1.68.23-4.08-2.77-4.93-4.35l-3.66,2-3.61,1.9a21.07,21.07,0,0,0,2.47,3.6l-6.14.66-3.38.38c-.07-1.86-.11-3.72-.09-5.57l-13,1.13c.35,1.89.73,3.76,1.13,5.63l-10.9,1a111,111,0,0,1-11.24.33l-.53.47-.53,9.46-1,8.61c-.09.66-.17,1.29-.25,1.92l-14,1.33-.8.07c.46-.23.91-.45,1.36-.71a24.8,24.8,0,0,0,4.84-3.21,8.16,8.16,0,0,0,2.09-2.85,6.85,6.85,0,0,0,.34-4.33,7.76,7.76,0,0,0-.83-2,9.7,9.7,0,0,0-1.25-1.67,7,7,0,0,0-4.3-2.11,9.73,9.73,0,0,0-1.08,0l9.53-.75.54-.49.46-5.31-.41-.4L58.27,14.57,25.2,17.76l-11.09.88-.53.49-.46,5.31.4.4,11.14-1.27,10.09-1.06L32,37.86a5.2,5.2,0,0,1-2-.59,6.88,6.88,0,0,1-2.74-3.08,22,22,0,0,1-1.62-4.14c-.21-.73-.37-1.47-.51-2.22a13.39,13.39,0,0,1-.26-2.1l-8.54.93c.38,1.19.77,2.81,1.2,3.75a27.72,27.72,0,0,0,1.4,2.65,22.37,22.37,0,0,0,3.73,4.82,21.94,21.94,0,0,0,3.06,2.37l-7.9.81L6.12,42l-.53.49L4.43,47.91l.4.39L16.52,47l13.63-1.4-4.9,21.57L39.36,66l3-21.61L57.62,43l14.45-1c-.9,6.59-1.78,10.36-4.81,14.53a8.47,8.47,0,0,1-4.38,2.37v3.16c.29.28,3.09.27,3.09.27,3.31-.39,13.1-.81,16.53-17.38l1.16-5.73c.35-.4.69-.82,1.06-1.21.7-.75,1.41-1.48,2.15-2.16A11.73,11.73,0,0,1,89.12,34a3.16,3.16,0,0,1,2.24-.43,2.19,2.19,0,0,1,1.45.73c1,1.32.88,4.4-.2,7.87-.56,1.91-1.21,3.78-1.89,5.62-.34.92-.71,1.82-1.09,2.7-.19.44-.38.88-.58,1.3l-.54,1.09h0l4.27,3.38h0c.52-.63.8-1,1.16-1.51s.64-1,1-1.42c.17-.28.33-.56.49-.84.89-1.19,1.83-2.35,2.78-3.48s2-2.27,3-3.39,2.11-2.16,3.19-3.21c.53-.52,1.06-1,1.61-1.52.57,1.27,1.15,2.53,1.76,3.78a62,62,0,0,0,3.12,5.64,26.83,26.83,0,0,0,4.25,5.48,10.27,10.27,0,0,0,11.09,2.37,11.51,11.51,0,0,0,3.42-1.91l.39-.36a12.42,12.42,0,0,0,2.39,2.36A19.16,19.16,0,0,0,145.13,62l2.56-9q-9.76-.44-9.16-6.72a13.61,13.61,0,0,1,4.72-8.88q8-7.17,21.48-8.34,10.49-.92,16.69,3.25t5.53,11A17.4,17.4,0,0,1,180.87,55a20.74,20.74,0,0,1-12.08,4.93h-.37l-2.3,10.19c3.72-.08,6.15.84,7.29,2.78s1.48,5.63,1,11.08a51.89,51.89,0,0,0,.14,13,14.07,14.07,0,0,0,2,5.23,9.72,9.72,0,0,0,4.35,3.27,15,15,0,0,0,7.23.9A27.76,27.76,0,0,0,206.35,98a10.47,10.47,0,0,0,2,2.35q4.35,3.86,13.13,3.09A25.2,25.2,0,0,0,239.19,94q2.9,7.62,13.51,6.7,6.46-.56,13-5.84A24.17,24.17,0,0,0,269.49,91c.32.49.65,1,1,1.49a12.48,12.48,0,0,0,6.26,4.16,27.38,27.38,0,0,0,10.41,1.21q15.12-1.32,25.29-10.26t13-24.59c.17-1,.3-1.87.39-2.74q.89-9.36-4.78-15.81A16.31,16.31,0,0,0,306.7,38.71ZM46.29,21.49l11.44-1.11,1.14-.09a9.38,9.38,0,0,0-2.81.72,12.81,12.81,0,0,0-3,1.79A28.3,28.3,0,0,0,49,27.28a36.91,36.91,0,0,1-4.63,4.89Zm8,16.05-9.74.94.41-.25A42.19,42.19,0,0,0,53.5,31,14.87,14.87,0,0,1,57,28.08c1.43-.7,2.12-.76,2.85-.47A1.8,1.8,0,0,1,61.19,29a3.72,3.72,0,0,1-.26,1.78,10.51,10.51,0,0,1-2.77,3.91,24,24,0,0,1-3.89,2.83Zm47.23,1.94c-.44.44-.87.9-1.31,1.36a12.81,12.81,0,0,0,.14-3.86A10.35,10.35,0,0,0,99,32.8a7.71,7.71,0,0,0-3.67-3.14,6.8,6.8,0,0,0-4.6-.17,8.36,8.36,0,0,0-3.34,2.18,37,37,0,0,0-2.86,3.14L86.24,20.2,98.51,19a134.44,134.44,0,0,0,4.27,14c.46,1.28,1,2.54,1.47,3.79-.93.88-1.85,1.78-2.75,2.69ZM126.7,52.85a4.34,4.34,0,0,1-1.88,1,4.7,4.7,0,0,1-2.14.1,6,6,0,0,1-3.5-2.21,22.6,22.6,0,0,1-2.69-4.51c-.77-1.73-1.47-3.52-2.08-5.36-.7-2-1.28-4.1-1.79-6.2a20.85,20.85,0,0,1,2.27-1.38,13.17,13.17,0,0,1,3.53-1.41l.25-.08a7.94,7.94,0,0,1,2.33-.2,8.85,8.85,0,0,1,2.23.4,10.2,10.2,0,0,1,1.7.72,5.1,5.1,0,0,1,1.39,1.05,8.77,8.77,0,0,1,2.18,3.61,18.89,18.89,0,0,1,.63,2.57,27.16,27.16,0,0,0-1.32,6.17,14.23,14.23,0,0,0,.19,4.17,8.94,8.94,0,0,1-1.32,1.56Zm181.9,9.68q-1,10.8-6.56,18-4.56,5.93-10.77,6.46-3.79.33-5.74-1.32a4.84,4.84,0,0,1-1.7-4.44q.27-2.79,3-14.9l1.65-7.2q4.44-8.39,11.39-9c3.41-.3,5.8.83,7.17,3.37A15.59,15.59,0,0,1,308.6,62.53Z"/>
    <path class="cls-3" d="M414.73,108.29l-33.13,2.6-9.82.6-.42.36-1.57,7.26.37.3,9.81-.93,5.66-.45c-1.94,3.37-6.17,8.42-10.08,9.45-2.92.29.8-.08-2.62.25l-.5.53-2.9,8.09.5.24c14.49-2,20.73-2.89,37.58-10.78.9,1.09,5.54,5.79,6.36,7h.6l6.34-4.27.14-.45c-3.41-4-5.44-7.08-17.37-9.54l-.56.1-2,.94-.21.52a46.69,46.69,0,0,1,4.37,3.7c-7.37,2.12-10.8,3.27-26,3.74,6.07-2.44,12.82-7,14.92-10.27l18.93-1.41,9.82-.6.41-.31,1.58-7.37-.32-.25Z"/>
    <path class="cls-3" d="M406.14,85.46l-2.31-3a2.8,2.8,0,0,0-1.95-1.18c-.72,0-1.73.13-2.92.12l-.69.22a63,63,0,0,1-8.63,9.61q-2.34-13-14.81-14.14l9.92-44.26a23.48,23.48,0,0,0-7-.33A19.64,19.64,0,0,0,372,34.3a10.07,10.07,0,0,0-4.92,4q-1.66,7.32-4.37,20.43t-3.33,15.88q-4.31,5.77-10.28,6.3-6.59.57-5.92-6.42a26.48,26.48,0,0,1,.5-2.63l6.91-30.59a5.29,5.29,0,0,0-1-4.26,4.27,4.27,0,0,0-2.88-1.51,34,34,0,0,0-4.73.17,24.21,24.21,0,0,0-7.08,1.91q-1.93,8.76-3.64,16.55T328,68.59a91.93,91.93,0,0,0-1.81,10q-.68,7.11,3.22,10.66t10.91,3.52q-10.87,10-11.79,19.6-.75,7.83,3.86,11.49t11.56,3q10.86-.94,17.13-8.37a41.4,41.4,0,0,0,8.63-18.21l3.37-15Q381.15,87,383.7,95.76a110.29,110.29,0,0,1-14.24,7.57l5.43,5.09a1.08,1.08,0,0,0,.9.32,4.18,4.18,0,0,0,1.55-.62,66.43,66.43,0,0,0,7.64-5A40.69,40.69,0,0,0,390.12,99c2.86-2.73,5.62-5.56,9.78-13.94,1.38,4.18,5.55,9.45,9.28,12.88a32.55,32.55,0,0,0,3.74,3.1,29.86,29.86,0,0,0,10,4,2.72,2.72,0,0,0,3-1.12l3.5-6.9C419.06,95.94,413.1,93.92,406.14,85.46ZM353.51,102.7q-1.72,7.9-3.68,10.67a6.87,6.87,0,0,1-5.19,3,6.07,6.07,0,0,1-5-1.45q-1.77-1.73-1.39-5.64,1.35-10.35,18.1-19.8Z"/>
    <path class="cls-3" d="M393.5,106.31a27.14,27.14,0,0,0,3.87,1,23.39,23.39,0,0,0,4,.41,21.53,21.53,0,0,0,3.93-.28v-3a10.71,10.71,0,0,1-6.33-1.2,11.16,11.16,0,0,1-4.72-4.31s-1.4,1.26-2.76,2.36-3.29,2.56-3.29,2.56c.48.29,1.11.65,1.45.82s1.71.83,2,1C392.23,105.86,392.87,106.1,393.5,106.31Z"/>
    <path class="cls-3" d="M448,110.89l-1.57.16a5,5,0,0,0,1.16-1.19,2.77,2.77,0,0,0,.43-1.68,2.38,2.38,0,0,0-.31-1,2.5,2.5,0,0,0-.69-.79l.22.19A2.24,2.24,0,0,0,446,106a4.14,4.14,0,0,0-.7-.06h-1.25c.45-.15.89-.3,1.34-.48a17.34,17.34,0,0,0,2.08-.89,7.25,7.25,0,0,0,2.59-2.07c.13-.19.25-.39.36-.59a5.33,5.33,0,0,0,.32-.74,3.75,3.75,0,0,0,0-2.43,3.37,3.37,0,0,0-1.15-1.58,3.47,3.47,0,0,0-1.2-.6,4.32,4.32,0,0,0-1.39-.13,8,8,0,0,0-2.7.78,24.89,24.89,0,0,1-3.42,1.52,9.74,9.74,0,0,1-3.37.64,2.91,2.91,0,0,1-.92-.15h0a3.84,3.84,0,0,1,1.52-1.87,25.81,25.81,0,0,1,6.49-3.41,45.86,45.86,0,0,1,7.18-2.12,8.2,8.2,0,0,0,1.56-.12V88.35a5.45,5.45,0,0,1-2.42-1.64,9.74,9.74,0,0,1-1.53-2.65,17.78,17.78,0,0,1-1-3.18c-.11-.55-.21-1.12-.28-1.67a7.52,7.52,0,0,0-.09-.83,2.66,2.66,0,0,1,0-.69L437.71,80.9a10.68,10.68,0,0,0,.67,1.19c.22.34.43.68.66,1,.46.66.93,1.3,1.43,1.92s1.3,1.5,2,2.2l-4.15.4-5.17.33-.32.37-.75,5.89.29.3,4-.51-.59.46a10.74,10.74,0,0,0-1.65,1.72A5.33,5.33,0,0,0,433,98.91a3.85,3.85,0,0,0,.27,1.84,3.39,3.39,0,0,0,1.35,1.55,5,5,0,0,0,1.67.63c-.18.1-.36.2-.53.31a17.09,17.09,0,0,0-1.89,1.4,9.44,9.44,0,0,0-1,1,3.56,3.56,0,0,0-.77,1.4,2.78,2.78,0,0,0,.25,2,3.07,3.07,0,0,0,.64.75,2.62,2.62,0,0,0,.53.33,3.18,3.18,0,0,0,1.21.31h.73a8.4,8.4,0,0,0,1.18-.12c.72-.1,1.39-.24,2.06-.37l3.87-.8c.63-.11,1.26-.25,1.86-.3a2.67,2.67,0,0,1,.4,0l-.33.27a14.44,14.44,0,0,1-2.63,1.48q-1.38.61-2.82,1.14l-1,.08-7.28.36-.43.42-1,6.84-.46,2.8-1.62,8.33,6.86-.54.17-.68,4.27-.29-.22.86,7.05-.56,1.4-9.53.34-2.08.19-1.12,1.08-5.4Zm-.94-8.61s-.08.06-.42,0h-.14c.3-.07.5-.06.57,0Zm-11.78,3.66s0-.07.27.06h0a1.13,1.13,0,0,1-.26,0Zm9.88,2.41h0s0,0,0,0Zm-6.38,18.26-4.26.29,2-12.49h.19l4.08-.27Z"/>
    <path class="cls-3" d="M492,101.74a7.89,7.89,0,0,1-1.08-2,11.79,11.79,0,0,1-.67-3.43v-.56c0-.18,0-.42.06-.43l-7.85,1.54a7.24,7.24,0,0,0,.41,1c.14.28.28.56.43.82a15.3,15.3,0,0,0,.95,1.55,17.18,17.18,0,0,0,1.93,2.33l-3.66.4-2.6.27-3.09.26-2.48.2a33.92,33.92,0,0,0,4.12-1.63,10.48,10.48,0,0,0,1-.55,3,3,0,0,0,1.27-1.44,2,2,0,0,0-.14-1.7,2.31,2.31,0,0,0-1-.93,3.14,3.14,0,0,0-.9-.28,5.5,5.5,0,0,1-.62-.08h-1.46c.85-.15,1.71-.31,2.6-.55a18,18,0,0,0,2.36-.76,6.28,6.28,0,0,0,1.69-1A5,5,0,0,0,484,94a3.64,3.64,0,0,0,.3-.46,5.17,5.17,0,0,0,.28-.64,3.45,3.45,0,0,0-.08-2.39,3.49,3.49,0,0,0-1.38-1.61,4.41,4.41,0,0,0-1.53-.56,6.4,6.4,0,0,0-.87-.08H479.4a18.78,18.78,0,0,0-2.25.34l-3.95.87a55.16,55.16,0,0,1-7.77,1.15,14.63,14.63,0,0,1-3.68-.14,2.74,2.74,0,0,1-.39-.09l.36-.19a14.08,14.08,0,0,1,1.65-.7,37.63,37.63,0,0,1,3.63-1c2.54-.66,5.16-1.18,7.78-1.66,5.24-.93,11.31-1.69,16.61-2.3l.11-2.4.12-2.93-.32-.25-8.18.75a6,6,0,0,0,2.93-4l-.1-.49L479.05,74l-.48.32c.14,2.38-1,4.33-3.36,6l-5.6.36a5.2,5.2,0,0,1-1-4.82l-.51-.18-6.85,1.1-.37.41a6.06,6.06,0,0,0,2.57,4.1l-7.69.39-.36.36-.8,4.77.31.31,6.33-.63c-.4.17-.81.34-1.22.55a6.22,6.22,0,0,0-2.26,1.74,3.07,3.07,0,0,0-.59,2.27,3,3,0,0,0,1.24,2A6.39,6.39,0,0,0,461,94l.69.09c-.6.2-1.2.41-1.81.66a9.19,9.19,0,0,0-1,.46,9.82,9.82,0,0,0-1.24.66,6,6,0,0,0-.5.38l-.16.14a2.62,2.62,0,0,0-.22.25,2.84,2.84,0,0,0-.5.9,2.7,2.7,0,0,0-.11.94,2.52,2.52,0,0,0,.25.94,2.91,2.91,0,0,0,.25.42l.19.21a2.41,2.41,0,0,0,.41.37,3.25,3.25,0,0,0,.52.28l.35.13a6.55,6.55,0,0,0,1.52.21h2.22c1.4-.07,2.76-.21,4.12-.31l8-.71c.74-.07,1.5-.1,2.23-.1a38.87,38.87,0,0,1-6.33,2.36,98.53,98.53,0,0,1-11.41,2.44c.12-.2.23-.42.35-.65a2.48,2.48,0,0,0,.18-.42,6.32,6.32,0,0,0,.22-.61l-6-1.62v0a1.51,1.51,0,0,1-.15.28,5.16,5.16,0,0,1-.4.63,8.38,8.38,0,0,1-1.15,1.23,12.17,12.17,0,0,1-1.45,1.12c-.53.34-1.09.66-1.67,1l2.62,5.41.28-.15.09.07,4.87-.49c-.08,1.39-.2,2.8-.35,4.17V115l-.17.09a36,36,0,0,0-3.73,2.35,10.6,10.6,0,0,0-3.19,3.63,7.71,7.71,0,0,0-.73,5.33,7.41,7.41,0,0,0,1.23,2.6,7.18,7.18,0,0,0,2.25,2,5.09,5.09,0,0,0,1.78.61,4.71,4.71,0,0,0,2.26-.26,5.31,5.31,0,0,0,2.84-2.75c.13-.27.2-.44.27-.61l.21-.52.41-1,.78-2.09a66.57,66.57,0,0,0,2.37-8.53c.08-.38.14-.75.22-1.12a5.27,5.27,0,0,1,1.43.08,3.81,3.81,0,0,1,.87.27,1.8,1.8,0,0,1,.64.41,2.27,2.27,0,0,1,.6,1.46,9.45,9.45,0,0,1-.74,3.59,19.05,19.05,0,0,1-1.7,3.26c-.35.57-.72,1.13-1.1,1.69l-.58.84-.3.42-.14.2-.08.11h0c.13.08-.32-.16.3.17h0l4.9,2.58.3.14h0l.24-.6s.46-1.09,1.27-2.7A28.63,28.63,0,0,1,472,122l1-1.17a35.94,35.94,0,0,0,2.08,4.28,26.13,26.13,0,0,0,1.74,2.68,8.22,8.22,0,0,0,3.46,2.74,6,6,0,0,0,2.88.35,6.38,6.38,0,0,0,2.53-.92,8.55,8.55,0,0,0,1-.8,4.28,4.28,0,0,0,.49-.55,3.68,3.68,0,0,0,.34-.44,8,8,0,0,0,1-2,8.78,8.78,0,0,0,.41-3.84,14.82,14.82,0,0,0-.62-3.17,12.16,12.16,0,0,0-3.24-5.9,5.84,5.84,0,0,0-3.43-1.44,7.13,7.13,0,0,0-3.44.59,9.51,9.51,0,0,0-1.94,1.1c-.07-.33-.15-.66-.19-1a19.38,19.38,0,0,1-.15-3.73l4.57-.36,5.9-.38.37-.31.64-4.15a12.72,12.72,0,0,0,2.26,1.44,9.84,9.84,0,0,0,3.49.9l.66-2.75A6.37,6.37,0,0,1,492,101.74ZM480.28,94.3h0Zm-20.71,2.12h.12C459.61,96.45,459.53,96.43,459.57,96.42Zm-5,26.19c-.17.64-.34,1.29-.53,1.92l-.62,1.77c-.1.33-.14.31.13.28s.35.17.05.12a3.34,3.34,0,0,1-2-1.49,2.4,2.4,0,0,1-.24-1.29,5.2,5.2,0,0,1,.35-1.55,7.83,7.83,0,0,1,2.06-2.87,21.38,21.38,0,0,1,1.74-1.55c-.28,1.57-.59,3.13-1,4.66Zm22.76-6.45a8.53,8.53,0,0,1,1.88-1.33l.13-.06a3.76,3.76,0,0,1,2-.41,2.09,2.09,0,0,1,1.49,1.06,4.45,4.45,0,0,1,.67,2,17,17,0,0,1,.06,2.47,18.47,18.47,0,0,1-.18,2.47,5.94,5.94,0,0,1-.5,1.7,3.77,3.77,0,0,1-.37.52l-.09.11h-.13a1.37,1.37,0,0,1-.2-.13,5.88,5.88,0,0,1-.58-.64,20.85,20.85,0,0,1-1.5-2,25,25,0,0,1-2.39-4.51l-.51-1.22ZM471,113.61c.32,1.26.58,2.55.9,3.83-.81.79-1.6,1.6-2.35,2.44l-.17.19a10.55,10.55,0,0,0-1-3.81,6,6,0,0,0-1.55-2.09,3.71,3.71,0,0,0-1.16-.66,9.3,9.3,0,0,0-1.15-.31A8,8,0,0,0,463,113c.18-1,.34-2.09.48-3.16h.57l5.8-.48h0c.35,1.41.64,2.84,1,4.25Z"/>
  </g>
</svg>
