<svg xmlns="http://www.w3.org/2000/svg" viewBox="0 0 212.6 38.52"><defs><style>.cls-1{fill:none;}.cls-2{fill:#466665;}.cls-3{fill:#2b4141;}</style></defs><title>logo_sc_color_yoko</title><g id="レイヤー_2" data-name="レイヤー 2"><g id="Contents"><path class="cls-1" d="M122.7,10.07a2.28,2.28,0,0,0-1.06-.87,5,5,0,0,0-1.82-.28h-2.13v8.94H120a4.17,4.17,0,0,0,1.73-.3,2.19,2.19,0,0,0,1-.87,3.62,3.62,0,0,0,.47-1.39,13.35,13.35,0,0,0,.12-1.91,13.45,13.45,0,0,0-.12-1.91A3.39,3.39,0,0,0,122.7,10.07Z"/><path class="cls-1" d="M208.31,10.35a2.35,2.35,0,0,0-.95-1,3.7,3.7,0,0,0-1.85-.38h-2.13v9.75h2a4.06,4.06,0,0,0,1.93-.37,2.34,2.34,0,0,0,1-1,3.94,3.94,0,0,0,.38-1.51c0-.59.06-1.25.06-2s0-1.31-.06-1.92A4.53,4.53,0,0,0,208.31,10.35Z"/><polygon class="cls-2" points="95.34 33.73 100.35 33.73 103.46 22.66 106.56 33.73 111.57 33.73 103.46 4.82 95.34 33.73"/><polygon class="cls-2" points="158.9 33.73 163.91 33.73 167.02 22.66 170.12 33.73 175.13 33.73 167.02 4.82 158.9 33.73"/><path class="cls-3" d="M69.87,6.87a6.89,6.89,0,0,0-5-2.06,7.18,7.18,0,0,0-3.1.63,6.14,6.14,0,0,0-2.19,1.67,7,7,0,0,0-1.31,2.5,10.2,10.2,0,0,0-.45,3.06,10,10,0,0,0,.91,4.49A6.53,6.53,0,0,0,62.32,20l2.94,1.2a10,10,0,0,1,1.23.61,2.19,2.19,0,0,1,.73.72,3.18,3.18,0,0,1,.34,1.17,18.34,18.34,0,0,1,.08,1.85c0,.65,0,1.24-.08,1.77a3.59,3.59,0,0,1-.38,1.35,2.09,2.09,0,0,1-.89.85,3.62,3.62,0,0,1-1.63.3A2.59,2.59,0,0,1,62.42,29a3.35,3.35,0,0,1-.66-2V25.63H57.65v1.53a6.55,6.55,0,0,0,.55,2.7A6.78,6.78,0,0,0,59.67,32a6.56,6.56,0,0,0,2.21,1.42,7.32,7.32,0,0,0,2.78.53A7.8,7.8,0,0,0,68,33.32a5.73,5.73,0,0,0,2.2-1.75,7,7,0,0,0,1.18-2.66,14.24,14.24,0,0,0,.37-3.36,21.26,21.26,0,0,0-.17-2.8A6.79,6.79,0,0,0,71,20.58a4.94,4.94,0,0,0-1.31-1.65,7.76,7.76,0,0,0-2.21-1.23L64.3,16.45A6.46,6.46,0,0,1,63,15.81a2.29,2.29,0,0,1-.71-.75,2.5,2.5,0,0,1-.3-1c0-.39-.06-.87-.06-1.43a7.74,7.74,0,0,1,.12-1.39,3.45,3.45,0,0,1,.42-1.17,2.5,2.5,0,0,1,.85-.83,2.75,2.75,0,0,1,1.39-.32A2.43,2.43,0,0,1,67,10a4.33,4.33,0,0,1,.67,2.44v.92h4.11v-2a6.08,6.08,0,0,0-.49-2.36A6.56,6.56,0,0,0,69.87,6.87Z"/><polygon class="cls-3" points="84.11 20.24 84.03 20.24 78.75 5.06 74.81 5.06 74.81 33.73 78.91 33.73 78.91 16.29 78.99 16.29 83.02 28.61 85.07 28.61 89.14 16.29 89.22 16.29 89.22 33.73 93.33 33.73 93.33 5.06 89.34 5.06 84.11 20.24"/><path class="cls-3" d="M126.65,17.76a10.67,10.67,0,0,0,.78-4.29q0-8.42-7.24-8.41h-6.61V33.73h4.11V21.49h2.46L124,33.73h4.35l-4.43-13.09A6,6,0,0,0,126.65,17.76Zm-3.44-2.46a3.62,3.62,0,0,1-.47,1.39,2.19,2.19,0,0,1-1,.87,4.17,4.17,0,0,1-1.73.3h-2.34V8.92h2.13a5,5,0,0,1,1.82.28,2.28,2.28,0,0,1,1.06.87,3.39,3.39,0,0,1,.51,1.41,13.45,13.45,0,0,1,.12,1.91A13.35,13.35,0,0,1,123.21,15.3Z"/><polygon class="cls-3" points="128.68 8.92 133.43 8.92 133.43 33.73 137.54 33.73 137.54 8.92 142.29 8.92 142.29 5.06 128.68 5.06 128.68 8.92"/><path class="cls-3" d="M155.26,6.73a6.07,6.07,0,0,0-2.1-1.41,6.6,6.6,0,0,0-2.61-.51,7,7,0,0,0-2.72.51,6.3,6.3,0,0,0-2.12,1.39,6.14,6.14,0,0,0-1.36,2.09,6.86,6.86,0,0,0-.49,2.62V27.2a7.37,7.37,0,0,0,.63,3.26,5.82,5.82,0,0,0,1.59,2.08,5.89,5.89,0,0,0,2.17,1.11,9.45,9.45,0,0,0,2.38.32,5.93,5.93,0,0,0,2.55-.55,6.66,6.66,0,0,0,4-6.1V25.55H153V27a3.57,3.57,0,0,1-.24,1.41,2.4,2.4,0,0,1-.62.89,2.43,2.43,0,0,1-.85.46,3.14,3.14,0,0,1-.86.14,2.17,2.17,0,0,1-2-.84,3.86,3.86,0,0,1-.54-2.1V12.26a5.13,5.13,0,0,1,.5-2.39,2.11,2.11,0,0,1,2-.95,2.23,2.23,0,0,1,1.85.89A3.3,3.3,0,0,1,153,11.9v1.37h4.11V11.66a7.56,7.56,0,0,0-.5-2.76A6.57,6.57,0,0,0,155.26,6.73Z"/><polygon class="cls-3" points="186.18 20.24 186.1 20.24 180.83 5.06 176.88 5.06 176.88 33.73 180.99 33.73 180.99 16.29 181.07 16.29 185.1 28.61 187.15 28.61 191.22 16.29 191.3 16.29 191.3 33.73 195.4 33.73 195.4 5.06 191.42 5.06 186.18 20.24"/><path class="cls-3" d="M212.2,9.71a6.22,6.22,0,0,0-1.45-2.64,5.8,5.8,0,0,0-2.34-1.57,9,9,0,0,0-3-.44h-6.16V33.73h4.11V22.53h2.09a7.68,7.68,0,0,0,3.71-.78,6.08,6.08,0,0,0,2.25-2.2,6.9,6.9,0,0,0,.95-2.51,21.36,21.36,0,0,0,.22-3.25A16.88,16.88,0,0,0,212.2,9.71Zm-3.53,6.1a3.94,3.94,0,0,1-.38,1.51,2.34,2.34,0,0,1-1,1,4.06,4.06,0,0,1-1.93.37h-2V8.92h2.13a3.7,3.7,0,0,1,1.85.38,2.35,2.35,0,0,1,.95,1,4.53,4.53,0,0,1,.36,1.57c0,.61.06,1.24.06,1.92S208.71,15.22,208.67,15.81Z"/><polygon class="cls-3" points="6.67 29.15 15.83 29.15 15.83 19.26 6.67 29.15"/><polygon class="cls-2" points="0 25.45 6.67 29.15 15.83 19.26 15.83 29.15 15.83 34.24 23.53 38.52 23.53 0 0 25.45"/><polygon class="cls-3" points="23.53 38.52 47.06 25.45 23.53 0 23.53 38.52"/></g></g></svg>