<svg id="レイヤー_1" data-name="レイヤー 1" xmlns="http://www.w3.org/2000/svg" viewBox="0 0 2661.18 1311.68">
  <defs>
    <style>
      .cls-1 {
        fill: #f97a78;
      }

      .cls-2 {
        fill: #ece7e3;
      }

      .cls-3 {
        fill: #fba6a5;
      }

      .cls-4 {
        fill: #f97d7b;
      }
    </style>
  </defs>
  <title>アートボード 1</title>
  <path class="cls-1" d="M1072.55,1034.13a160.69,160.69,0,0,0-40.63-13.07c-12.37-2.23-24.9-3.65-37.41-5-36.62-4-69.94-16.2-101.33-35.81-26.67-16.66-50.89-35.74-72.21-58.66-19.22-20.67-33.25-44.6-43.54-70.78A42.24,42.24,0,0,1,776,844c8.8-2.65,17.71-2.3,26.6-.77a65.34,65.34,0,0,0,16.93.29c18.55-1.61,37.1-3,55.73-3.56a223,223,0,0,0,29.72-3.09c15.73-2.61,31.38-5.74,47-9,24.39-5.06,49-9.07,71.94-19.79,13.62-6.39,26.21-14.43,39.13-22,24.17-14.12,44.39-32.7,62.27-53.92,15.33-18.18,25.35-38.71,27.87-62.88,1-9.66.88-19.25,1.5-28.86,17.06-3.56,33-10.23,48.62-17.74,18-8.67,36.06-17.18,54.72-24.38,27.3-10.54,55.22-14.05,84.17-8.51,29.15,5.57,57.76,12.64,84.89,25.2,23.53,10.9,44,26.09,63.88,42.36C1508.69,672,1525.24,688,1543.46,702c18.59,14.33,39.29,19,62.77,17.12,37.1-2.92,72.68-12.31,108.35-21.81,13.79-3.68,27.61-7.21,41.7-9.74,23.9-4.27,47.06-1.76,69.73,6.4,26.44,9.52,51.25,22,73.8,39a278,278,0,0,1,76.93,89.31c13.23,24.12,23.61,49.2,28.57,76.22,5.16,28.1,9.88,56.31,11.46,84.93,4.13,74.46-10.22,144.82-45.67,210.76-10.27,19.11-20.32,38.25-35.1,54.31-22,23.93-45.92,45.44-76.91,57.36-5.56,2.13-11.31,3.76-17,5.63-3.64.75-6.37-1.23-9.14-3.08a35.46,35.46,0,0,0-15.74-5.76q-31.08-3.56-62.23-6.5c-15.61-1.5-31.1.43-46.59,2.13-3.94-2.18-8.31-1.91-12.6-2.29-25.45-2.24-49,6.55-73.09,12.36-20.1-1.25-40,3.44-60.15,1.73-38.37-7-71-24.29-96.78-53.9,3.36-3.53,8-4.68,12.27-6.33,20.08-7.67,37.62-18.65,48.53-38,11.14-19.73,21.86-39.68,26-62.31,1-5.39,4-7.48,9.19-8.58,21.47-4.52,42.8-9.63,64.23-14.31,25.62-5.59,51-12,77.13-15.56,31.53-4.27,57.59-19.56,77.66-44.43,8.55-10.6,17.26-21.2,22.18-34.14,2.84-7.45,6.16-14.68,8.83-22.23,11.15-31.57,12.53-63.08.77-94.7-8.15-21.9-21.44-39.29-42.31-51.16a138.17,138.17,0,0,0-62.73-17.82c-23.4-1.13-45.78-8-68.88-10.42-4.13-.44-5.44-2.13-2.69-5.73,2.63-3.42-.07-3.87-2.43-4a4.92,4.92,0,0,0-4.85,3c-2.48,6.26-7.55,6.79-13.14,6.52-4.65-.23-9.36,0-13.95-.67-12.19-1.69-24.35-3.26-36.72-3.3-9,0-17.93,1.77-26.87,1.7-30.83-.25-60.88,5.29-90.91,11.27-19.87,4-39.83,7.44-59.65,11.61-25.57,5.37-50.22,13.28-71.62,29-25.77,18.93-43.66,44.31-58.6,72a22.66,22.66,0,0,0-2.29,7.62c-.71,5.34-2.91,10.26-3.92,15.46-.78,4-2.59,5.41-6.53,5.83-15.87,1.7-31.69,3.76-47.53,5.6-19.2,2.22-37.67,7.78-56.34,12.36-8.13,2-15.23,6.74-23,9.65s-13.51,10.74-23,9.25c-.41-.06-1.06.75-1.44,1.26C1088.1,1031.68,1080.86,1034.08,1072.55,1034.13ZM967.23,971c5.51,2.2,8.73-1.37,11.84-4.86,2.18-2.45-1.14-3.49-1.93-3.76-4.51-1.49-8.06,1.72-9.95,8.54-.29-.11-.59-.33-.86-.3s-.5.33-.74.51Zm853.28-67c6.43-2.44,4.55-9.4,7.34-13.88,1.59-2.57-.86-5.37-3.26-7.35-1.44,1.14-2.38,2-3.46,2.71-7.29,4.64-7.48,5.28-2.31,12,1.57,2.05,1.43,4.31,1.75,6.56-2.64.39-5.53.53-5,4.4a1.9,1.9,0,0,0,1.43,1.08C1821.23,909.78,1820.1,906.41,1820.51,904.05ZM1024.3,994.7c.15.3.31.86.45.85,3-.15,6,5.51,8.92-.06,3.46,1.29,6.82,3,10.39,3.72,2.67.53,4.24-1.76,4.24-4.37,0-4.25.55-8.33,3.33-11.79a18.25,18.25,0,0,0-3.18-1.91c-5.51-1.68-11.67-8.24-15.8,1.94-.1.25-1.74-.1-2.66-.21-3.85-.48-3.84,1.4-2.52,4.09C1030.28,992.68,1030.28,992.68,1024.3,994.7ZM1713,1231c-.46-5.83.32-11.76-6.47-14.46-1.61-.64-1.66-2.66-1.08-4.37,1.18-3.44-1-4-3.57-4-6.19,0-11.93,9.52-8.3,14.43C1698.08,1228.76,1702.85,1235.61,1713,1231Zm-2.67-24.59c.61-7.12-2.44-13.28-1-20,.64-3-1.39-7.15-6.65-6.49-4.72.6-5.85,3.42-5.94,7.54-.08,3.24,2.35,6.19.77,9.66-.55,1.21.68,2.57,2.2,2.61C1704.19,1199.91,1705.77,1204.51,1710.31,1206.41ZM1055,815c4.32,1.27,7.67,3.49,11.8,3.09,2.48-.24,5.59,1.06,7-2,1.28-2.72-.83-5.09-1.7-7.46-1.15-3.11-4.2-3.95-7.22-4.31-3.6-.43-4.51,2-4.64,4.89S1056.66,811.64,1055,815Zm-42.61,182.93c-2,.18-4.63-.14-5.28,2.89-.48,2.25,5.77,9.09,8.21,9,3.78-.16,5.11-2.67,5-6.09C1020.15,999.53,1017.8,997.8,1012.35,997.88Zm3.82-26.54c-9.15-1.8-12.77-.87-14.46,3.27a2.31,2.31,0,0,0,1.23,3.23C1007,979.78,1011.65,977.62,1016.17,971.34Zm37.18,49.86c2.42-1.41,5-2.85,7.5-4.39,1.58-1,4.05-1.7,2.61-4.31-1.28-2.34-3.39-2.79-6-1.81-2.92,1.12-4.86,3.32-6.83,5.54-1.11,1.25-.43,2.45.16,3.62A2.2,2.2,0,0,0,1053.35,1021.2Zm-129-62.61c2.61-3.45,7.71-3.25,6.9-8.06-.34-2-2.77-3-4.83-2.07C922.36,950.21,921.41,953.23,924.36,958.59Zm43.74,17.55c-2.46,0-5.21-.25-5.13,3.09.06,2.59,2.38,2.69,4.43,2.73,2.76.06,6-.14,6-3.44S970,976.52,968.1,976.14Zm658.33,239.92c-.22-1.47-.34-3.25-2-3.09-3.39.33-5.14,2.75-5.63,5.93a2.25,2.25,0,0,0,2.23,2.7C1625,1221.76,1626.17,1219.26,1626.43,1216.06ZM927,972.19a15.56,15.56,0,0,0,8.05-6c.8-1.05,1.28-2.31,0-3.38a2.81,2.81,0,0,0-3.57-.07C928.74,964.69,927.32,967.33,927,972.19ZM959.18,966c2.45.08,4.21-1,4.67-3.73.2-1.16-.7-1.83-1.72-1.91-2.64-.21-4.42,1-4.87,3.66C957.06,965.2,958,965.73,959.18,966Z"/>
  <path class="cls-1" d="M2082.9,262c6-49.27,22.74-93.88,54.67-132.77,29.77-36.28,63.63-67.36,105.86-88.12,34.06-16.74,69.08-31.35,106.89-38a225.6,225.6,0,0,1,61.62-1.87q22.86,2.27,45.35,6.63c16.87,3.28,32.1,10.72,47.59,17.68C2540.15,41.42,2571.16,63.93,2601,88c27.26,22,41.86,52.36,49.25,85.92,9.71,44.09,8.53,88.47,1.3,132.89-6,36.87-15.52,72.88-26.19,108.56-6.26,20.95-6,41.11,1.16,61.66,6.12,17.59,13.54,34.77,17.88,52.94,5.8,24.29,8.87,49.06,12,73.78,2,15.5,3.09,31.09,4.15,46.68,3,44.36-5.19,86.8-20.95,128.05-3.91,10.25-7.62,20.59-11.41,30.89-2.8-1.72-3.38-4.82-4.6-7.49-14.64-31.88-36.76-56.76-68.48-72.41-20.32-10-41.79-17-63.27-24.16-28.5-9.5-57.56-13.11-87.31-12.81-8.29.08-16.58,1.59-24.84,1.35-26.66-.76-53.17,2.19-79.77,2.49a24.74,24.74,0,0,0-3,.22c-14.87,2.13-29.83,1.83-44.78,1.64,3.1-40.54-7.78-76.69-33.88-108.07,2.55-2.63,6.17-2.33,9.29-3.17a201.93,201.93,0,0,0,61.51-27.91c18.08-12.29,32.8-28.24,47.21-44.32,9.31-10.4,16.1-22.94,21.32-35.88,8-20,8.57-40.61,3.72-61.59a192.27,192.27,0,0,0-34.64-73.47,106.19,106.19,0,0,0-30.87-28c-22.21-13-45.75-23.07-69.92-31.61C2179.67,267.89,2132,259.93,2082.9,262Zm309.63,166.11a2.43,2.43,0,0,0-.32-.69c-.1-.12-.34-.1-.52-.14l.86.81v1c-.05,4.14,2.55,6.84,6.06,5.79,3.69-1.11.75-4.37.1-6.64s.9-5.37-1.95-7.19C2392.93,422,2395.69,426.84,2392.53,428.09Zm-10-39.27c-.08,7.13,1.61,10.62,6.73,12.47,3.44,1.24,5.55-.15,4.71-3.46a51.37,51.37,0,0,0-6-14.51c-.85-1.37-1.94-2.79-3.92-2.08-1.51.53-1.48,2-1.55,3.26C2382.51,385.48,2382.55,386.47,2382.55,388.82Zm125-281.52c1.5-6.16-2.6-8.6-6.2-11.34-1.93-1.48-4.07-3-5.93-.42a4.83,4.83,0,0,0,.63,6.38A19.25,19.25,0,0,0,2507.54,107.3Z"/>
  <path class="cls-2" d="M1154.64,640.47c-.62,9.61-.49,19.2-1.5,28.86-2.52,24.17-12.54,44.7-27.87,62.88-17.88,21.22-38.1,39.8-62.27,53.92-12.92,7.56-25.51,15.6-39.13,22-22.91,10.72-47.55,14.73-71.94,19.79-15.61,3.24-31.26,6.37-47,9A223,223,0,0,1,875.22,840c-18.63.56-37.18,1.95-55.73,3.56a65.34,65.34,0,0,1-16.93-.29c-8.89-1.53-17.8-1.88-26.6.77-14-1.19-27.7,2.53-41.67,2.09a418.19,418.19,0,0,1-74.61-9.36,626.35,626.35,0,0,0-64.44-10.81c-17.45-1.89-34.49-6.18-51.26-11.23-13-3.91-26.42-7.45-38.4-13.59-24.07-12.34-49.05-23.48-69.25-42.25-2.25-2.1-4.95-3.3-7.57-4.73-.29-.95-.31-2.15-.91-2.82-10-11.15-15.66-24.56-20.21-38.56a222.8,222.8,0,0,1-8.42-35.88c-.72-4.74-2.75-6.58-7.4-7.57-11.72-2.49-23.52-4.52-35.45-4.81-22.3-.54-44.79,1-66.78-3-27.25-4.89-54.8-6.27-82.22-9.11-22.3-2.31-44-6.15-64.58-15.73C118.34,625.27,95.2,612.52,82,587.41c-1.14-2.15-2.66-3.87-5.46-3.52a25.9,25.9,0,0,0-2.64-12.3,78.09,78.09,0,0,1-7.47-28.66c-.4-7.9-2.45-15.68-1.83-23.71,1.1-14.16,1.77-28.67,8.08-41.49,7-14.17,10.73-29.88,20.18-42.8,2-2.8.57-6.81,3.82-8.87,3.51-1.6,5.44-4.78,7.72-7.63A164.6,164.6,0,0,1,148.46,380c18.12-10.86,38.18-16.95,58-23.48,27.73-9.13,56.56-11.59,85.56-12.41,40.6-1.16,81.23,1.33,121.82-1.78,26.51-2,53.05-3.69,79.55-5.93,30.2-2.55,60.5-2.94,90.81-2.3,4.65.1,9.3.95,13.9,1.14,12.95.54,25.68,4,38.75,2.89,7.21,3.5,15,5.46,22.69,7.23,21.75,5,40.84,15.5,58.93,28,11.42,7.91,23.1,15.42,33.81,24.41,15,12.63,26.84,27.3,34.46,45.53,7.12,17.06,2,14.58,20.78,14.75,13.31.13,26.63.21,39.94,0s26.36,1.73,39.48,3.61c12.75,1.83,25.63,2.7,38.43,4.24,14.83,1.78,29.56,4.1,43.78,8.42,27,8.18,54.33,15.17,79.46,28.66,26.85,14.42,51.13,32.07,72,54.27,9.62,10.23,16.21,22.6,21.7,35.38A160.3,160.3,0,0,1,1154.64,640.47ZM501.7,585c-4.74-.72-6.32,3.26-8.05,6.09-7.31,11.94-7,13.81,6.73,14.89a57,57,0,0,1,6.94.64,110.72,110.72,0,0,0,42.63.56c14.44-2.66,29.55-2.41,43.42-8.31,5.26-2.24,11.16-.41,16.79-1.55,13.06-2.63,25.46-7.15,38.08-11.22a136.65,136.65,0,0,0,49.62-28.55c4.54-4.05,9.42-8,13.21-15-13.63,2.83-25.86,2.2-37.94,2.94-23.16,1.42-46.46.92-69.67,2.48-8.91.6-17.8.62-26.76,1.64-22,2.51-41.84,10.19-60.74,20.91C510,573.93,503.45,577.28,501.7,585Zm564.74,40c-.67-6.59-3.86-11.89-8.44-16.49-14-14-30.17-24.88-47.37-34.42C993,564.34,973.53,559.8,954.48,554c-15.91-4.84-32.06-8.7-48.59-9.69-15.57-.92-31-3.22-46.42-4.88-18-1.93-35.88-.5-53.78-1.31-5.1-.23-7.24,2.59-7.12,7.44s-2.06,9-3.49,13.41c-5,15.56-15.09,28.26-25.26,40.26a201.71,201.71,0,0,1-62.14,49.17c-17.48,9-36.26,14.81-54.57,21.75-4,1.53-8.16,3.3-12.37,3.74-17.06,1.74-33.52,6.64-50.4,9.14-10.15,1.51-20,4.7-30.33,5-10.6.34-21.28-1-31.77,1.83a12.55,12.55,0,0,1-6.93-.16c-9.62-3.34-20,.08-29.59-3.48-1.88-.7-4.82-1-6.33,1.5s.06,4.74,1.35,6.46a66,66,0,0,0,18.92,16.86c34.41,21,71.87,32.14,111.53,36.93,18.72,2.26,37.24,5.74,55.77,9.19,13.65,2.54,27.31,5.66,41.1,6.61,16.25,1.13,32.63.2,49,.17,3.2.22,7.27,2.29,9.3-1,4.57-7.47,11.33-5.28,16.86-3.56,8.82,2.73,17.63,3.3,26.59,3q28.88-1,57.74-2.62a164.36,164.36,0,0,0,20.72-2.63c18.59-3.47,37-7.66,55.69-10.83,42.26-7.17,76.73-28.31,107-57.7,15.85-15.37,18.85-33.48,14.22-54C1070.35,631,1069.55,627.47,1066.44,625Zm-469.65-209c-13.53-2.36-27.19-1.76-40.84-2-18.34-.28-36.61,1.14-54.83,2.51-12.28.92-24.61.92-36.84,2.17-25.49,2.6-51,4.39-76.62,5.18-37.93,1.18-75.89-1.55-113.85,1.65-24.13,2-46.72,8.79-69.67,15.93-29.4,9.15-63.07,57.11-57.62,87.91,2,11.52,5.73,21.21,16,27.15,11,6.31,22.39,11.61,35.11,13.75,11.16,1.89,22.38,2.9,33.62,3.91,15.56,1.39,31.24,2,46.64,4.47a494.39,494.39,0,0,0,68.52,5.83,371.79,371.79,0,0,1,51.5,4.82c9.41,1.48,9.39,1.58,12.44-7.81.62-1.9,1.19-3.82,1.91-5.68,4.18-10.85,7.74-22,14.95-31.41,17.55-22.86,39.65-40,65.37-52.85,14.67-7.35,30.31-11.87,45.53-17.62,2-.06,4.11.29,6-.25C570.58,466,598,467.85,625,466.6c23.17-1.07,46.39-2.33,69.62-2.57a10.85,10.85,0,0,0,3-.23c3.07-.95,3.38-3.15,1.66-5.35-1.17-1.5-3.07-2.47-4.71-3.57-8.24-5.55-16.64-10.88-24.73-16.65C647.93,422.61,623.13,416.86,596.79,416.05Z"/>
  <path class="cls-2" d="M1072.55,1034.13c8.31-.05,15.55-2.45,20.73-9.42.38-.51,1-1.32,1.44-1.26,9.47,1.49,15.25-6.34,23-9.25s14.83-7.66,23-9.65c18.67-4.58,37.14-10.14,56.34-12.36,15.84-1.84,31.66-3.9,47.53-5.6,3.94-.42,5.75-1.81,6.53-5.83,1-5.2,3.21-10.12,3.92-15.46a22.66,22.66,0,0,1,2.29-7.62c14.94-27.74,32.83-53.12,58.6-72,21.4-15.73,46.05-23.64,71.62-29,19.82-4.17,39.78-7.66,59.65-11.61,30-6,60.08-11.52,90.91-11.27,8.94.07,17.84-1.72,26.87-1.7,12.37,0,24.53,1.61,36.72,3.3,4.59.64,9.3.44,13.95.67,5.59.27,10.66-.26,13.14-6.52a4.92,4.92,0,0,1,4.85-3c2.36.17,5.06.62,2.43,4-2.75,3.6-1.44,5.29,2.69,5.73,23.1,2.44,45.48,9.29,68.88,10.42a138.17,138.17,0,0,1,62.73,17.82c20.87,11.87,34.16,29.26,42.31,51.16,11.76,31.62,10.38,63.13-.77,94.7-2.67,7.55-6,14.78-8.83,22.23-4.92,12.94-13.63,23.54-22.18,34.14-20.07,24.87-46.13,40.16-77.66,44.43-26.11,3.53-51.51,10-77.13,15.56-21.43,4.68-42.76,9.79-64.23,14.31-5.23,1.1-8.19,3.19-9.19,8.58-4.18,22.63-14.9,42.58-26,62.31-10.91,19.31-28.45,30.29-48.53,38-4.32,1.65-8.91,2.8-12.27,6.33-9,1.29-17.16,5-25.57,8-15.3,5.5-30.57,10.65-47,12.24-9.77.94-19.74,1.72-29.38,4.68-7.23,2.22-15.13,2-22.63,2.54-11.68.8-22.79,4.22-34.33,5.32-8.89.85-17.71,2.49-26.61,3a285,285,0,0,0-39.34,5.15,207.72,207.72,0,0,1-34.39,4.26,179.58,179.58,0,0,1-28.68-1.91c-14.73-2-29.44-4.16-44.25-5.75-16.35-1.76-33.27-1.07-48.91-7.4s-31.24-13.24-44-25a34.86,34.86,0,0,0-4.79-3.54,92.49,92.49,0,0,1-33.52-38.68c-5.59-11.82-10.39-24.17-10-37.9.52-16.57.12-33,3.53-49.55s10.74-30.58,19.36-44.44c.69-1.11,2.2-1.79,2.64-2.93,6.55-17.06,20.39-27,34.84-36.58,5.28-3.51,10.28-7.22,16.42-9.08A4.63,4.63,0,0,0,1072.55,1034.13Zm310.22,81.8c6.63.59,12.61-.75,16.71-6.45,1.24-1.71,3.33-4,1.47-6.19-1.68-1.93-4.18-1.45-6.21.3a5,5,0,0,1-1.48.58c-3.71-5.19,1.57-6.38,6.09-9.08-7.17-1.17-12.36-1.81-15.48,3s-6.89,6-13.73,3.87c4.32,6.64,5,12.46,6.76,18,1,3.06,1.76,4.91-2.21,7-4.34,2.28-6,7.72-9,11.65-1.34,1.75-.9,3.76.56,5.44,1,1.1,2.88,1.9,3.39.85,2.35-4.82,14-3,9.26-13-.46-1,.77-3.56,1.92-4.3,5.23-3.34,2.29-7.45,1.48-11.39Zm-12.49-33.9c1.28-4.92,5.24-4.15,8.86-4.27,20.85-.65,41.67,1.88,62.52.46,3.39-.23,7.08.81,10.59-1.75-3-3.62-6-6.26-9.91-7.25-11.58-2.87-23-6.25-35-7.48-18.92-1.93-37.88-1-56.8-1.78-2.91-2.43-6-2.22-9.37-.6.94,5.83,5.15,12.81-5,14.65-.69.12-1.4,1.46-1.67,2.36-2.59,8.44-9.43,13.08-16.23,17.46-2.4,1.55-2.06,2.77-1.7,4.74.43,2.35,1.78,3.22,4.07,3.5,4,.51,7.23-1.39,10-3.7,3.93-3.31,7.17-2.5,10.71.79-.83,2.89-2.63,5.49-2.87,8.92-.28,4.09-3.11,7.78-6.7,10.07-2.43,1.56-5.89,1.39-7.86,4-3.46,4.51,5.5,3,3.53,7.28-.93,2,1,3.84,3.24,3.92a5.79,5.79,0,0,0,4.95-2.88c4.35-6.9,6.15-8,14.39-8.65a3.75,3.75,0,0,0,1.89-.57c4-3,7.07,4.66,10.87,1,3.4-3.25.55-8.54,3.5-12.12,3.24-3.94.19-5.36-2.68-7.5-3.6-2.68-9.16-1-12.78-6.41,9.12.6,12.21-8.86,20.29-9.42C1372.66,1086.68,1372.27,1083.43,1370.28,1082Zm-83.57,17.89c-.67-3.62.6-5.28,4.47-6.1s7.41-2.68,6.2-8.27c-.77-3.58,2.22-7.58,4-9.27,3-3,8.34-3.81,12.85-4.85,1.31-.3,2.18,2.18,1.71,4-1,3.79-2.79,7-8.08,7.93,9.45,4.41,11,4.11,12.24-3.22.68-4.06,2.1-5.26,5.89-6.34,5-1.41,5-3.37.82-7.9-1-1-1.9-1.81-1.47-3.28.65-2.23,1.88-4.76-1.2-5.92-2.12-.8-5-1.28-6.7.4-3.35,3.33-8.34,2.28-11.74,5-2.68,2.15-5,1.75-6.67-1-2.21-3.77-5.62-2.73-8.85-2.72-4.34,0-2.24,5-4.79,6.36-7.93-5.18-10.12-4.69-14.37,3.41-.76,1.44-.87,3.21-2.51,4.09-4-10-4.09-10.57-14.88-9.76a511.88,511.88,0,0,0-75.61,11c-12,2.74-23.67,6.39-33.33,14.55a379.56,379.56,0,0,0-50.4,23.61c-3.36,1.89-6.07,4.77-8.8,7.78-11.33,12.5-15.22,27.6-16.8,43.63-.9,9.07-.44,18.41,5.77,25.58,10.11,11.67,22,21.25,37.5,24.91,11.26,2.66,22.68,4.89,34.33,4.49,9-.31,18,1.1,26.6,2.84,20.87,4.23,41.31,3.33,62-.38a303.74,303.74,0,0,1,34.39-4.22c8.3-.53,16.42-2,24.59-3.07,14.38-1.93,28.58-5.47,43-6.81,17.13-1.58,34.08-4.27,51.08-6.59,9.33-1.28,18.8-3.79,26.68-9.8a19.18,19.18,0,0,0,10.7-1.52c6.75-2.83,13.43-6,20.43-8,10.65-3,16.37-10.83,21.17-19.81,1.76-3.28-.09-9.11-4-11.41-2.94-1.72-6.87-2.19-8.91,1.06-2.7,4.33-6.5,3.9-10.45,3.9-5.31,0-10.63,0-15.94-.06-12.17-.17-12.18-.18-17.2-11.54-.34-.77-.77-1.09-2.17-.63-.87,1.27-3.62,2-1.27,5.13,3,4.07.55,6.07-3.49,6.74a21.26,21.26,0,0,1-5,0c-16.15-1.12-32.21-1.3-48.22-5.67-27.37-7.48-50.74-19-62-47.16C1288.06,1100.56,1287.24,1100.3,1286.71,1099.92Zm365.36-72c4.07,3.06,8.2,4.64,9.59,7.54,2.26,4.72,4.9,4.29,8.74,3.16a33,33,0,0,1,6.93-.78c19.48-1.4,36.38-8.08,48.11-24.48,11.3-15.78,18.72-33.46,18-52.93-.81-21.22-6-30.21-28-35.07a38.38,38.38,0,0,0-7.86-1.17c-16.39-.12-32.34-3.19-48.26-6.76a197.62,197.62,0,0,0-37.47-4.88c-13.56-.4-27.18.69-40.64-2.29-4.81-1.07-9.78-2.59-14.81-1.72-11.23,2-22.59,1-33.86,1.76-12.9.88-25.86,1.06-38.63,3.64-19.2,3.88-38.56,7-57.77,10.82S1397.4,931,1379,938.15c-20.5,7.91-34.32,22.94-46.52,41.57,17.58,3.7,34.09,4.74,50.73,4.67,13.63-.07,27.29-.82,40.78,2,10.72,2.27,21.42,4.74,32.23,6.52,18.42,3,33.24,12.56,46.54,24.92,13.45,12.5,25.54,26.21,34.51,42.32,3,5.36,6.63,6.6,12.27,5.31,30.75-7,61.55-13.92,92.32-20.89,2.88-.65,6-.4,8.52-2.46,3.52-2.89-1.08-6.21.56-9.24C1651.47,1031.84,1651.5,1030.47,1652.07,1027.94ZM1350.73,908.55c-4.37,3.23-3.6,9.34-8.81,11.07-1.4.47-1.18,2.48-.34,3.42,2.4,2.68,4.72,5.69,7.72,7.51,3.49,2.11,2.47-2.95,4.4-3.7a7.23,7.23,0,0,1,1.88-.26,49.57,49.57,0,0,0,19-5.69c5.19-2.84,5.47-3.82,1.92-8.36-.92-1.18-3.64-2.85-2.5-3.39,6.94-3.26,2.07-7,.66-10.36-2.39-5.69-5.29-6.06-9.25-1.58-.92,1-.16,4-2.69,3.09-6.56-2.29-5.28,1.21-5.64,5.74-.39,4.92,1.61,10.68-3.47,16,.16-3-7.47-3-.83-7.09C1354,914.2,1352.86,910.65,1350.73,908.55Z"/>
  <path class="cls-1" d="M1654.63,443.18c-19.84-3.08-38.67-9.79-57.53-16.29-22.32-7.7-44.4-16.08-66.6-24.1-20.26-7.31-41.31-12.61-62.3-17.63-12.61-3-25.85-1.59-38.83-1.67-1.95-2.39-3.84-5.25-6.62-.81l-9.66,1c-1-2.19-1.87-4.63.18-6.45,5.43-4.78,3.69-9.44-.43-13.5-2-1.93-1.64-4.65-3.63-6.78-1.13,3.4-5.8,6.54-4.19,8.62,3.31,4.28-.64,5-1.91,7.22-2,3.43-3.82,6.94-5.71,10.42l-4.55-.08c-.24-.61-.3-1.42-.74-1.8-2.68-2.26.26-8.9-4.59-8.18-4,.59-2.64,6-3,9.48l-3.75-1.22c-.13-3.29-.4-6.53-2.46-9.32-1.07-1.46-2.48-2.4-4.13-1.52-2.22,1.19-.88,2.83.12,4,1.91,2.22,4.43,4.15,2.23,7.54-3.38,2.7-6.69,1.55-10-.16-1.81-9,2.87-15.57,8-22a4.14,4.14,0,0,1,.52,1.37,3.32,3.32,0,0,0,2.12,3c1.68.82,3.82,2.56,4.87-.11,1.17-3-1.14-4-3.75-4.09.49-6.72,7.1-7.59,10.68-12.62,2.25,4.16,1.9,7.33,1.49,10.52-.24,1.84-1.77,4.08.57,5.32a6.48,6.48,0,0,0,6.65-.33,48.1,48.1,0,0,0,6.15-6.28c3.16-3.47,4.19-6.28,2.31-10.91-1.54-3.78-3.71-8.62-1.79-12.3,3.37-6.46,0-12.57,1.49-18.91-6.32.53-9.42,3.12-9,9-.24.28-.48.56-.73.83-2.3-1-3.83-1.56-2.51,2.11.85,2.35-4,2.8-2.57,5.77,1.55,3.32,4,2.4,6.74,1.77,2.61-.6,3,2.05,3.67,3.83.8,2.27-1.31,2.75-2.65,3.36-5.64,2.6-11.35,5.22-17.42-2.26,1.17,5.72-1.52,7-3.7,9.12-2.93,2.79-7.66,4.58-7.14,9.93-4,.29-6.35-1.15-6.18-5.58.11-2.64.32-5.72-3.3-6.19s-6.93-.74-9.45,3.36c-4,6.48-8.68,12.49-7.41,20.75-4.31-.6-7.75.1-8.14,5.41-4.36.57-8.67.77-12.68-1.51,3.15-8.42,7.11-16.73,3.76-26.49-5.14,1.85-8.91,4-8.37,9.92.14,1.56-.32,4.36-1.73,4.23-5.7-.53-9,5.59-14.55,4.86-4-4-9.46-5.82-14.23-8.14-21.77-10.59-37.84-26.92-50.67-46.94a19.12,19.12,0,0,1-1.4-3.66c4.13-.54,7.69,6.43,12.25.95.07-.09,1.34.44,1.49.88,2.36,6.67,6.52,1.92,9.68,1.3,3.73-.73,5.77-3.6,4.25-7.44-1.4-3.55-4.06-6.29-8.35-5.51-1.83.33-3.45,1.8-5.18,2.71-1.51.8-3.75,1.58-4.51.06-3.4-6.83-5.86-4.89-9.15.16-.89,1.37-3.46-1.18-5.41-1.41-4.45-12.82-7.59-25.4-7.6-39.58,0-30.72,13.89-54.51,33.41-75.57,34.63-37.34,77.17-60.61,128.21-66.76,19.17-2.32,38.11-5.85,57.14-8.92,16.38-2.64,33.06-3.43,49.63-4.85,22.25-1.9,44.08-5.92,65.85-11,35.62-8.31,71.47-15,108.16-17.63C1728,71.08,1783.93,88.14,1837,117.9c23.92,13.42,46.91,28,65.23,48.94,19.9,22.72,34.87,47.85,39.39,78.31a74.82,74.82,0,0,1,.86,18.9l-10-.08c-29.6-.25-59,3.36-88.56,4.33-6.59.21-13.18,1.55-19.69,2.78a320.12,320.12,0,0,0-74.75,23.84c-20.56,9.45-38.77,21.48-54.42,37.72-17.85,18.53-30.67,39.81-36.65,65C1654.89,412.63,1654.17,427.85,1654.63,443.18ZM1424.32,289.87c-8.91-4-8.94-4-3.09-10.76a3.09,3.09,0,0,0,.89-2.64,2.79,2.79,0,0,0-2.82-2.34c-3-.18-6-.13-7,3.82-.76,2.85-2.3,5.48-3.24,8.29-1.2,3.56-6.82,7.15-10.2,6.25-1.6-.43-3.19-.88-4.76-1.42a3.42,3.42,0,0,0-4.31,1.38,5.36,5.36,0,0,0-.51,5.65,3.55,3.55,0,0,0,4.3,1.64C1403.67,297.19,1414.47,296.82,1424.32,289.87ZM1318.8,312.15c8.94-1.68,16.77-1.65,17.49-11.93a3,3,0,0,1,1.58-2.22c2.37-.58,3.6-1.43,2.15-4a3.44,3.44,0,0,0-5.15-1.15c-5.29,3.37-12.72,4.83-12.62,13.47C1322.27,307.7,1320.69,309.08,1318.8,312.15Zm32.64-6.88c-1.73,6.34-1.73,6.34,2.12,9.82,1.9-3.23.3-7.3,2.52-10.32,1.47-2-1.86-4.88.81-6.23,5.78-2.93,2.23-3.73-.85-5-1.44-.58-1.69-2.91-5.18-2.7,1.07,5.83-5.07,7.46-7.91,11.38C1345.57,305.36,1349.29,302.77,1351.44,305.27Zm3.36-74.55c4.78-2.72,5.39-6.79,8.58-7.9,6.71-2.34,3.95-7.11,3.19-11.43a3.54,3.54,0,0,0-3.23-3.17,4,4,0,0,0-4.74,2.52C1355.84,216.65,1355.43,222.88,1354.8,230.72Zm70.33,129.12c6-4.1,8,.34,10.72,3.25a2.48,2.48,0,0,0,3.56,0,2.63,2.63,0,0,0,.54-3.6c-2.62-3.28-5.24-7.14-9.88-7.25C1426.32,352.14,1427.42,356.75,1425.13,359.84Zm25.53-58.13c-4.44,1.52-7.83-2.53-10.94.81s1.22,6.55,1.36,10c0,.76,1.07,1.48,1.65,2.21C1443.28,309.72,1449.17,308.48,1450.66,301.71Zm-169.34,24.23c4.09-1.86,7.68-3.18,10.94-5.07,2.59-1.5,1.88-3.93.47-6-1.73-2.59-2.51.41-3.76.7C1283.81,316.7,1281.49,320,1281.32,325.94Zm130.16-14.56c3.9.82,7.18,1.31,10.4.49,2.29-.59,3-2.42,2-4.6-.76-1.59-2.37-3-3.78-1.36C1417.87,308.52,1413.45,306.85,1411.48,311.38Zm48.42,59.8c-.43-4-2.88-5.94-4.69-8.17-1.16-1.43-3-.89-4.42.35-1.78,1.61-1,3.24.68,3.88C1454.19,368.27,1455.6,371.73,1459.9,371.18Zm-86.56-100.75c-1.71.46-3.15,1.55-2.44,3.44.83,2.21.58,5.93,4.35,5.42,2-.28,3.16-2.39,2.89-4.63C1377.82,272,1376.09,270.65,1373.34,270.43ZM1372,291.89c-.81-2.39-3.07-3-5.24-3.32-1.65-.26-2.31,1.29-2.16,2.55.29,2.45,1.59,4.45,4.37,4.2A3.32,3.32,0,0,0,1372,291.89Zm103,46.41a4.65,4.65,0,0,0-3.9,3.28,1.4,1.4,0,0,0,1.48,1.93c2.16-.38,4.76-.58,5-3.57C1477.63,339,1476.54,338.42,1475,338.3ZM1328.57,222.37c-2.86-.06-3.75,1-3.75,2.91a1.92,1.92,0,0,0,1.54,2.09c2,.38,3-1,3.44-2.58A1.81,1.81,0,0,0,1328.57,222.37Zm118.71,114.69a2.23,2.23,0,0,0-2-1.87,3.23,3.23,0,0,0-3.89,2,1.47,1.47,0,0,0,1,2.16C1444.43,339.55,1446,338.44,1447.28,337.06Zm-2.72,27.9c-.43.31-1.15.56-1.22.93a1.65,1.65,0,0,0,.65,1.44c1,.32,1.77-.18,1.67-1.29C1445.62,365.65,1445,365.32,1444.56,365Z"/>
  <path class="cls-1" d="M76.49,583.89c2.8-.35,4.32,1.37,5.46,3.52,13.25,25.11,36.39,37.86,60.84,49.25,20.55,9.58,42.28,13.42,64.58,15.73,27.42,2.84,55,4.22,82.22,9.11,22,4,44.48,2.46,66.78,3,11.93.29,23.73,2.32,35.45,4.81,4.65,1,6.68,2.83,7.4,7.57a222.8,222.8,0,0,0,8.42,35.88c4.55,14,10.21,27.41,20.21,38.56.6.67.62,1.87.91,2.82-9.95,10.49-22.77,17.1-34.64,24.84-8.8,5.75-13.6,13.71-17,22.63-5,12.89-12.16,25.26-11.62,39.8-7.05,14.52-4.27,30.52-6.66,45.75-3.61,23-6.05,46.45-14.16,68.27-14.62,39.35-31.63,77.7-56.54,112A106.19,106.19,0,0,1,254,1097.69c-26.23,14.87-53.42,27.53-83.69,31.13-34.66,4.12-68.94,3.57-101.82-11.06-21.7-9.65-39.32-24.23-52.09-43.65C6.2,1058.55-.26,1040.9.06,1021.52c.23-14.28-1.09-28.66,2.43-42.71,2.87-11.47,6.61-22.72,10-34,5.83-19.3,15.13-36.57,25.15-53.53,8-13.49,15.84-27,22-41.33,9-20.92,12.38-42.77,6.94-65.29C64.18,774.67,61,764.86,58,755c-9-29.73-12.14-59.8-6.32-90.6,2.21-11.73,3.15-23.65,6.61-35.19A299.09,299.09,0,0,1,76.49,583.89Zm322,170.22c1.09-2.66,2.92-5.47-1.17-7.24a1.81,1.81,0,0,0-1.7.42c-2.1,3.54.35,5.2,2.93,6.78-1.6,2-3.29,4-4.78,6.12-.8,1.13-.94,2.59.58,3.28a3.85,3.85,0,0,0,2.63-.1c1.11-4.89,6.47-5.83,9.24-9.25C403.21,751.45,400.94,754.81,398.5,754.11Zm-266.84-59c-2.91.24-2.7-2-3.62-3.13-1-1.34-2.16-1-3.06.33-2.3,3.45,3.58,5.41,1.6,8.8,2.68,1.49,5.61,1,8.43.84,3.14-.19,3.88-3,3.2-5.08-1.64-5.06,5.2-8.59,2-14.24-.65-1.18,6.28-6,3.22-8.76-4-3.6-5.78,4.33-8.5,4.15-3.35-.23-2.24,1.51-2.34,2.61C132.18,685.5,132,690.36,131.66,695.13Zm-40,129.43c-1,3.46-1.76,5.92-2.34,8.43-2,8.93,2.12,13,13.77,11.46-3.46-2.17-8.22-3.71-3.76-7.81.91-.84,0-2.87-1.22-3.32C94.41,832,95.18,827.61,91.69,824.56Zm206.49-53.95c6.91,1.62,10.87-3,15.95-3,1.38,0,2.18-1.36,1.94-2.83-.31-1.92-2-3.25-3.44-2.48C308.09,764.68,302.53,765.48,298.18,770.61ZM215.24,895.68c3.41-2.49,5-4.93,3.64-9.94C215.86,889.06,214,891.41,215.24,895.68Z"/>
  <path class="cls-1" d="M636.84,338.13c-13.07,1.13-25.8-2.35-38.75-2.89-4.6-.19-9.25-1-13.9-1.14-30.31-.64-60.61-.25-90.81,2.3-26.5,2.24-53,3.9-79.55,5.93-40.59,3.11-81.22.62-121.82,1.78-29,.82-57.83,3.28-85.56,12.41-19.81,6.53-39.87,12.62-58,23.48a164.6,164.6,0,0,0-44.11,38.43c-2.28,2.85-4.21,6-7.72,7.63-.17-2-.35-4-.52-5.94,1.37-1.87,3.23-3.88-1.14-4.2-6.93-25.57-3.34-50.85,2.24-76,.48-2.17,1.29-4.49,3.65-5.61,7.17-1.41,14.29-2.78,19.58,4.41.76,1,2.21,1.07,3.63.58,3-1,4.61-3.59,6.68-5.66-5.79-3.14,1.84-7.91-1.38-11.36-1.48-1.59-3.36-2.51-5.27-1.35-2.2,1.32-3.8,3.49-6.94,2.85-3.73-.75-1.3-5.85-5.41-6.62-2.14,3.23-5,5.76-9.53,5,0-5.72,2.35-10.93,3.62-16.37a6.09,6.09,0,0,1,4.46-4.83c0,2,0,3.9-.17,5.82-.48,4.59.87,6,4.76,4.91,5.37-1.56,6.13-4,3-9.24-1.67-2.77-2.93-5.93-6.69-6.55a12.35,12.35,0,0,1,1.69-9.61c2-.19,4.11.07,5.83-.67,4.74-2.05,9.61-.16,14.25-.11,3.24,0,.52,6.61,3.22,9.36.43.43.94.79,1.74,1.44,2.08-7-.85-13.48-1.39-20.07.06-3,.16-6.11-4.26-5.95a13,13,0,0,1-2.88-.34c-2.25-.77-.77-1.62-.06-2.66a44,44,0,0,0,2.78-5c4-8,7.49-7.4-1.3-16.13a4.37,4.37,0,0,1,2.05-3.87c5.31-1.28,5.31-1.28,3.25-8.62,5.54-7.56,8.95-16.08,11.49-25,5.83-20.6,17.32-37.88,31.24-53.88,25.42-29.24,56.06-51,92.5-64a327.34,327.34,0,0,1,90.5-18.58c24.89-1.52,49.82-1.93,74.75-2,3.91,3.15,8.76,1.13,13,2.28a26.52,26.52,0,0,0,.93-2.51l15.94.24c.78,3.33-1.77,10.36,6.21,5.73,1.72-1,2.26.24,3.27.94,5.19,3.57,5.21,3.55,7-3.55,5.34-2.26,10.26,1.09,15.43,1.15.26,2.45-.47,4.15-2.43,6-3.59,3.45-3,5.23,1.36,6.86,4.77,1.79,9,.44,10.91-3.9,1.42-3.16,4.08-3,6.1-4.37,15.08,1,27.76,8.54,40.5,15.5,9.59,5.24,18.64,11.52,27.8,17.52C593,118.92,601.21,128,609,137.64,630,164,643.53,193,647,227c3.39,33.49.17,66.22-6.54,98.89C639.58,330.13,635.75,333.4,636.84,338.13ZM268.52,180.06c2.66,0,5.31,0,8,.12,1.78,0,3.66.7,3.68,2.58.07,8.3,5.9,7.66,11.21,8.39.85-3.21-2.4-6,.41-8.13,3.2-2.4,4.41,1.53,6.55,2.59a7.43,7.43,0,0,0,1.88.63c2.51.47,3.38,5.16,6.55,3.11,3-1.92,1.4-5.45,1.53-8.3a3.79,3.79,0,0,0-.5-1.91c-2.11-3.91,1.71-7.59.34-11.9-.5-1.57,5.2-.68,8-1.45a4.76,4.76,0,0,0,1.79-.79c1.6-1.43,2.88-3,.16-4.58-3.84-2.28-15.05-1.29-19,1.51-1.63,1.17-1.44,2.47-1.52,4.21-.15,3.33-5.59,7.22-7.14,5.41-3.6-4.2-4.94-2.89-6.47,1.43-1.07,3.06-3.68,1.71-6,1.4-4.58-.61-8.91-.47-9.46,5.72a3,3,0,0,0-.71.27c-.12.09-.12.34-.18.52ZM327.88,176c4.18-4.2,9.32-4.21,13.84-5.88,3.95-1.45,7.37-5.6,5.69-7.82-2.9-3.81-.26-7.55-1.63-10.9C326,153.25,321.41,159.16,327.88,176Zm58.56-26.15c-11.49-2.91-11.57-2.83-13.95,5.3-.43,1.49-2.06,2.87-.19,4.28a4.27,4.27,0,0,0,4.7.13C380.79,157.4,383.67,154.3,386.44,149.82Zm-22-.25c-4.56-2.19-9.09-2-10.53,1.87-1.27,3.41-.09,8.19,5.69,9.88C360.31,157,362.47,153.51,364.46,149.57Zm-142,87.08c-2.46,2.26-4.87,4.57-5.68,7.72-.58,2.26-1.74,5.86,1.78,6.65,2.75.62,3.51-2.42,4.06-4.71C223.36,243.32,226,240.37,222.49,236.65Zm-78.68,76.16c-1.11-1.58-.89-4.93-4.43-3.76-1.28.43-2.46,1.52-2,3,.78,2.54,3,3.39,5.41,3.26C143.74,315.23,144,314,143.81,312.81Z"/>
  <path class="cls-2" d="M1654.63,443.18c-.46-15.33.26-30.55,3.82-45.54,6-25.19,18.8-46.47,36.65-65,15.65-16.24,33.86-28.27,54.42-37.72a320.12,320.12,0,0,1,74.75-23.84c6.51-1.23,13.1-2.57,19.69-2.78,29.54-1,59-4.58,88.56-4.33l10,.08c24.27,0,48.62,1.19,72.79-.34,22.56-1.44,45.08-1.23,67.62-1.73,49.14-2.05,96.77,5.91,143,22.24,24.17,8.54,47.71,18.63,69.92,31.61a106.19,106.19,0,0,1,30.87,28,192.27,192.27,0,0,1,34.64,73.47c4.85,21,4.32,41.63-3.72,61.59-5.22,12.94-12,25.48-21.32,35.88-14.41,16.08-29.13,32-47.21,44.32A201.93,201.93,0,0,1,2227.58,587c-3.12.84-6.74.54-9.29,3.17-18.27,2.86-36.58,5.54-54.8,8.66-13.37,2.28-26.84,3.65-40.23,5.54-18.92,2.67-37.84.81-56.72,1.86-15.84.89-31.49,3.78-47.08,6.7a59.31,59.31,0,0,1-10.83,1.17c-12,0-24,.53-36-.1-10.73-.58-21.08,2.19-31.73,2.2-19,0-37.52-2.94-56.23-5.44-30.77-4.1-59.83-14.28-89.44-22.61-15.34-4.31-30.48-9-44.89-15.84-27.57-13-53.07-28.59-70.42-55-12.59-19.14-21.56-39.4-23.44-62.41C1656.21,450.91,1653.76,447.32,1654.63,443.18Zm620.09-27.26c-.73-3.64-1.39-7.3-4.47-9.88a41.89,41.89,0,0,0-18.78-22.42c-21.84-12.95-45.41-21.91-69.61-29.19-36.63-11-74.22-13.66-112.24-12-5.3-.11-10.68-.87-15.88-.2-17,2.19-34.06,1.72-51.11,1.8-26.17.12-52.33.12-78.5.17-13.69-.85-27.22,1.57-40.86,2.05-24.27.85-48.52,2.34-71.81,10.2-24.77,8.36-48.82,17.57-64.88,40.32-10.24,14.5-14.25,29.76-10,47.06,1,16.58,8.75,29.73,21.42,39.87,12.52,10,27.09,16.35,42,22.18,10.35,4.06,22.37,4.34,30.79,13a2.26,2.26,0,0,0,1.84.54c11.71-3.09,22.13,2.78,32.72,5.53,22.26,5.8,44.6,9.49,67.61,9.17,10.64-.14,21.29.19,31.93-.12,8.78-.26,18,2.16,26.08-3.59.7-.5,2-.31,2.94-.29,20.24.4,40.27-2.28,60.39-3.77,19.14-1.41,38.42-.26,57.64-2,11.22-1,22.35-2.06,33.35-4.48,18-2.83,36-5.13,53.84-8.79,30-6.15,53.53-22.22,72.74-45.41a59.35,59.35,0,0,0,9.77-16.1c1.2-3.05,2.32-6.12,1.73-9.63C2281.93,431.38,2280.24,423,2274.72,415.92Z"/>
  <path class="cls-2" d="M2252.17,698.2c14.95.19,29.91.49,44.78-1.64a24.74,24.74,0,0,1,3-.22c26.6-.3,53.11-3.25,79.77-2.49,8.26.24,16.55-1.27,24.84-1.35,29.75-.3,58.81,3.31,87.31,12.81,21.48,7.15,43,14.13,63.27,24.16,31.72,15.65,53.84,40.53,68.48,72.41,1.22,2.67,1.8,5.77,4.6,7.49-.41,6,1.48,11.78,2.61,17.55,4,20.4,1.3,40-6.28,59a72,72,0,0,0-4.78,17.09c-4.27-.39-4.28,3.62-5.65,5.88-13.55,22.33-31.21,39.82-54.77,52-22.78,11.81-46.9,18.41-71.74,23.15-25.73,4.9-51.58,9.17-77.33,13.92-19.23,3.55-38.16,8.93-58,8.56a14.15,14.15,0,0,0-5.74,1.44c-10.24,4.49-21.09,5.63-32.08,6.12-3.94.17-8-.41-11.62,2-9.65,0-19.31.11-29-.07-19.21-.37-38.19-2.85-57.23-5.32a289,289,0,0,1-48.43-10.44c-14.19-4.38-28.56-8.29-41.54-16-4.82-2.85-10.22-4.77-15.48-6.8-23.77-9.18-45.13-22.53-64.47-38.85-9.27-7.82-17.57-17-23.07-28.28-5.24-10.72-12.1-20.56-16.14-32-6.7-18.95-10-37.88-7.38-58.28,3.45-26.33,14.91-48.09,33.63-66,13.8-13.19,31.12-21.32,48.77-28.19,17-6.61,34.42-12.27,52.52-14.87,11.77-1.69,23.5-3.68,35.28-5.27,17.71-2.38,35.6-2.62,53.25-5.38,5.86-.92,12-.32,17.95-.34C2245.21,700.08,2248.89,700.31,2252.17,698.2Zm-9.71,81.88c-13.26.18-26.38,3.1-39.71,2.12a9,9,0,0,0-2,.21c-15.32,2.48-30.67,4.8-46,7.23-20.92,3.32-40.21,10-59.16,19.27-10,4.88-13.64,12.72-14.79,21.74-2.42,18.92,6.14,34.86,19.13,47.19,15,14.24,34.26,22.61,52.6,31.93,9.75,5,20.64,7,30.77,10.94,15.88,6.2,32.58,8.42,49.15,11.55,9.91,1.87,20,.54,29.68,2.42,8.35,1.62,16.54.9,24.8,1.35,3,.17,5.23-.76,5.7-4.11,5.56-.66,10.18-4.34,16.19-4.13,15.63.57,31.16-2.47,46.84-1.89a45.48,45.48,0,0,0,8.89-1c19.37-3,38.32-8.22,57.73-11.1,26-3.86,51.91-7.75,77.18-15.33a106.35,106.35,0,0,0,29.62-14c11-7.47,17.54-18.25,20.87-30.7a32.06,32.06,0,0,0-2.63-24.25c-7.11-13-17.56-22.39-30.41-29.36-8.82-4.78-18.26-8.1-27.68-11.35-27.46-9.49-55.19-17.42-84.82-15.24-6.12.45-12.68,1.73-18.49-2.17a2.87,2.87,0,0,0-2.69,0c-4,3.75-8.81,2.12-13.31,2.27-11.31.4-22.67.11-33.94,1C2304.85,777.07,2273.66,778.61,2242.46,780.08Z"/>
  <path class="cls-1" d="M2302.84,1016.12c3.58-2.39,7.68-1.81,11.62-2,11-.49,21.84-1.63,32.08-6.12a14.15,14.15,0,0,1,5.74-1.44c19.82.37,38.75-5,58-8.56,25.75-4.75,51.6-9,77.33-13.92,24.84-4.74,49-11.34,71.74-23.15,23.56-12.2,41.22-29.69,54.77-52,1.37-2.26,1.38-6.27,5.65-5.88,2.34,14.77,4.39,29.59,7.08,44.29,3.78,20.74,3.75,41.65,4,62.59.2,19.26,2.53,38.5,1.51,57.77-2.09,39.24-13.64,75-39.53,105.41-34.34,40.38-79.32,61.21-130.54,68-30,4-60.48,2.34-89.58-8.81-37.32-14.31-66-37.77-81.75-75.4-10.71-25.55-11.84-51.58-5.54-78.44,4.42-18.83,11-36.94,16.1-55.54C2302.05,1020.7,2302.38,1018.39,2302.84,1016.12Zm35.38,147.23c-.19-2.3-1.13-3.12-3.21-2.39-5.22,1.82-7.78,6.7-11.59,10.14-.36.33,0,2,.48,2.62,1.13,1.5,1.93.56,3-.49,3-2.94,5.82-6,9.81-7.77C2337.43,1165.14,2337.79,1164,2338.22,1163.35Z"/>
  <path class="cls-3" d="M136.5,276.18c.54,6.59,3.47,13.05,1.39,20.07-.8-.65-1.31-1-1.74-1.44-2.7-2.75,0-9.33-3.22-9.36-4.64-.05-9.51-1.94-14.25.11-1.72.74-3.88.48-5.83.67,2.34-15,9.38-27.89,17.93-40.11,8.79,8.73,5.32,8.16,1.3,16.13a44,44,0,0,1-2.78,5c-.71,1-2.19,1.89.06,2.66a13,13,0,0,0,2.88.34C132.4,273.11,132.49,276.05,136.5,276.18Z"/>
  <path class="cls-3" d="M1344.31,370.41c-1.28-8.27,3.43-14.28,7.4-20.76,2.52-4.1,5.88-3.82,9.45-3.36s3.41,3.55,3.3,6.19c-.17,4.43,2.18,5.87,6.18,5.58,1.61.08,3.19.2,4,1.94-5.17,6.42-9.85,13-8,22-4.85-.8-10.56,1.56-14.14-3.88.23-2.14,7.58-4.33,0-6.42l4.09-3.65a23.93,23.93,0,0,1,2.83.52c1.27.39,2.54.91,3-.95a2.42,2.42,0,0,0-.33-1.76c-.72-1-1.68-.42-2.55-.09a4.38,4.38,0,0,0-2.86,2.35c-4.33-1.06-8.92-3.57-12.08,2.1Z"/>
  <path class="cls-3" d="M102.22,322.1c4.49.78,7.39-1.75,9.53-5,4.11.77,1.68,5.87,5.41,6.62,3.14.64,4.74-1.53,6.94-2.85,1.91-1.16,3.79-.24,5.27,1.35,3.22,3.45-4.41,8.22,1.38,11.36-2.07,2.07-3.68,4.63-6.68,5.66-1.42.49-2.87.46-3.63-.58-5.29-7.19-12.41-5.82-19.58-4.41C101,330.18,99.56,325.91,102.22,322.1Z"/>
  <path class="cls-3" d="M1231.36,299.78c2,.23,4.52,2.78,5.41,1.41,3.29-5.05,5.75-7,9.15-.16.76,1.52,3,.74,4.51-.06,1.73-.91,3.35-2.38,5.18-2.71,4.29-.78,7,2,8.35,5.51,1.52,3.84-.52,6.71-4.25,7.44-3.16.62-7.32,5.37-9.68-1.3-.15-.44-1.42-1-1.49-.88-4.56,5.48-8.12-1.49-12.25-.95C1233.65,305.9,1230.67,303.93,1231.36,299.78Z"/>
  <path class="cls-2" d="M1302.59,366.82c5.58.73,8.85-5.39,14.55-4.86,1.41.13,1.87-2.67,1.73-4.23-.54-6,3.23-8.07,8.37-9.92,3.35,9.76-.61,18.07-3.76,26.49C1316.37,372.2,1309.19,370.33,1302.59,366.82Z"/>
  <path class="cls-2" d="M1397.4,383.25c1.89-3.48,3.73-7,5.71-10.42,1.27-2.19,5.22-2.94,1.91-7.22-1.61-2.08,3.06-5.22,4.19-8.62,2,2.13,1.67,4.85,3.63,6.78,4.12,4.06,5.86,8.72.43,13.5-2,1.82-1.19,4.26-.18,6.45C1407.84,384.17,1402.6,384.45,1397.4,383.25Z"/>
  <path class="cls-3" d="M514.29,79.09c-2,1.41-4.68,1.21-6.1,4.37-1.93,4.34-6.14,5.69-10.91,3.9-4.34-1.63-4.95-3.41-1.36-6.86,2-1.88,2.69-3.58,2.43-6C503.88,75.28,509.56,75.54,514.29,79.09Z"/>
  <path class="cls-2" d="M1352.41,371.69c7.62,2.09.27,4.28,0,6.42-2.2,2.55-4.34,3.84-8.14,2.33-3-1.21-4.64-4.58-8.15-4.63.39-5.31,3.83-6,8.14-5.41l.18-.19C1346.54,373.83,1349.62,372,1352.41,371.69Z"/>
  <path class="cls-3" d="M111.16,295.84c3.76.62,5,3.78,6.69,6.55,3.17,5.24,2.41,7.68-3,9.24-3.89,1.12-5.24-.32-4.76-4.91.19-1.92.12-3.87.17-5.82C110.59,299.21,110.87,297.53,111.16,295.84Z"/>
  <path class="cls-3" d="M482.92,73.32c-1.76,7.1-1.78,7.12-7,3.55-1-.7-1.55-1.93-3.27-.94-8,4.63-5.43-2.4-6.21-5.73C472,70.77,478.07,68.91,482.92,73.32Z"/>
  <path class="cls-3" d="M1384.57,382.67c.31-3.48-1.08-8.89,3-9.48,4.85-.72,1.91,5.92,4.59,8.18.44.38.5,1.19.74,1.8C1390.05,383.66,1387.21,384.8,1384.57,382.67Z"/>
  <path class="cls-3" d="M450.53,70a26.52,26.52,0,0,1-.93,2.51c-4.28-1.15-9.13.87-13-2.28A14.86,14.86,0,0,1,450.53,70Z"/>
  <path class="cls-3" d="M1376.58,382.15c2.2-3.39-.32-5.32-2.23-7.54-1-1.17-2.34-2.81-.12-4,1.65-.88,3.06.06,4.13,1.52,2.06,2.79,2.33,6,2.46,9.32Z"/>
  <path class="cls-3" d="M136.08,233.63c2.06,7.34,2.06,7.34-3.25,8.62C132.53,238.86,133.21,235.83,136.08,233.63Z"/>
  <path class="cls-2" d="M1422.75,382.68c2.78-4.44,4.67-1.58,6.62.81C1427.07,384.07,1424.75,384.71,1422.75,382.68Z"/>
  <path class="cls-2" d="M95,415.92c4.37.32,2.51,2.33,1.14,4.2C93.07,419.44,91.64,418.33,95,415.92Z"/>
  <path class="cls-3" d="M1024.3,994.7c6-2,6-2,3.17-7.74-1.32-2.69-1.33-4.57,2.52-4.09.92.11,2.56.46,2.66.21,4.13-10.18,10.29-3.62,15.8-1.94a18.25,18.25,0,0,1,3.18,1.91c-2.78,3.46-3.31,7.54-3.33,11.79,0,2.61-1.57,4.9-4.24,4.37-3.57-.71-6.93-2.43-10.39-3.72-2.91,5.57-6-.09-8.92.06C1024.61,995.56,1024.45,995,1024.3,994.7Z"/>
  <path class="cls-3" d="M1055,815c1.7-3.31,5.15-2.84,5.29-5.82s1-5.32,4.64-4.89c3,.36,6.07,1.2,7.22,4.31.87,2.37,3,4.74,1.7,7.46-1.46,3.09-4.57,1.79-7,2C1062.63,818.44,1059.28,816.22,1055,815Z"/>
  <path class="cls-3" d="M1820.57,904.11c-.32-2.25-.18-4.51-1.75-6.56-5.17-6.74-5-7.38,2.31-12,1.08-.68,2-1.57,3.46-2.71,2.4,2,4.85,4.78,3.26,7.35-2.79,4.48-.91,11.44-7.34,13.88Z"/>
  <path class="cls-3" d="M1012.35,997.88c5.45-.08,7.8,1.65,7.93,5.78.11,3.42-1.22,5.93-5,6.09-2.44.11-8.69-6.73-8.21-9C1007.72,997.74,1010.4,998.06,1012.35,997.88Zm4.33,7.78.67-.5c-.19-.2-.35-.55-.57-.59-.75-.12-1.08.22-.82.8C1016,1005.54,1016.43,1005.57,1016.68,1005.66Z"/>
  <path class="cls-2" d="M967.19,971c1.89-6.82,5.44-10,9.95-8.54.79.27,4.11,1.31,1.93,3.76-3.11,3.49-6.33,7.06-11.84,4.86Z"/>
  <path class="cls-3" d="M1016.17,971.34c-4.52,6.28-9.22,8.44-13.23,6.5a2.31,2.31,0,0,1-1.23-3.23C1003.4,970.47,1007,969.54,1016.17,971.34Z"/>
  <path class="cls-3" d="M1053.35,1021.2a2.2,2.2,0,0,1-2.51-1.35c-.59-1.17-1.27-2.37-.16-3.62,2-2.22,3.91-4.42,6.83-5.54,2.56-1,4.67-.53,6,1.81,1.44,2.61-1,3.33-2.61,4.31C1058.34,1018.35,1055.77,1019.79,1053.35,1021.2Z"/>
  <path class="cls-3" d="M924.36,958.59c-3-5.36-2-8.38,2.07-10.13,2.06-.89,4.49.1,4.83,2.07C932.07,955.34,927,955.14,924.36,958.59Z"/>
  <path class="cls-3" d="M968.1,976.14c1.93.38,5.38-1,5.33,2.38s-3.27,3.5-6,3.44c-2,0-4.37-.14-4.43-2.73C962.89,975.89,965.64,976.13,968.1,976.14Z"/>
  <path class="cls-3" d="M927,972.19c.28-4.86,1.7-7.5,4.47-9.41a2.81,2.81,0,0,1,3.57.07c1.29,1.07.81,2.33,0,3.38A15.56,15.56,0,0,1,927,972.19Z"/>
  <path class="cls-3" d="M959.18,966c-1.23-.29-2.12-.82-1.92-2,.45-2.69,2.23-3.87,4.87-3.66,1,.08,1.92.75,1.72,1.91C963.39,965,961.63,966.1,959.18,966Z"/>
  <path class="cls-3" d="M1820.51,904.05c-.41,2.36.72,5.73-3.55,5.54a1.9,1.9,0,0,1-1.43-1.08c-.49-3.87,2.4-4,5-4.4Z"/>
  <path class="cls-3" d="M967.19,971l0,.08-1.64.13c.24-.18.48-.48.74-.51S966.9,970.84,967.19,971Z"/>
  <path class="cls-3" d="M2382.55,388.82c0-2.35,0-3.34,0-4.32.07-1.29,0-2.73,1.55-3.26,2-.71,3.07.71,3.92,2.08a51.37,51.37,0,0,1,6,14.51c.84,3.31-1.27,4.7-4.71,3.46C2384.16,399.44,2382.47,396,2382.55,388.82Z"/>
  <path class="cls-3" d="M2507.54,107.3a19.25,19.25,0,0,1-11.5-5.38,4.83,4.83,0,0,1-.63-6.38c1.86-2.55,4-1.06,5.93.42C2504.94,98.7,2509,101.14,2507.54,107.3Z"/>
  <path class="cls-3" d="M2392.53,428.09c3.16-1.25.4-6,4.23-7.06,2.85,1.82,1.28,4.83,1.95,7.19s3.59,5.53-.1,6.64c-3.51,1.05-6.11-1.65-6.06-5.79v-1Z"/>
  <path class="cls-3" d="M2392.55,428.07l-.86-.81c.18,0,.42,0,.52.14a2.43,2.43,0,0,1,.32.69Z"/>
  <path class="cls-1" d="M538.14,474c-15.22,5.75-30.86,10.27-45.53,17.62-25.72,12.89-47.82,30-65.37,52.85-7.21,9.41-10.77,20.56-14.95,31.41-.72,1.86-1.29,3.78-1.91,5.68-3.05,9.39-3,9.29-12.44,7.81a371.79,371.79,0,0,0-51.5-4.82,494.39,494.39,0,0,1-68.52-5.83c-15.4-2.43-31.08-3.08-46.64-4.47-11.24-1-22.46-2-33.62-3.91-12.72-2.14-24.14-7.44-35.11-13.75-10.3-5.94-14-15.63-16-27.15-5.45-30.8,28.22-78.76,57.62-87.91,23-7.14,45.54-13.9,69.67-15.93,38-3.2,75.92-.47,113.85-1.65,25.6-.79,51.13-2.58,76.62-5.18,12.23-1.25,24.56-1.25,36.84-2.17,18.22-1.37,36.49-2.79,54.83-2.51,13.65.21,27.31-.39,40.84,2-7.21,9.29-13.82,19.15-21.87,27.64-4.56,4.82-8.84,10.85-16,12.67-6.75-4.06-13.08-4.36-18.66,2.06,4.37,4.09,4.37,4.09,2.14,11.31Z"/>
  <path class="cls-1" d="M763,764a290.67,290.67,0,0,1,7.43-45.17c6-24.11,18.66-43.92,37.11-60.15,8.23-7.24,16.86-14.06,25.56-20.75,22.14-17,48.14-25.13,74.74-31.64,28.39-7,56.66-4.31,85,1,24.86,4.64,49.17,11.37,73.57,17.8,3.11,2.44,3.91,6,4.73,9.58,4.63,20.49,1.63,38.6-14.22,54-30.3,29.39-64.77,50.53-107,57.7-18.64,3.17-37.1,7.36-55.69,10.83a164.36,164.36,0,0,1-20.72,2.63q-28.85,1.63-57.74,2.62c-9,.31-17.77-.26-26.59-3-5.53-1.72-12.29-3.91-16.86,3.56C770.29,766.26,766.22,764.19,763,764Zm177.82-41.82c-7.21.14-14.58,0-22.11,5.57C927.8,728.24,934.3,725.11,940.84,722.15Z"/>
  <path class="cls-4" d="M501.7,585a86.79,86.79,0,0,1-1.32,21c-13.71-1.08-14-2.95-6.73-14.89C495.38,588.3,497,584.32,501.7,585Z"/>
  <path class="cls-1" d="M1652.07,1027.94c-.57,2.53-.6,3.9-1.18,5-1.64,3,3,6.35-.56,9.24-2.51,2.06-5.64,1.81-8.52,2.46-30.77,7-61.57,13.84-92.32,20.89-5.64,1.29-9.28,0-12.27-5.31-9-16.11-21.06-29.82-34.51-42.32-13.3-12.36-28.12-21.89-46.54-24.92-10.81-1.78-21.51-4.25-32.23-6.52-13.49-2.86-27.15-2.11-40.78-2-16.64.07-33.15-1-50.73-4.67,12.2-18.63,26-33.66,46.52-41.57,18.45-7.11,38-9.56,57.16-13.37s38.57-6.94,57.77-10.82c12.77-2.58,25.73-2.76,38.63-3.64,11.27-.76,22.63.19,33.86-1.76,5-.87,10,.65,14.81,1.72,13.46,3,27.08,1.89,40.64,2.29a197.62,197.62,0,0,1,37.47,4.88c15.92,3.57,31.87,6.64,48.26,6.76a38.38,38.38,0,0,1,7.86,1.17c22,4.86,27.2,13.85,28,35.07.74,19.47-6.68,37.15-18,52.93-11.73,16.4-28.63,23.08-48.11,24.48a33,33,0,0,0-6.93.78c-3.84,1.13-6.48,1.56-8.74-3.16C1660.27,1032.58,1656.14,1031,1652.07,1027.94Zm21-34.74c-1.47-1.76-3.72-.77-5.42-1.62a10.56,10.56,0,0,0-1.78-.82c-2.52-.69-5.71-1.73-6.65,1.59-1.18,4.16,2.57,3.4,5,3.78,1.92.3,3.81,1.09,5.72,1.12C1672.53,997.3,1673,995.25,1673.12,993.2ZM1659,1003c-4.25,7.67-4.25,7.67,2.47,12.23C1663.55,1011,1660.32,1008.23,1659,1003Z"/>
  <path class="cls-4" d="M1414.61,1190c-18.48-20-41.4-30.74-68.48-32-17.55-.85-35.18.06-52.6-3.29-21.94-4.22-42.82-11.54-63.62-19.61-25.57-9.93-49.08-23.46-72.22-37.86-4.5-2.8-8.69-6.1-13-9.17,9.66-8.16,21.33-11.81,33.33-14.55a511.88,511.88,0,0,1,75.61-11c10.79-.81,10.84-.25,14.88,9.76.3,3.87,4.76,5.68,4.71,10,0,1.81,2.93,1.89,4.81,2.07l.48,5.87c1.57,4.24,1.59,9.79,8.24,9.75.52.38,1.34.64,1.54,1.15,11.24,28.15,34.61,39.68,62,47.16,16,4.37,32.07,4.55,48.22,5.67a21.26,21.26,0,0,0,5,0c4-.67,6.52-2.67,3.49-6.74-2.35-3.17.4-3.86,1.27-5.13,1.4-.46,1.83-.14,2.17.63,5,11.36,5,11.37,17.2,11.54,5.31.07,10.63.06,15.94.06,4,0,7.75.43,10.45-3.9,2-3.25,6-2.78,8.91-1.06,4,2.3,5.8,8.13,4,11.41-4.8,9-10.52,16.77-21.17,19.81-7,2-13.68,5.14-20.43,8A19.18,19.18,0,0,1,1414.61,1190Z"/>
  <path class="cls-3" d="M1370.28,1082c2,1.4,2.38,4.65.79,4.76-8.08.56-11.17,10-20.29,9.42,3.62,5.4,9.18,3.73,12.78,6.41,2.87,2.14,5.92,3.56,2.68,7.5-3,3.58-.1,8.87-3.5,12.12-3.8,3.63-6.87-4.06-10.87-1a3.75,3.75,0,0,1-1.89.57c-8.24.62-10,1.75-14.39,8.65a5.79,5.79,0,0,1-4.95,2.88c-2.25-.08-4.17-1.88-3.24-3.92,2-4.29-7-2.77-3.53-7.28,2-2.57,5.43-2.4,7.86-4,3.59-2.29,6.42-6,6.7-10.07.24-3.43,2-6,2.87-8.92-3.54-3.29-6.78-4.1-10.71-.79-2.75,2.31-5.94,4.21-10,3.7-2.29-.28-3.64-1.15-4.07-3.5-.36-2-.7-3.19,1.7-4.74,6.8-4.38,13.64-9,16.23-17.46.27-.9,1-2.24,1.67-2.36,10.17-1.84,6-8.82,5-14.65,3.41-1.62,6.46-1.83,9.37.6,2.9,4.63,5.35,9.75,10.9,11.87C1366.27,1073.68,1368.9,1077.27,1370.28,1082Zm-22.06,21.18c0-1.63-.56-2.4-1.7-2.36a1.81,1.81,0,0,0-1.76,2c0,1.44.55,2.75,2.23,2.32C1347.62,1105,1348,1103.65,1348.22,1103.21Zm-3.76,11.52c.93-.65,2-1.46,1.49-2.92a1.45,1.45,0,0,0-2.19-.83,3.5,3.5,0,0,0-1.12,2.34C1342.56,1114.23,1343,1115.17,1344.46,1114.73Z"/>
  <path class="cls-4" d="M1370.28,1082c-1.38-4.76-4-8.35-8.85-10.2-5.55-2.12-8-7.24-10.9-11.87,18.92.83,37.88-.15,56.8,1.78,12,1.23,23.43,4.61,35,7.48,4,1,7,3.63,9.91,7.25-3.51,2.56-7.2,1.52-10.59,1.75-20.85,1.42-41.67-1.11-62.52-.46C1375.52,1077.88,1371.56,1077.11,1370.28,1082Z"/>
  <path class="cls-3" d="M1278,1084.3c-1.88-.18-4.83-.26-4.81-2.07,0-4.33-4.41-6.14-4.71-10,1.64-.88,1.75-2.65,2.51-4.09,4.25-8.1,6.44-8.59,14.37-3.41,2.55-1.36.45-6.36,4.79-6.36,3.23,0,6.64-1,8.85,2.72,1.64,2.79,4,3.19,6.67,1,3.4-2.74,8.39-1.69,11.74-5,1.69-1.68,4.58-1.2,6.7-.4,3.08,1.16,1.85,3.69,1.2,5.92-.43,1.47.51,2.24,1.47,3.28,4.19,4.53,4.17,6.49-.82,7.9-3.79,1.08-5.21,2.28-5.89,6.34-1.2,7.33-2.79,7.63-12.24,3.22,5.29-.95,7.09-4.14,8.08-7.93.47-1.82-.4-4.3-1.71-4-4.51,1-9.81,1.9-12.85,4.85-1.75,1.69-4.74,5.69-4,9.27,1.21,5.59-2.32,7.45-6.2,8.27s-5.14,2.48-4.47,6.1c-6.64,0-6.66-5.51-8.22-9.75,3.81-2.9,5.37-7.35,3.37-10.29-1-1.53-2.32-.75-2.91.59A22.11,22.11,0,0,0,1278,1084.3Zm6.37-.1c2.89-.22,6.13,1.35,7.33-2.61s-1.67-8.89-7.5-12.34C1286.7,1074.66,1284.58,1079.31,1284.37,1084.2Zm-2.75-10.3a2,2,0,0,0-2.21-1.43c-1.12,0-2,.58-1.82,1.76s1.14,1.45,2.16,1.42S1281.6,1075.13,1281.62,1073.9Z"/>
  <path class="cls-3" d="M1350.73,908.55c2.13,2.1,3.24,5.65,2.09,6.35-6.64,4.11,1,4.14.83,7.09,5.08-5.27,3.08-11,3.47-16,.36-4.53-.92-8,5.64-5.74,2.53.88,1.77-2,2.69-3.09,4-4.48,6.86-4.11,9.25,1.58,1.41,3.32,6.28,7.1-.66,10.36-1.14.54,1.58,2.21,2.5,3.39,3.55,4.54,3.27,5.52-1.92,8.36a49.57,49.57,0,0,1-19,5.69,7.23,7.23,0,0,0-1.88.26c-1.93.75-.91,5.81-4.4,3.7-3-1.82-5.32-4.83-7.72-7.51-.84-.94-1.06-2.95.34-3.42C1347.13,917.89,1346.36,911.78,1350.73,908.55Zm21.34,7.76c.33-1.38-.45-2.27-1.63-2.93a1,1,0,0,0-1.53.59,2.72,2.72,0,0,0,.87,3.37C1370.63,917.89,1371.52,917.34,1372.07,916.31Z"/>
  <path class="cls-3" d="M1382.34,1116.23c.81,3.94,3.75,8-1.48,11.39-1.15.74-2.38,3.34-1.92,4.3,4.75,10-6.91,8.15-9.26,13-.51,1-2.43.25-3.39-.85-1.46-1.68-1.9-3.69-.56-5.44,3-3.93,4.62-9.37,9-11.65,4-2.09,3.2-3.94,2.21-7-1.79-5.49-2.44-11.31-6.76-18,6.84,2.13,10.68.87,13.73-3.87s8.31-4.21,15.48-3c-4.52,2.7-9.8,3.89-6.09,9.08a5,5,0,0,0,1.48-.58c2-1.75,4.53-2.23,6.21-.3,1.86,2.14-.23,4.48-1.47,6.19-4.1,5.7-10.08,7-16.72,6.45.86-3.59,5.57-2.87,7.22-5.93C1382.22,1107.72,1381,1108.79,1382.34,1116.23Z"/>
  <path class="cls-2" d="M1374.63,360c-.8-1.74-2.38-1.86-4-1.94-.52-5.35,4.21-7.14,7.14-9.93,2.18-2.08,4.87-3.4,3.7-9.12,6.07,7.48,11.78,4.86,17.42,2.26,1.34-.61,3.45-1.09,2.65-3.36-.62-1.78-1.06-4.43-3.67-3.83-2.76.63-5.19,1.55-6.74-1.77-1.39-3,3.42-3.42,2.57-5.77-1.32-3.67.21-3.15,2.51-2.11.56,1.61,1.31,3,3.37,2.71.2,0,.46-.53.48-.82.14-2.24-1.36-2.65-3.12-2.72-.43-5.85,2.67-8.44,9-9-1.53,6.34,1.88,12.45-1.49,18.91-1.92,3.68.25,8.52,1.79,12.3,1.88,4.63.85,7.44-2.31,10.91a48.1,48.1,0,0,1-6.15,6.28,6.48,6.48,0,0,1-6.65.33c-2.34-1.24-.81-3.48-.57-5.32.41-3.19.76-6.36-1.49-10.52-3.58,5-10.19,5.9-10.68,12.62a3,3,0,0,1-3.24,1.23A4.14,4.14,0,0,0,1374.63,360Z"/>
  <path class="cls-3" d="M1424.32,289.87c-9.85,6.95-20.65,7.32-30.75,9.87a3.55,3.55,0,0,1-4.3-1.64,5.36,5.36,0,0,1,.51-5.65,3.42,3.42,0,0,1,4.31-1.38c1.57.54,3.16,1,4.76,1.42,3.38.9,9-2.69,10.2-6.25.94-2.81,2.48-5.44,3.24-8.29,1.06-3.95,4-4,7-3.82a2.79,2.79,0,0,1,2.82,2.34,3.09,3.09,0,0,1-.89,2.64C1415.38,285.85,1415.41,285.87,1424.32,289.87Z"/>
  <path class="cls-2" d="M1318.8,312.15c1.89-3.07,3.47-4.45,3.45-5.81-.1-8.64,7.33-10.1,12.62-13.47A3.44,3.44,0,0,1,1340,294c1.45,2.55.22,3.4-2.15,4a3,3,0,0,0-1.58,2.22C1335.57,310.5,1327.74,310.47,1318.8,312.15Z"/>
  <path class="cls-3" d="M1351.44,305.27c-2.15-2.5-5.87.09-8.49-3,2.84-3.92,9-5.55,7.91-11.38,3.49-.21,3.74,2.12,5.18,2.7,3.08,1.25,6.63,2.05.85,5-2.67,1.35.66,4.24-.81,6.23-2.22,3-.62,7.09-2.52,10.32C1349.71,311.61,1349.71,311.61,1351.44,305.27Z"/>
  <path class="cls-3" d="M1354.8,230.72c.63-7.84,1-14.07,3.8-20a4,4,0,0,1,4.74-2.52,3.54,3.54,0,0,1,3.23,3.17c.76,4.32,3.52,9.09-3.19,11.43C1360.19,223.93,1359.58,228,1354.8,230.72Z"/>
  <path class="cls-3" d="M1425.13,359.84c2.29-3.09,1.19-7.7,4.94-7.61,4.64.11,7.26,4,9.88,7.25a2.63,2.63,0,0,1-.54,3.6,2.48,2.48,0,0,1-3.56,0C1433.13,360.18,1431.15,355.74,1425.13,359.84Z"/>
  <path class="cls-3" d="M1450.66,301.71c-1.49,6.77-7.38,8-7.93,13-.58-.73-1.62-1.45-1.65-2.21-.14-3.4-4.57-6.51-1.36-10S1446.22,303.23,1450.66,301.71Z"/>
  <path class="cls-3" d="M1281.32,325.94c.17-6,2.49-9.24,7.65-10.41,1.25-.29,2-3.29,3.76-.7,1.41,2.11,2.12,4.54-.47,6C1289,322.76,1285.41,324.08,1281.32,325.94Z"/>
  <path class="cls-3" d="M1411.48,311.38c2-4.53,6.39-2.86,8.62-5.47,1.41-1.64,3-.23,3.78,1.36,1,2.18.29,4-2,4.6C1418.66,312.69,1415.38,312.2,1411.48,311.38Z"/>
  <path class="cls-3" d="M1459.9,371.18c-4.3.55-5.71-2.91-8.43-3.94-1.7-.64-2.46-2.27-.68-3.88,1.37-1.24,3.26-1.78,4.42-.35C1457,365.24,1459.47,367.22,1459.9,371.18Z"/>
  <path class="cls-3" d="M1373.34,270.43c2.75.22,4.48,1.54,4.8,4.23.27,2.24-.86,4.35-2.89,4.63-3.77.51-3.52-3.21-4.35-5.42C1370.19,272,1371.63,270.89,1373.34,270.43Z"/>
  <path class="cls-3" d="M1372,291.89a3.32,3.32,0,0,1-3,3.43c-2.78.25-4.08-1.75-4.37-4.2-.15-1.26.51-2.81,2.16-2.55C1368.89,288.92,1371.15,289.5,1372,291.89Z"/>
  <path class="cls-3" d="M1475,338.3c1.54.12,2.63.65,2.56,1.64-.22,3-2.82,3.19-5,3.57a1.4,1.4,0,0,1-1.48-1.93A4.65,4.65,0,0,1,1475,338.3Z"/>
  <path class="cls-3" d="M1328.57,222.37a1.81,1.81,0,0,1,1.23,2.42c-.41,1.56-1.44,3-3.44,2.58a1.92,1.92,0,0,1-1.54-2.09C1324.82,223.36,1325.71,222.31,1328.57,222.37Z"/>
  <path class="cls-3" d="M1375.15,361.37a3,3,0,0,0,3.24-1.23c2.61.14,4.92,1.11,3.75,4.09-1.05,2.67-3.19.93-4.87.11A3.32,3.32,0,0,1,1375.15,361.37Z"/>
  <path class="cls-2" d="M1447.28,337.06c-1.3,1.38-2.85,2.49-4.85,2.26a1.47,1.47,0,0,1-1-2.16,3.23,3.23,0,0,1,3.89-2A2.23,2.23,0,0,1,1447.28,337.06Z"/>
  <path class="cls-3" d="M1444.56,365c.39.36,1.06.69,1.1,1.08.1,1.11-.69,1.61-1.67,1.29a1.65,1.65,0,0,1-.65-1.44C1443.41,365.52,1444.13,365.27,1444.56,365Z"/>
  <path class="cls-3" d="M131.66,695.13c.3-4.77.52-9.63,1-14.48.1-1.1-1-2.84,2.34-2.61,2.72.18,4.54-7.75,8.5-4.15,3.06,2.79-3.87,7.58-3.22,8.76,3.17,5.65-3.67,9.18-2,14.24.68,2.1-.06,4.89-3.2,5.08-2.82.18-5.75.65-8.43-.84,2-3.39-3.9-5.35-1.6-8.8.9-1.35,2-1.67,3.06-.33C129,693.17,128.75,695.37,131.66,695.13Z"/>
  <path class="cls-3" d="M91.69,824.56c3.49,3.05,2.72,7.42,6.45,8.76,1.23.45,2.13,2.48,1.22,3.32-4.46,4.1.3,5.64,3.76,7.81C91.47,846,87.3,841.92,89.35,833,89.93,830.48,90.72,828,91.69,824.56Z"/>
  <path class="cls-3" d="M298.18,770.61c4.35-5.13,9.91-5.93,14.45-8.34,1.46-.77,3.13.56,3.44,2.48.24,1.47-.56,2.83-1.94,2.83C309.05,767.6,305.09,772.23,298.18,770.61Z"/>
  <path class="cls-3" d="M398.5,754.11c2.44.7,4.71-2.66,7.73,0-2.77,3.42-8.13,4.36-9.24,9.25a3.85,3.85,0,0,1-2.63.1c-1.52-.69-1.38-2.15-.58-3.28,1.49-2.11,3.18-4.09,4.78-6.12Z"/>
  <path class="cls-3" d="M398.56,754.07c-2.58-1.58-5-3.24-2.93-6.78a1.81,1.81,0,0,1,1.7-.42c4.09,1.77,2.26,4.58,1.17,7.24Z"/>
  <path class="cls-3" d="M215.24,895.68c-1.22-4.27.62-6.62,3.64-9.94C220.27,890.75,218.65,893.19,215.24,895.68Z"/>
  <path class="cls-3" d="M268.56,180.1c.55-6.19,4.88-6.33,9.46-5.72,2.27.31,4.88,1.66,6-1.4,1.53-4.32,2.87-5.63,6.47-1.43,1.55,1.81,7-2.08,7.14-5.41.08-1.74-.11-3,1.52-4.21,3.91-2.8,15.12-3.79,19-1.51,2.72,1.62,1.44,3.15-.16,4.58a4.76,4.76,0,0,1-1.79.79c-2.77.77-8.47-.12-8,1.45,1.37,4.31-2.45,8-.34,11.9a3.79,3.79,0,0,1,.5,1.91c-.13,2.85,1.42,6.38-1.53,8.3-3.17,2.05-4-2.64-6.55-3.11a7.43,7.43,0,0,1-1.88-.63c-2.14-1.06-3.35-5-6.55-2.59-2.81,2.11.44,4.92-.41,8.13-5.31-.73-11.14-.09-11.21-8.39,0-1.88-1.9-2.54-3.68-2.58-2.66-.08-5.31-.09-8-.12Z"/>
  <path class="cls-3" d="M327.88,176c-6.47-16.81-1.85-22.72,17.9-24.6,1.37,3.35-1.27,7.09,1.63,10.9,1.68,2.22-1.74,6.37-5.69,7.82C337.2,171.76,332.06,171.77,327.88,176Z"/>
  <path class="cls-3" d="M386.44,149.82c-2.77,4.48-5.65,7.58-9.44,9.71a4.27,4.27,0,0,1-4.7-.13c-1.87-1.41-.24-2.79.19-4.28C374.87,147,375,146.91,386.44,149.82Z"/>
  <path class="cls-3" d="M364.46,149.57c-2,3.94-4.15,7.45-4.84,11.75-5.78-1.69-7-6.47-5.69-9.88C355.37,147.58,359.9,147.38,364.46,149.57Z"/>
  <path class="cls-3" d="M222.49,236.65c3.52,3.72.87,6.67.16,9.66-.55,2.29-1.31,5.33-4.06,4.71-3.52-.79-2.36-4.39-1.78-6.65C217.62,241.22,220,238.91,222.49,236.65Z"/>
  <path class="cls-3" d="M143.81,312.81c.2,1.17-.07,2.42-1,2.47-2.41.13-4.63-.72-5.41-3.26-.44-1.45.74-2.54,2-3C142.92,307.88,142.7,311.23,143.81,312.81Z"/>
  <path class="cls-4" d="M136.5,276.18c-4-.13-4.1-3.07-4.26-5.95C136.66,270.07,136.56,273.14,136.5,276.18Z"/>
  <path class="cls-3" d="M268.52,180.06l-.85.83c.06-.18.06-.43.18-.52a3,3,0,0,1,.71-.27Z"/>
  <path class="cls-1" d="M2145.28,519.85c-11.32-13.93-23.38-27.23-33.64-42-20.35-29.37-34.33-61.42-40-96.68-2-12.68-1.41-25.79-2-38.7,38-1.67,75.62,1,112.25,12,24.2,7.28,47.77,16.24,69.61,29.19A41.89,41.89,0,0,1,2270.25,406c-2.33-.16-4.91-.48-6.2,2-1.44,2.73,1.49,4.05,2.57,5.9,1.91,3.26,5.21,2,8.1,2,5.52,7.06,7.21,15.46,8.64,24,.59,3.51-.53,6.58-1.73,9.63a59.35,59.35,0,0,1-9.77,16.1c-19.21,23.19-42.79,39.26-72.74,45.41C2181.28,514.72,2163.24,517,2145.28,519.85Zm-35.83-76.39c-1.28,2.31-1.49,4.77-3.77,6.06-1.68.94-3.68,2-2.74,4.48a3.23,3.23,0,0,0,2.17,1.65c2.73.49,4.12-1.31,5.34-3.44C2112.06,449.39,2112.52,446.7,2109.45,443.46ZM2104,409.1c0-1.17-.51-2.14-1.54-2.16-2.43-.06-3.51,1.65-3.79,3.76-.18,1.3.14,2.94,1.93,2.73C2103.05,413.14,2103.1,410.66,2104,409.1Z"/>
  <path class="cls-1" d="M1924.13,344.21c-5.07,12.12-13.47,22-22.15,31.5-13.2,14.54-29.47,24.48-47.67,31.75-38.28,15.27-77.26,28.18-117.71,36.38-4.27-17.3-.26-32.56,10-47.06,16.06-22.75,40.11-32,64.88-40.32,23.29-7.86,47.54-9.35,71.81-10.2C1896.91,345.78,1910.44,343.36,1924.13,344.21Z"/>
  <path class="cls-3" d="M2274.72,415.92c-2.89,0-6.19,1.25-8.1-2-1.08-1.85-4-3.17-2.57-5.9,1.29-2.45,3.87-2.13,6.2-2C2273.33,408.62,2274,412.28,2274.72,415.92Z"/>
  <path class="cls-1" d="M2242.46,780.08c31.2-1.47,62.39-3,93.55-5.37,11.27-.85,22.63-.56,33.94-1,4.5-.15,9.34,1.48,13.31-2.27a2.87,2.87,0,0,1,2.69,0c5.81,3.9,12.37,2.62,18.49,2.17,29.63-2.18,57.36,5.75,84.82,15.24,9.42,3.25,18.86,6.57,27.68,11.35,12.85,7,23.3,16.35,30.41,29.36a32.06,32.06,0,0,1,2.63,24.25c-3.33,12.45-9.9,23.23-20.87,30.7a106.35,106.35,0,0,1-29.62,14c-25.27,7.58-51.22,11.47-77.18,15.33-19.41,2.88-38.36,8-57.73,11.1a45.48,45.48,0,0,1-8.89,1c-15.68-.58-31.21,2.46-46.84,1.89-6-.21-10.63,3.47-16.19,4.13-5.23-10.09-12.2-19-18.73-28.26-2.88-4.07-6.12-8-6.32-13.32,3-1.2,3-2.65.9-5-5.84-6.49-5.86-6.63-1.35-13.85,1.42-2.28.13-3.63-.82-5.23-1-1.76-2.54-1.62-4.21-.9-2.69,1.16-5.41,2.23-8.12,3.33a46.35,46.35,0,0,0-2.15-5.47c-7.57-13.92-9.89-29-11.07-44.6C2239.81,805.61,2241,792.87,2242.46,780.08Zm43.38,53c-.31,3.77-3.45,6.78-2.28,10.78.76,2.6,2.34,3.35,5.13,2.52s2.88-2.07,1.26-4C2287.72,839.73,2289.47,835.91,2285.84,833.06Z"/>
  <path class="cls-1" d="M1352.41,371.69c-2.79.29-5.87,2.14-7.93-1.48,3.16-5.67,7.75-3.16,12.08-2.1l-.06-.07Z"/>
  <path class="cls-1" d="M1356.56,368.11a4.38,4.38,0,0,1,2.86-2.35c.87-.33,1.83-.93,2.55.09a2.42,2.42,0,0,1,.33,1.76c-.43,1.86-1.7,1.34-3,.95a23.93,23.93,0,0,0-2.83-.52Z"/>
  <path class="cls-1" d="M1016.68,1005.66c-.25-.09-.64-.12-.72-.29-.26-.58.07-.92.82-.8.22,0,.38.39.57.59Z"/>
  <path class="cls-3" d="M558.89,456.36c-3.4,7.06-9.9,10.29-16.52,13.37,2.23-7.22,2.23-7.22-2.14-11.31C545.81,452,552.14,452.3,558.89,456.36Z"/>
  <path class="cls-2" d="M940.84,722.15c-6.54,3-13,6.09-22.11,5.57C926.26,722.13,933.63,722.29,940.84,722.15Z"/>
  <path class="cls-3" d="M1673.12,993.2c-.14,2-.59,4.1-3.14,4-1.91,0-3.8-.82-5.72-1.12-2.42-.38-6.17.38-5-3.78.94-3.32,4.13-2.28,6.65-1.59a10.56,10.56,0,0,1,1.78.82C1669.4,992.43,1671.65,991.44,1673.12,993.2Z"/>
  <path class="cls-3" d="M1659,1003c1.34,5.2,4.57,8,2.47,12.23C1654.73,1010.7,1654.73,1010.7,1659,1003Z"/>
  <path class="cls-2" d="M1278,1084.3a22.11,22.11,0,0,1,1-3.83c.59-1.34,1.87-2.12,2.91-.59,2,2.94.44,7.39-3.37,10.29Q1278.23,1087.24,1278,1084.3Z"/>
  <path class="cls-2" d="M1348.22,1103.21c-.26.44-.6,1.75-1.23,1.91-1.68.43-2.25-.88-2.23-2.32a1.81,1.81,0,0,1,1.76-2C1347.66,1100.81,1348.24,1101.58,1348.22,1103.21Z"/>
  <path class="cls-2" d="M1344.46,1114.73c-1.47.44-1.9-.5-1.82-1.41a3.5,3.5,0,0,1,1.12-2.34,1.45,1.45,0,0,1,2.19.83C1346.43,1113.27,1345.39,1114.08,1344.46,1114.73Z"/>
  <path class="cls-2" d="M1284.37,1084.2c.21-4.89,2.33-9.54-.17-15,5.83,3.45,8.66,8.47,7.5,12.34S1287.26,1084,1284.37,1084.2Z"/>
  <path class="cls-2" d="M1281.62,1073.9c0,1.23-.78,1.72-1.87,1.75s-2-.33-2.16-1.42.7-1.75,1.82-1.76A2,2,0,0,1,1281.62,1073.9Z"/>
  <path class="cls-2" d="M1372.07,916.31c-.55,1-1.44,1.58-2.29,1a2.72,2.72,0,0,1-.87-3.37,1,1,0,0,1,1.53-.59C1371.62,914,1372.4,914.93,1372.07,916.31Z"/>
  <path class="cls-2" d="M1382.34,1116.23c-1.32-7.44-.12-8.51,7.64-6.23-1.65,3.06-6.36,2.34-7.22,5.93Z"/>
  <path class="cls-1" d="M1397,323.6c1.76.07,3.26.48,3.12,2.72,0,.29-.28.79-.48.82-2.06.3-2.81-1.1-3.37-2.71C1396.47,324.16,1396.71,323.88,1397,323.6Z"/>
  <path class="cls-3" d="M2109.45,443.46c3.07,3.24,2.61,5.93,1,8.75-1.22,2.13-2.61,3.93-5.34,3.44a3.23,3.23,0,0,1-2.17-1.65c-.94-2.48,1.06-3.54,2.74-4.48C2108,448.23,2108.17,445.77,2109.45,443.46Z"/>
  <path class="cls-3" d="M2104,409.1c-.93,1.56-1,4-3.4,4.33-1.79.21-2.11-1.43-1.93-2.73.28-2.11,1.36-3.82,3.79-3.76C2103.52,407,2104.06,407.93,2104,409.1Z"/>
  <path class="cls-3" d="M2267.61,890.34c-5.87-2.64-8.21-8.08-10.58-13.44-1.19-2.67-2-5.5-3-8.25,2.71-1.1,5.43-2.17,8.12-3.33,1.67-.72,3.17-.86,4.21.9.95,1.6,2.24,2.95.82,5.23-4.51,7.22-4.49,7.36,1.35,13.85C2270.66,887.69,2270.58,889.14,2267.61,890.34Z"/>
  <path class="cls-3" d="M2285.84,833.06c3.63,2.85,1.88,6.67,4.11,9.31,1.62,1.92,1.63,3.13-1.26,4s-4.37.08-5.13-2.52C2282.39,839.84,2285.53,836.83,2285.84,833.06Z"/>
</svg>
