<svg id="レイヤー_1" data-name="レイヤー 1" xmlns="http://www.w3.org/2000/svg" viewBox="0 0 146 123">
  <defs>
    <style>
      .cls-1 {
        fill: #ff556a;
      }
    </style>
  </defs>
  <title>アートボード 1</title>
  <rect class="cls-1" x="15" width="3" height="3"/>
  <rect class="cls-1" x="23" width="3" height="3"/>
  <rect class="cls-1" x="31" width="3" height="3"/>
  <rect class="cls-1" x="39" width="3" height="3"/>
  <rect class="cls-1" x="47" width="3" height="3"/>
  <rect class="cls-1" x="55" width="3" height="3"/>
  <rect class="cls-1" x="63" width="3" height="3"/>
  <rect class="cls-1" x="71" width="3" height="3"/>
  <rect class="cls-1" x="79" width="3" height="3"/>
  <rect class="cls-1" x="15" y="8" width="3" height="3"/>
  <rect class="cls-1" x="23" y="8" width="3" height="3"/>
  <rect class="cls-1" x="31" y="8" width="3" height="3"/>
  <rect class="cls-1" x="39" y="8" width="3" height="3"/>
  <rect class="cls-1" x="47" y="8" width="3" height="3"/>
  <rect class="cls-1" x="55" y="8" width="3" height="3"/>
  <rect class="cls-1" x="63" y="8" width="3" height="3"/>
  <rect class="cls-1" x="71" y="8" width="3" height="3"/>
  <rect class="cls-1" x="79" y="8" width="3" height="3"/>
  <rect class="cls-1" x="15" y="16" width="3" height="3"/>
  <rect class="cls-1" x="23" y="16" width="3" height="3"/>
  <rect class="cls-1" x="31" y="16" width="3" height="3"/>
  <rect class="cls-1" x="39" y="16" width="3" height="3"/>
  <rect class="cls-1" x="47" y="16" width="3" height="3"/>
  <rect class="cls-1" x="55" y="16" width="3" height="3"/>
  <rect class="cls-1" x="63" y="16" width="3" height="3"/>
  <rect class="cls-1" x="71" y="16" width="3" height="3"/>
  <rect class="cls-1" x="79" y="16" width="3" height="3"/>
  <rect class="cls-1" x="47" y="24" width="3" height="3"/>
  <rect class="cls-1" x="55" y="24" width="3" height="3"/>
  <rect class="cls-1" x="63" y="24" width="3" height="3"/>
  <rect class="cls-1" x="71" y="24" width="3" height="3"/>
  <rect class="cls-1" x="79" y="24" width="3" height="3"/>
  <rect class="cls-1" x="119" y="16" width="3" height="3" transform="translate(103 138) rotate(-90)"/>
  <rect class="cls-1" x="127" y="16" width="3" height="3" transform="translate(111 146) rotate(-90)"/>
  <rect class="cls-1" x="135" y="16" width="3" height="3" transform="translate(119 154) rotate(-90)"/>
  <rect class="cls-1" x="143" y="16" width="3" height="3" transform="translate(127 162) rotate(-90)"/>
  <rect class="cls-1" y="120" width="3" height="3" transform="translate(-120 123) rotate(-90)"/>
  <rect class="cls-1" x="8" y="120" width="3" height="3" transform="translate(-112 131) rotate(-90)"/>
  <rect class="cls-1" x="16" y="120" width="3" height="3" transform="translate(-104 139) rotate(-90)"/>
  <rect class="cls-1" x="24" y="120" width="3" height="3" transform="translate(-96 147) rotate(-90)"/>
  <rect class="cls-1" x="15" y="32" width="3" height="3"/>
  <rect class="cls-1" x="23" y="32" width="3" height="3"/>
  <rect class="cls-1" x="31" y="32" width="3" height="3"/>
  <rect class="cls-1" x="39" y="32" width="3" height="3"/>
  <rect class="cls-1" x="47" y="32" width="3" height="3"/>
  <rect class="cls-1" x="55" y="32" width="3" height="3"/>
  <rect class="cls-1" x="63" y="32" width="3" height="3"/>
  <rect class="cls-1" x="71" y="32" width="3" height="3"/>
  <rect class="cls-1" x="15" y="40" width="3" height="3"/>
  <rect class="cls-1" x="23" y="40" width="3" height="3"/>
  <rect class="cls-1" x="31" y="40" width="3" height="3"/>
  <rect class="cls-1" x="39" y="40" width="3" height="3"/>
  <rect class="cls-1" x="47" y="40" width="3" height="3"/>
  <rect class="cls-1" x="55" y="40" width="3" height="3"/>
  <rect class="cls-1" x="63" y="40" width="3" height="3"/>
  <rect class="cls-1" x="71" y="40" width="3" height="3"/>
  <rect class="cls-1" x="15" y="48" width="3" height="3"/>
  <rect class="cls-1" x="23" y="48" width="3" height="3"/>
  <rect class="cls-1" x="31" y="48" width="3" height="3"/>
  <rect class="cls-1" x="39" y="48" width="3" height="3"/>
  <rect class="cls-1" x="47" y="48" width="3" height="3"/>
  <rect class="cls-1" x="55" y="48" width="3" height="3"/>
  <rect class="cls-1" x="63" y="48" width="3" height="3"/>
  <rect class="cls-1" x="71" y="48" width="3" height="3"/>
  <rect class="cls-1" x="15" y="56" width="3" height="3"/>
  <rect class="cls-1" x="23" y="56" width="3" height="3"/>
  <rect class="cls-1" x="31" y="56" width="3" height="3"/>
  <rect class="cls-1" x="39" y="56" width="3" height="3"/>
  <rect class="cls-1" x="47" y="56" width="3" height="3"/>
  <rect class="cls-1" x="55" y="56" width="3" height="3"/>
  <rect class="cls-1" x="63" y="56" width="3" height="3"/>
  <rect class="cls-1" x="71" y="56" width="3" height="3"/>
  <rect class="cls-1" x="15" y="64" width="3" height="3"/>
  <rect class="cls-1" x="23" y="64" width="3" height="3"/>
  <rect class="cls-1" x="31" y="64" width="3" height="3"/>
  <rect class="cls-1" x="39" y="64" width="3" height="3"/>
  <rect class="cls-1" x="47" y="64" width="3" height="3"/>
  <rect class="cls-1" x="55" y="64" width="3" height="3"/>
  <rect class="cls-1" x="63" y="64" width="3" height="3"/>
  <rect class="cls-1" x="71" y="64" width="3" height="3"/>
</svg>
