<?xml version="1.0" encoding="utf-8"?>
<!-- Generator: Adobe Illustrator 23.0.6, SVG Export Plug-In . SVG Version: 6.00 Build 0)  -->
<svg version="1.1" id="レイヤー_1" xmlns="http://www.w3.org/2000/svg" xmlns:xlink="http://www.w3.org/1999/xlink" x="0px"
	 y="0px" viewBox="0 0 83 35" style="enable-background:new 0 0 83 35;" xml:space="preserve">
<style type="text/css">
	.st0{fill:#FF556A;}
</style>
<title>アートボード 1</title>
<rect x="8" class="st0" width="3" height="3"/>
<rect x="16" class="st0" width="3" height="3"/>
<rect x="24" class="st0" width="3" height="3"/>
<rect x="32" class="st0" width="3" height="3"/>
<rect x="40" class="st0" width="3" height="3"/>
<rect x="48" class="st0" width="3" height="3"/>
<rect x="56" class="st0" width="3" height="3"/>
<rect x="64" class="st0" width="3" height="3"/>
<rect x="8" y="8" class="st0" width="3" height="3"/>
<rect x="16" y="8" class="st0" width="3" height="3"/>
<rect x="32" y="8" class="st0" width="3" height="3"/>
<rect x="40" y="8" class="st0" width="3" height="3"/>
<rect x="48" y="8" class="st0" width="3" height="3"/>
<rect x="8" y="16" class="st0" width="3" height="3"/>
<rect x="16" y="16" class="st0" width="3" height="3"/>
<rect x="24" y="16" class="st0" width="3" height="3"/>
<rect x="32" y="16" class="st0" width="3" height="3"/>
<rect x="40" y="16" class="st0" width="3" height="3"/>
<rect x="48" y="16" class="st0" width="3" height="3"/>
<rect x="56" y="8" class="st0" width="3" height="3"/>
<rect x="40" y="24" class="st0" width="3" height="3"/>
<rect x="48" y="24" class="st0" width="3" height="3"/>
<rect x="56" y="24" class="st0" width="3" height="3"/>
<rect x="64" y="24" class="st0" width="3" height="3"/>
<rect x="8" y="32" class="st0" width="3" height="3"/>
<rect class="st0" width="3" height="3"/>
<rect y="8" class="st0" width="3" height="3"/>
<rect y="16" class="st0" width="3" height="3"/>
<rect y="24" class="st0" width="3" height="3"/>
<rect x="16" y="32" class="st0" width="3" height="3"/>
<rect x="24" y="32" class="st0" width="3" height="3"/>
<rect x="32" y="32" class="st0" width="3" height="3"/>
<rect x="40" y="32" class="st0" width="3" height="3"/>
<rect x="48" y="32" class="st0" width="3" height="3"/>
<rect x="56" y="32" class="st0" width="3" height="3"/>
<rect x="64" y="32" class="st0" width="3" height="3"/>
<rect x="72" class="st0" width="3" height="3"/>
<rect x="80" class="st0" width="3" height="3"/>
<rect x="72" y="24" class="st0" width="3" height="3"/>
<rect x="80" y="24" class="st0" width="3" height="3"/>
<rect x="72" y="32" class="st0" width="3" height="3"/>
<rect x="80" y="32" class="st0" width="3" height="3"/>
</svg>
