<?xml version="1.0" encoding="utf-8"?>
<!-- Generator: Adobe Illustrator 23.0.6, SVG Export Plug-In . SVG Version: 6.00 Build 0)  -->
<svg version="1.1" id="レイヤー_1" xmlns="http://www.w3.org/2000/svg" xmlns:xlink="http://www.w3.org/1999/xlink" x="0px"
	 y="0px" viewBox="0 0 2661.2 1311.7" style="enable-background:new 0 0 2661.2 1311.7;" xml:space="preserve">
<style type="text/css">
	.st0{fill:#F97A78;}
	.st1{fill:#ECE7E3;}
	.st2{fill:#FBA6A5;}
	.st3{fill:#F97D7B;}
</style>
<title>アートボード 1</title>
<path class="st0" d="M1588.6,277.5c12.9,6.1,26.6,10.5,40.6,13.1c12.4,2.2,24.9,3.7,37.4,5c36.6,4,69.9,16.2,101.3,35.8
	c26.7,16.7,50.9,35.7,72.2,58.7c19.2,20.7,33.2,44.6,43.5,70.8c0.7,2.2,1.1,4.5,1.4,6.8c-8.8,2.7-17.7,2.3-26.6,0.8
	c-5.6-0.8-11.3-0.9-16.9-0.3c-18.6,1.6-37.1,3-55.7,3.6c-10,0.4-19.9,1.4-29.7,3.1c-15.7,2.6-31.4,5.7-47,9
	c-24.4,5.1-49,9.1-71.9,19.8c-13.6,6.4-26.2,14.4-39.1,22c-24.2,14.1-44.4,32.7-62.3,53.9c-15.3,18.2-25.3,38.7-27.9,62.9
	c-1,9.7-0.9,19.2-1.5,28.9c-17.1,3.6-33,10.2-48.6,17.7c-18,8.7-36.1,17.2-54.7,24.4c-27.3,10.5-55.2,14-84.2,8.5
	c-29.2-5.6-57.8-12.6-84.9-25.2c-23.5-10.9-44-26.1-63.9-42.4c-17.7-14.7-34.3-30.7-52.5-44.7c-18.6-14.3-39.3-19-62.8-17.1
	c-37.1,2.9-72.7,12.3-108.3,21.8c-13.8,3.7-27.6,7.2-41.7,9.7c-23.9,4.3-47.1,1.8-69.7-6.4c-26.4-9.5-51.2-22-73.8-39
	c-31.7-23.9-58-54.4-76.9-89.3c-13.2-24.1-23.6-49.2-28.6-76.2c-5.2-28.1-9.9-56.3-11.5-84.9c-4.1-74.5,10.2-144.8,45.7-210.8
	c10.3-19.1,20.3-38.2,35.1-54.3c22-23.9,45.9-45.4,76.9-57.4c5.6-2.1,11.3-3.8,17-5.6c3.6-0.8,6.4,1.2,9.1,3.1
	c4.7,3.2,10.1,5.1,15.7,5.8c20.7,2.4,41.5,4.5,62.2,6.5c15.6,1.5,31.1-0.4,46.6-2.1c3.9,2.2,8.3,1.9,12.6,2.3
	c25.4,2.2,49-6.6,73.1-12.4c20.1,1.3,40-3.4,60.2-1.7c38.4,7,71,24.3,96.8,53.9c-3.4,3.5-8,4.7-12.3,6.3
	c-20.1,7.7-37.6,18.7-48.5,38c-11.1,19.7-21.9,39.7-26,62.3c-1,5.4-4,7.5-9.2,8.6c-21.5,4.5-42.8,9.6-64.2,14.3
	c-25.6,5.6-51,12-77.1,15.6c-31.5,4.3-57.6,19.6-77.7,44.4c-8.6,10.6-17.3,21.2-22.2,34.1c-2.8,7.4-6.2,14.7-8.8,22.2
	c-11.2,31.6-12.5,63.1-0.8,94.7c8.2,21.9,21.4,39.3,42.3,51.2c19.2,10.9,40.7,17,62.7,17.8c23.4,1.1,45.8,8,68.9,10.4
	c4.1,0.4,5.4,2.1,2.7,5.7c-2.6,3.4,0.1,3.9,2.4,4c2.1,0.1,4-1.1,4.8-3c2.5-6.3,7.6-6.8,13.1-6.5c4.7,0.2,9.4,0,13.9,0.7
	c12.2,1.7,24.3,3.3,36.7,3.3c9,0,17.9-1.8,26.9-1.7c30.8,0.2,60.9-5.3,90.9-11.3c19.9-4,39.8-7.4,59.7-11.6
	c25.6-5.4,50.2-13.3,71.6-29c25.8-18.9,43.7-44.3,58.6-72c1.2-2.4,2-5,2.3-7.6c0.7-5.3,2.9-10.3,3.9-15.5c0.8-4,2.6-5.4,6.5-5.8
	c15.9-1.7,31.7-3.8,47.5-5.6c19.2-2.2,37.7-7.8,56.3-12.4c8.1-2,15.2-6.7,23-9.7s13.5-10.7,23-9.2c0.4,0.1,1.1-0.7,1.4-1.3
	C1573.1,279.9,1580.3,277.5,1588.6,277.5z M1693.9,340.6c-5.5-2.2-8.7,1.4-11.8,4.9c-2.2,2.5,1.1,3.5,1.9,3.8
	C1688.5,350.7,1692.1,347.5,1693.9,340.6c0.3,0.2,0.6,0.4,0.9,0.4c0.3,0,0.5-0.3,0.7-0.5L1693.9,340.6z M840.7,407.6
	c-6.4,2.4-4.6,9.4-7.3,13.9c-1.6,2.6,0.9,5.4,3.3,7.3c1.4-1.1,2.4-2,3.5-2.7c7.3-4.6,7.5-5.3,2.3-12
	C840.8,412.1,840.9,409.8,840.7,407.6c2.6-0.4,5.5-0.6,4.9-4.4c-0.3-0.6-0.8-1-1.4-1.1C839.9,401.8,841.1,405.2,840.7,407.6
	L840.7,407.6z M1636.9,316.9c-0.2-0.3-0.3-0.9-0.4-0.8c-3,0.2-6-5.5-8.9,0.1c-3.5-1.3-6.8-3-10.4-3.7c-2.7-0.5-4.2,1.8-4.2,4.4
	c0,4.2-0.6,8.3-3.3,11.8c1,0.7,2.1,1.4,3.2,1.9c5.5,1.7,11.7,8.2,15.8-1.9c0.1-0.2,1.7,0.1,2.7,0.2c3.8,0.5,3.8-1.4,2.5-4.1
	C1630.9,318.9,1630.9,318.9,1636.9,316.9z M948.2,80.6c0.5,5.8-0.3,11.8,6.5,14.5c1.6,0.6,1.7,2.7,1.1,4.4c-1.2,3.4,1,4,3.6,4
	c6.2,0,11.9-9.5,8.3-14.4C963.1,82.8,958.3,76,948.2,80.6z M950.8,105.2c-0.6,7.1,2.4,13.3,1,20c-0.6,3,1.4,7.2,6.7,6.5
	c4.7-0.6,5.8-3.4,5.9-7.5c0.1-3.2-2.3-6.2-0.8-9.7c0.6-1.2-0.7-2.6-2.2-2.6C957,111.7,955.4,107.1,950.8,105.2L950.8,105.2z
	 M1606.2,496.6c-4.3-1.3-7.7-3.5-11.8-3.1c-2.5,0.2-5.6-1.1-7,2c-1.3,2.7,0.8,5.1,1.7,7.5c1.2,3.1,4.2,4,7.2,4.3
	c3.6,0.4,4.5-2,4.6-4.9S1604.5,500,1606.2,496.6z M1648.8,313.7c2-0.2,4.6,0.1,5.3-2.9c0.5-2.2-5.8-9.1-8.2-9
	c-3.8,0.2-5.1,2.7-5,6.1C1641,312.1,1643.4,313.8,1648.8,313.7L1648.8,313.7z M1645,340.2c9.2,1.8,12.8,0.9,14.5-3.3
	c0.6-1.1,0.2-2.5-1-3.1c-0.1,0-0.2-0.1-0.3-0.1C1654.2,331.8,1649.5,334,1645,340.2L1645,340.2z M1607.8,290.4
	c-2.4,1.4-5,2.8-7.5,4.4c-1.6,1-4.1,1.7-2.6,4.3c1.3,2.3,3.4,2.8,6,1.8c2.9-1.1,4.9-3.3,6.8-5.5c1.1-1.2,0.4-2.5-0.2-3.6
	C1609.9,290.7,1608.9,290.2,1607.8,290.4L1607.8,290.4z M1736.8,353c-2.6,3.5-7.7,3.2-6.9,8.1c0.3,2,2.8,3,4.8,2.1
	C1738.8,361.4,1739.8,358.4,1736.8,353L1736.8,353z M1693,335.4c2.5,0,5.2,0.2,5.1-3.1c-0.1-2.6-2.4-2.7-4.4-2.7
	c-2.8-0.1-6,0.1-6,3.4S1691.2,335.1,1693,335.4L1693,335.4z M1034.7,95.5c0.2,1.5,0.3,3.2,2,3.1c3.4-0.3,5.1-2.8,5.6-5.9
	c0.2-1.2-0.5-2.4-1.8-2.7c-0.2,0-0.3,0-0.5,0C1036.2,89.8,1035,92.3,1034.7,95.5L1034.7,95.5z M1734.2,339.4c-3.3,1.1-6.1,3.2-8,6
	c-0.8,1-1.3,2.3,0,3.4c1,0.9,2.5,0.9,3.6,0.1C1732.4,346.9,1733.8,344.3,1734.2,339.4z M1702,345.6c-2.5-0.1-4.2,1-4.7,3.7
	c-0.2,1.2,0.7,1.8,1.7,1.9c2.6,0.2,4.4-1,4.9-3.7C1704.1,346.4,1703.2,345.9,1702,345.6z"/>
<path class="st0" d="M578.3,1049.6c-6,49.3-22.7,93.9-54.7,132.8c-29.8,36.3-63.6,67.4-105.9,88.1c-34.1,16.7-69.1,31.4-106.9,38
	c-20.4,3.4-41.1,4.1-61.6,1.9c-15.2-1.5-30.4-3.7-45.4-6.6c-16.9-3.3-32.1-10.7-47.6-17.7c-35.3-15.9-66.3-38.4-96.1-62.4
	c-27.3-22-41.9-52.4-49.2-85.9c-9.7-44.1-8.5-88.5-1.3-132.9c6-36.9,15.5-72.9,26.2-108.6c6.3-21,6-41.1-1.2-61.7
	c-6.1-17.6-13.5-34.8-17.9-52.9c-5.8-24.3-8.9-49.1-12-73.8c-2-15.5-3.1-31.1-4.1-46.7c-3-44.4,5.2-86.8,20.9-128
	c3.9-10.2,7.6-20.6,11.4-30.9c2.8,1.7,3.4,4.8,4.6,7.5c14.6,31.9,36.8,56.8,68.5,72.4c20.3,10,41.8,17,63.3,24.2
	c28.5,9.5,57.6,13.1,87.3,12.8c8.3-0.1,16.6-1.6,24.8-1.3c26.7,0.8,53.2-2.2,79.8-2.5c1,0,2-0.1,3-0.2c14.9-2.1,29.8-1.8,44.8-1.6
	c-3.1,40.5,7.8,76.7,33.9,108.1c-2.6,2.6-6.2,2.3-9.3,3.2c-21.9,5.8-42.7,15.2-61.5,27.9c-18.1,12.3-32.8,28.2-47.2,44.3
	c-9.3,10.4-16.1,22.9-21.3,35.9c-8,20-8.6,40.6-3.7,61.6c6.2,26.7,18,51.7,34.6,73.5c8.3,11.3,18.8,20.8,30.9,28
	c22.2,13,45.8,23.1,69.9,31.6C481.5,1043.7,529.2,1051.7,578.3,1049.6z M268.6,883.5c0.1,0.2,0.2,0.5,0.3,0.7
	c0.1,0.1,0.3,0.1,0.5,0.1L268.6,883.5l0-1c0.1-4.1-2.6-6.8-6.1-5.8c-3.7,1.1-0.8,4.4-0.1,6.6s-0.9,5.4,1.9,7.2
	C268.2,889.6,265.5,884.8,268.6,883.5L268.6,883.5z M278.6,922.8c0.1-7.1-1.6-10.6-6.7-12.5c-3.4-1.2-5.6,0.2-4.7,3.5
	c1.2,5.1,3.3,10,6,14.5c0.9,1.4,1.9,2.8,3.9,2.1c1.5-0.5,1.5-2,1.6-3.3C278.7,926.1,278.6,925.1,278.6,922.8L278.6,922.8z
	 M153.6,1204.3c-1.5,6.2,2.6,8.6,6.2,11.3c1.9,1.5,4.1,3,5.9,0.4c1.4-2,1.2-4.7-0.6-6.4C162,1206.6,158,1204.7,153.6,1204.3
	L153.6,1204.3z"/>
<path class="st1" d="M1506.5,671.1c0.6-9.6,0.5-19.2,1.5-28.9c2.5-24.2,12.5-44.7,27.9-62.9c17.9-21.2,38.1-39.8,62.3-53.9
	c12.9-7.6,25.5-15.6,39.1-22c22.9-10.7,47.6-14.7,71.9-19.8c15.6-3.2,31.3-6.4,47-9c9.8-1.7,19.7-2.7,29.7-3.1
	c18.6-0.6,37.2-2,55.7-3.6c5.6-0.6,11.3-0.5,16.9,0.3c8.9,1.5,17.8,1.9,26.6-0.8c14,1.2,27.7-2.5,41.7-2.1c25.1,0.9,50.1,4,74.6,9.4
	c21.3,4.7,42.8,8.3,64.4,10.8c17.4,1.9,34.5,6.2,51.3,11.2c13,3.9,26.4,7.5,38.4,13.6c24.1,12.3,49.1,23.5,69.2,42.2
	c2.2,2.1,5,3.3,7.6,4.7c0.3,1,0.3,2.2,0.9,2.8c10,11.2,15.7,24.6,20.2,38.6c3.8,11.7,6.6,23.7,8.4,35.9c0.7,4.7,2.8,6.6,7.4,7.6
	c11.7,2.5,23.5,4.5,35.5,4.8c22.3,0.5,44.8-1,66.8,3c27.2,4.9,54.8,6.3,82.2,9.1c22.3,2.3,44,6.2,64.6,15.7
	c24.5,11.4,47.6,24.2,60.8,49.3c1.1,2.2,2.7,3.9,5.5,3.5c-0.1,4.3,0.8,8.5,2.6,12.3c4.3,9,6.8,18.7,7.5,28.7
	c0.4,7.9,2.4,15.7,1.8,23.7c-1.1,14.2-1.8,28.7-8.1,41.5c-7,14.2-10.7,29.9-20.2,42.8c-2,2.8-0.6,6.8-3.8,8.9
	c-3.5,1.6-5.4,4.8-7.7,7.6c-12.3,15.3-27.2,28.4-44.1,38.4c-18.1,10.9-38.2,17-58,23.5c-27.7,9.1-56.6,11.6-85.6,12.4
	c-40.6,1.2-81.2-1.3-121.8,1.8c-26.5,2-53,3.7-79.5,5.9c-30.2,2.5-60.5,2.9-90.8,2.3c-4.7-0.1-9.3-1-13.9-1.1
	c-12.9-0.5-25.7-4-38.7-2.9c-7.2-3.5-15-5.5-22.7-7.2c-21.8-5-40.8-15.5-58.9-28c-11.4-7.9-23.1-15.4-33.8-24.4
	c-15-12.6-26.8-27.3-34.5-45.5c-7.1-17.1-2-14.6-20.8-14.8c-13.3-0.1-26.6-0.2-39.9,0c-13.3,0.2-26.4-1.7-39.5-3.6
	c-12.8-1.8-25.6-2.7-38.4-4.2c-14.8-1.8-29.6-4.1-43.8-8.4c-27-8.2-54.3-15.2-79.5-28.7c-26.8-14.4-51.1-32.1-72-54.3
	c-9.6-10.2-16.2-22.6-21.7-35.4C1512.3,703.8,1508.1,687.6,1506.5,671.1z M2159.5,726.6c4.7,0.7,6.3-3.3,8.1-6.1
	c7.3-11.9,7-13.8-6.7-14.9c-2.3-0.1-4.6-0.3-6.9-0.6c-14-2.9-28.5-3.1-42.6-0.6c-14.4,2.7-29.6,2.4-43.4,8.3
	c-5.3,2.2-11.2,0.4-16.8,1.5c-13.1,2.6-25.5,7.2-38.1,11.2c-18.4,5.9-35.3,15.6-49.6,28.5c-4.5,4-9.4,8-13.2,15
	c13.6-2.8,25.9-2.2,37.9-2.9c23.2-1.4,46.5-0.9,69.7-2.5c8.9-0.6,17.8-0.6,26.8-1.6c22-2.5,41.8-10.2,60.7-20.9
	C2151.2,737.7,2157.7,734.3,2159.5,726.6z M1594.7,686.6c0.7,6.6,3.9,11.9,8.4,16.5c14,14,30.2,24.9,47.4,34.4
	c17.6,9.8,37.1,14.3,56.2,20.1c15.9,4.8,32.1,8.7,48.6,9.7c15.6,0.9,31,3.2,46.4,4.9c18,1.9,35.9,0.5,53.8,1.3
	c5.1,0.2,7.2-2.6,7.1-7.4s2.1-9,3.5-13.4c5-15.6,15.1-28.3,25.3-40.3c17.3-20.3,38.4-37,62.1-49.2c17.5-9,36.3-14.8,54.6-21.8
	c4-1.5,8.2-3.3,12.4-3.7c17.1-1.7,33.5-6.6,50.4-9.1c10.1-1.5,20-4.7,30.3-5c10.6-0.3,21.3,1,31.8-1.8c2.3-0.6,4.7-0.5,6.9,0.2
	c9.6,3.3,20-0.1,29.6,3.5c1.9,0.7,4.8,1,6.3-1.5s-0.1-4.7-1.3-6.5c-5.2-6.8-11.6-12.5-18.9-16.9c-34.4-21-71.9-32.1-111.5-36.9
	c-18.7-2.3-37.2-5.7-55.8-9.2c-13.7-2.5-27.3-5.7-41.1-6.6c-16.2-1.1-32.6-0.2-49-0.2c-3.2-0.2-7.3-2.3-9.3,1
	c-4.6,7.5-11.3,5.3-16.9,3.6c-8.8-2.7-17.6-3.3-26.6-3c-19.3,0.7-38.5,1.5-57.7,2.6c-7,0.4-13.9,1.3-20.7,2.6
	c-18.6,3.5-37,7.7-55.7,10.8c-42.3,7.2-76.7,28.3-107,57.7c-15.8,15.4-18.8,33.5-14.2,54C1590.8,680.6,1591.6,684.1,1594.7,686.6z
	 M2064.4,895.6c13.5,2.4,27.2,1.8,40.8,2c18.3,0.3,36.6-1.1,54.8-2.5c12.3-0.9,24.6-0.9,36.8-2.2c25.5-2.6,51-4.4,76.6-5.2
	c37.9-1.2,75.9,1.5,113.9-1.7c24.1-2,46.7-8.8,69.7-15.9c29.4-9.1,63.1-57.1,57.6-87.9c-2-11.5-5.7-21.2-16-27.2
	c-11-6.3-22.4-11.6-35.1-13.8c-11.2-1.9-22.4-2.9-33.6-3.9c-15.6-1.4-31.2-2-46.6-4.5c-22.7-3.5-45.6-5.5-68.5-5.8
	c-17.3-0.4-34.5-2-51.5-4.8c-9.4-1.5-9.4-1.6-12.4,7.8c-0.6,1.9-1.2,3.8-1.9,5.7c-4.2,10.8-7.7,22-15,31.4
	c-17.5,22.9-39.6,40-65.4,52.9c-14.7,7.3-30.3,11.9-45.5,17.6c-2,0.1-4.1-0.3-6,0.2c-26.5,7.7-53.9,5.8-80.9,7.1
	c-23.2,1.1-46.4,2.3-69.6,2.6c-1-0.1-2,0-3,0.2c-3.1,1-3.4,3.2-1.7,5.4c1.2,1.5,3.1,2.5,4.7,3.6c8.2,5.5,16.6,10.9,24.7,16.6
	C2013.2,889,2038,894.7,2064.4,895.6L2064.4,895.6z"/>
<path class="st1" d="M1588.6,277.5c-8.3,0.1-15.6,2.4-20.7,9.4c-0.4,0.5-1,1.3-1.4,1.3c-9.5-1.5-15.2,6.3-23,9.2s-14.8,7.7-23,9.7
	c-18.7,4.6-37.1,10.1-56.3,12.4c-15.8,1.8-31.7,3.9-47.5,5.6c-3.9,0.4-5.8,1.8-6.5,5.8c-1,5.2-3.2,10.1-3.9,15.5
	c-0.3,2.7-1.1,5.2-2.3,7.6c-14.9,27.7-32.8,53.1-58.6,72c-21.4,15.7-46.1,23.6-71.6,29c-19.8,4.2-39.8,7.7-59.7,11.6
	c-30,6-60.1,11.5-90.9,11.3c-8.9-0.1-17.8,1.7-26.9,1.7c-12.4,0-24.5-1.6-36.7-3.3c-4.6-0.6-9.3-0.4-13.9-0.7
	c-5.6-0.3-10.7,0.3-13.1,6.5c-0.8,1.9-2.8,3.1-4.8,3c-2.4-0.2-5.1-0.6-2.4-4c2.8-3.6,1.4-5.3-2.7-5.7c-23.1-2.4-45.5-9.3-68.9-10.4
	c-22-0.8-43.5-7-62.7-17.8c-20.9-11.9-34.2-29.3-42.3-51.2c-11.8-31.6-10.4-63.1,0.8-94.7c2.7-7.5,6-14.8,8.8-22.2
	c4.9-12.9,13.6-23.5,22.2-34.1c20.1-24.9,46.1-40.2,77.7-44.4c26.1-3.5,51.5-10,77.1-15.6c21.4-4.7,42.8-9.8,64.2-14.3
	c5.2-1.1,8.2-3.2,9.2-8.6c4.2-22.6,14.9-42.6,26-62.3c10.9-19.3,28.4-30.3,48.5-38c4.3-1.7,8.9-2.8,12.3-6.3c9-1.3,17.2-5,25.6-8
	c15.3-5.5,30.6-10.7,47-12.2c9.8-0.9,19.7-1.7,29.4-4.7c7.2-2.2,15.1-2,22.6-2.5c11.7-0.8,22.8-4.2,34.3-5.3
	c8.9-0.8,17.7-2.5,26.6-3c13.2-0.8,26.4-2.5,39.3-5.2c11.3-2.4,22.8-3.8,34.4-4.3c9.6-0.1,19.2,0.5,28.7,1.9
	c14.7,2,29.4,4.2,44.2,5.7c16.3,1.8,33.3,1.1,48.9,7.4s31.2,13.2,44,25c1.5,1.3,3.1,2.5,4.8,3.5c14.6,9.5,26.2,22.9,33.5,38.7
	c5.6,11.8,10.4,24.2,10,37.9c-0.5,16.6-0.1,33-3.5,49.6s-10.7,30.6-19.4,44.4c-0.7,1.1-2.2,1.8-2.6,2.9c-6.6,17.1-20.4,27-34.8,36.6
	c-5.3,3.5-10.3,7.2-16.4,9.1C1589.9,273.5,1588.5,275.4,1588.6,277.5z M1278.4,195.7c-6.6-0.6-12.6,0.8-16.7,6.4
	c-1.2,1.7-3.3,4-1.5,6.2c1.7,1.9,4.2,1.4,6.2-0.3c0.5-0.3,1-0.5,1.5-0.6c3.7,5.2-1.6,6.4-6.1,9.1c7.2,1.2,12.4,1.8,15.5-3
	s6.9-6,13.7-3.9c-4.3-6.6-5-12.5-6.8-18c-1-3.1-1.8-4.9,2.2-7c4.3-2.3,6-7.7,9-11.7c1.3-1.8,0.9-3.8-0.6-5.4c-1-1.1-2.9-1.9-3.4-0.8
	c-2.3,4.8-14,3-9.3,13c0.5,1-0.8,3.6-1.9,4.3c-5.2,3.3-2.3,7.4-1.5,11.4L1278.4,195.7z M1290.9,229.6c-1.3,4.9-5.2,4.2-8.9,4.3
	c-20.8,0.7-41.7-1.9-62.5-0.5c-3.4,0.2-7.1-0.8-10.6,1.8c3,3.6,6,6.3,9.9,7.2c11.6,2.9,23,6.2,35,7.5c18.9,1.9,37.9,1,56.8,1.8
	c2.9,2.4,6,2.2,9.4,0.6c-0.9-5.8-5.2-12.8,5-14.7c0.7-0.1,1.4-1.5,1.7-2.4c2.6-8.4,9.4-13.1,16.2-17.5c2.4-1.6,2.1-2.8,1.7-4.7
	c-0.4-2.3-1.8-3.2-4.1-3.5c-4-0.5-7.2,1.4-10,3.7c-3.9,3.3-7.2,2.5-10.7-0.8c0.8-2.9,2.6-5.5,2.9-8.9c0.3-4.1,3.1-7.8,6.7-10.1
	c2.4-1.6,5.9-1.4,7.9-4c3.5-4.5-5.5-3-3.5-7.3c0.9-2-1-3.8-3.2-3.9c-2,0-3.9,1.1-4.9,2.9c-4.3,6.9-6.2,8-14.4,8.7
	c-0.7,0-1.3,0.2-1.9,0.6c-4,3-7.1-4.7-10.9-1c-3.4,3.2-0.6,8.5-3.5,12.1c-3.2,3.9-0.2,5.4,2.7,7.5c3.6,2.7,9.2,1,12.8,6.4
	c-9.1-0.6-12.2,8.9-20.3,9.4C1288.5,224.9,1288.9,228.2,1290.9,229.6L1290.9,229.6z M1374.5,211.7c0.7,3.6-0.6,5.3-4.5,6.1
	s-7.4,2.7-6.2,8.3c0.8,3.6-2.2,7.6-4,9.3c-3,3-8.3,3.8-12.8,4.8c-1.3,0.3-2.2-2.2-1.7-4c1-3.8,2.8-7,8.1-7.9
	c-9.4-4.4-11-4.1-12.2,3.2c-0.7,4.1-2.1,5.3-5.9,6.3c-5,1.4-5,3.4-0.8,7.9c1,1,1.9,1.8,1.5,3.3c-0.7,2.2-1.9,4.8,1.2,5.9
	c2.1,0.8,5,1.3,6.7-0.4c3.3-3.3,8.3-2.3,11.7-5c2.7-2.2,5-1.8,6.7,1c2.2,3.8,5.6,2.7,8.8,2.7c4.3,0,2.2-5,4.8-6.4
	c7.9,5.2,10.1,4.7,14.4-3.4c0.8-1.4,0.9-3.2,2.5-4.1c4,10,4.1,10.6,14.9,9.8c25.4-1.8,50.7-5.5,75.6-11c12-2.7,23.7-6.4,33.3-14.6
	c17.4-6.6,34.2-14.5,50.4-23.6c3.4-1.9,6.1-4.8,8.8-7.8c11.3-12.5,15.2-27.6,16.8-43.6c0.9-9.1,0.4-18.4-5.8-25.6
	c-10.1-11.7-22-21.2-37.5-24.9c-11.3-2.7-22.7-4.9-34.3-4.5c-9,0.3-18-1.1-26.6-2.8c-20.9-4.2-41.3-3.3-62,0.4
	c-11.4,2.1-22.9,3.5-34.4,4.2c-8.3,0.5-16.4,2-24.6,3.1c-14.4,1.9-28.6,5.5-43,6.8c-17.1,1.6-34.1,4.3-51.1,6.6
	c-9.3,1.3-18.8,3.8-26.7,9.8c-3.6-0.5-7.4,0-10.7,1.5c-6.8,2.8-13.4,6-20.4,8c-10.7,3-16.4,10.8-21.2,19.8c-1.8,3.3,0.1,9.1,4,11.4
	c2.9,1.7,6.9,2.2,8.9-1.1c2.7-4.3,6.5-3.9,10.4-3.9c5.3,0,10.6,0,15.9,0.1c12.2,0.2,12.2,0.2,17.2,11.5c0.3,0.8,0.8,1.1,2.2,0.6
	c0.9-1.3,3.6-2,1.3-5.1c-3-4.1-0.6-6.1,3.5-6.7c1.7-0.2,3.3-0.2,5,0c16.2,1.1,32.2,1.3,48.2,5.7c27.4,7.5,50.7,19,62,47.2
	C1373.1,211,1373.9,211.3,1374.5,211.7L1374.5,211.7z M1009.1,283.7c-4.1-3.1-8.2-4.6-9.6-7.5c-2.3-4.7-4.9-4.3-8.7-3.2
	c-2.3,0.5-4.6,0.8-6.9,0.8c-19.5,1.4-36.4,8.1-48.1,24.5c-11.3,15.8-18.7,33.5-18,52.9c0.8,21.2,6,30.2,28,35.1
	c2.6,0.7,5.2,1.1,7.9,1.2c16.4,0.1,32.3,3.2,48.3,6.8c12.3,2.8,24.9,4.5,37.5,4.9c13.6,0.4,27.2-0.7,40.6,2.3
	c4.8,1.1,9.8,2.6,14.8,1.7c11.2-2,22.6-1,33.9-1.8c12.9-0.9,25.9-1.1,38.6-3.6c19.2-3.9,38.6-7,57.8-10.8s38.7-6.2,57.1-13.4
	c20.5-7.9,34.3-22.9,46.5-41.6c-17.6-3.7-34.1-4.7-50.7-4.7c-13.6,0.1-27.3,0.8-40.8-2c-10.7-2.3-21.4-4.7-32.2-6.5
	c-18.4-3-33.2-12.6-46.5-24.9c-13.4-12.5-25.5-26.2-34.5-42.3c-3-5.4-6.6-6.6-12.3-5.3c-30.8,7-61.6,13.9-92.3,20.9
	c-2.9,0.7-6,0.4-8.5,2.5c-3.5,2.9,1.1,6.2-0.6,9.2C1009.7,279.8,1009.7,281.1,1009.1,283.7L1009.1,283.7z M1310.4,403.1
	c4.4-3.2,3.6-9.3,8.8-11.1c1.4-0.5,1.2-2.5,0.3-3.4c-2.4-2.7-4.7-5.7-7.7-7.5c-3.5-2.1-2.5,3-4.4,3.7c-0.6,0.2-1.2,0.3-1.9,0.3
	c-6.7,0.6-13.1,2.5-19,5.7c-5.2,2.8-5.5,3.8-1.9,8.4c0.9,1.2,3.6,2.8,2.5,3.4c-6.9,3.3-2.1,7-0.7,10.4c2.4,5.7,5.3,6.1,9.2,1.6
	c0.9-1,0.2-4,2.7-3.1c6.6,2.3,5.3-1.2,5.6-5.7c0.4-4.9-1.6-10.7,3.5-16c-0.2,3,7.5,3,0.8,7.1C1307.2,397.4,1308.3,401,1310.4,403.1z
	"/>
<path class="st0" d="M1006.5,868.4c19.8,3.1,38.7,9.8,57.5,16.3c22.3,7.7,44.4,16.1,66.6,24.1c20.3,7.3,41.3,12.6,62.3,17.6
	c12.6,3,25.8,1.6,38.8,1.7c1.9,2.4,3.8,5.2,6.6,0.8l9.7-1c1,2.2,1.9,4.6-0.2,6.5c-5.4,4.8-3.7,9.4,0.4,13.5c2,1.9,1.6,4.6,3.6,6.8
	c1.1-3.4,5.8-6.5,4.2-8.6c-3.3-4.3,0.6-5,1.9-7.2c2-3.4,3.8-6.9,5.7-10.4l4.6,0.1c0.2,0.6,0.3,1.4,0.7,1.8c2.7,2.3-0.3,8.9,4.6,8.2
	c4-0.6,2.6-6,3-9.5l3.8,1.2c0.1,3.3,0.4,6.5,2.5,9.3c1.1,1.5,2.5,2.4,4.1,1.5c2.2-1.2,0.9-2.8-0.1-4c-1.9-2.2-4.4-4.1-2.2-7.5
	c3.4-2.7,6.7-1.5,10,0.2c1.8,9-2.9,15.6-8,22c-0.3-0.4-0.4-0.9-0.5-1.4c0-1.3-0.9-2.5-2.1-3c-1.7-0.8-3.8-2.6-4.9,0.1
	c-1.2,3,1.1,4,3.8,4.1c-0.5,6.7-7.1,7.6-10.7,12.6c-2.2-4.2-1.9-7.3-1.5-10.5c0.2-1.8,1.8-4.1-0.6-5.3c-2.1-1.1-4.7-1-6.7,0.3
	c-2.2,1.9-4.3,4-6.2,6.3c-3.2,3.5-4.2,6.3-2.3,10.9c1.5,3.8,3.7,8.6,1.8,12.3c-3.4,6.5,0,12.6-1.5,18.9c6.3-0.5,9.4-3.1,9-9
	c0.2-0.3,0.5-0.6,0.7-0.8c2.3,1,3.8,1.6,2.5-2.1c-0.8-2.4,4-2.8,2.6-5.8c-1.6-3.3-4-2.4-6.7-1.8c-2.6,0.6-3-2-3.7-3.8
	c-0.8-2.3,1.3-2.8,2.7-3.4c5.6-2.6,11.3-5.2,17.4,2.3c-1.2-5.7,1.5-7,3.7-9.1c2.9-2.8,7.7-4.6,7.1-9.9c4-0.3,6.3,1.2,6.2,5.6
	c-0.1,2.6-0.3,5.7,3.3,6.2c3.6,0.5,6.9,0.7,9.4-3.4c4-6.5,8.7-12.5,7.4-20.8c4.3,0.6,7.8-0.1,8.1-5.4c4.4-0.6,8.7-0.8,12.7,1.5
	c-3.2,8.4-7.1,16.7-3.8,26.5c5.1-1.8,8.9-4,8.4-9.9c-0.1-1.6,0.3-4.4,1.7-4.2c5.7,0.5,9-5.6,14.6-4.9c4,4,9.5,5.8,14.2,8.1
	c21.8,10.6,37.8,26.9,50.7,46.9c0.6,1.2,1.1,2.4,1.4,3.7c-4.1,0.5-7.7-6.4-12.2-1c-0.1,0.1-1.3-0.4-1.5-0.9
	c-2.4-6.7-6.5-1.9-9.7-1.3c-3.7,0.7-5.8,3.6-4.2,7.4c1.4,3.5,4.1,6.3,8.3,5.5c1.8-0.3,3.4-1.8,5.2-2.7c1.5-0.8,3.8-1.6,4.5-0.1
	c3.4,6.8,5.9,4.9,9.2-0.2c0.9-1.4,3.5,1.2,5.4,1.4c4.4,12.8,7.6,25.4,7.6,39.6c0,30.7-13.9,54.5-33.4,75.6
	c-34.6,37.3-77.2,60.6-128.2,66.8c-19.2,2.3-38.1,5.9-57.1,8.9c-16.4,2.6-33.1,3.4-49.6,4.8c-22.2,1.9-44.1,5.9-65.8,11
	c-35.6,8.3-71.5,15-108.2,17.6c-62,4.4-117.9-12.7-171-42.4c-23.9-13.4-46.9-28-65.2-48.9c-19.9-22.7-34.9-47.8-39.4-78.3
	c-1.1-6.2-1.4-12.6-0.9-18.9l10,0.1c29.6,0.2,59-3.4,88.6-4.3c6.6-0.2,13.2-1.5,19.7-2.8c25.8-4.9,50.9-12.9,74.8-23.8
	c20.6-9.5,38.8-21.5,54.4-37.7c17.8-18.5,30.7-39.8,36.7-65C1006.3,899,1007,883.8,1006.5,868.4z M1236.8,1021.7
	c8.9,4,8.9,4,3.1,10.8c-0.7,0.7-1,1.7-0.9,2.6c0.2,1.4,1.4,2.4,2.8,2.3c3,0.2,6,0.1,7-3.8c0.8-2.8,2.3-5.5,3.2-8.3
	c1.2-3.6,6.8-7.2,10.2-6.3c1.6,0.4,3.2,0.9,4.8,1.4c1.6,0.7,3.4,0.1,4.3-1.4c1.2-1.6,1.4-3.8,0.5-5.7c-0.8-1.5-2.7-2.2-4.3-1.6
	C1257.5,1014.4,1246.7,1014.8,1236.8,1021.7z M1342.4,999.5c-8.9,1.7-16.8,1.6-17.5,11.9c-0.1,1-0.7,1.8-1.6,2.2
	c-2.4,0.6-3.6,1.4-2.2,4c0.9,1.7,2.9,2.3,4.6,1.5c0.2-0.1,0.4-0.2,0.5-0.3c5.3-3.4,12.7-4.8,12.6-13.5
	C1338.9,1003.9,1340.5,1002.5,1342.4,999.5z M1309.7,1006.3c1.7-6.3,1.7-6.3-2.1-9.8c-1.9,3.2-0.3,7.3-2.5,10.3
	c-1.5,2,1.9,4.9-0.8,6.2c-5.8,2.9-2.2,3.7,0.8,5c1.4,0.6,1.7,2.9,5.2,2.7c-1.1-5.8,5.1-7.5,7.9-11.4
	C1315.6,1006.2,1311.9,1008.8,1309.7,1006.3L1309.7,1006.3z M1306.4,1080.9c-4.8,2.7-5.4,6.8-8.6,7.9c-6.7,2.3-3.9,7.1-3.2,11.4
	c0.2,1.7,1.5,3,3.2,3.2c2,0.5,4-0.6,4.7-2.5C1305.3,1095,1305.7,1088.7,1306.4,1080.9L1306.4,1080.9z M1236,951.8
	c-6,4.1-8-0.3-10.7-3.2c-1-1-2.5-1-3.5-0.1c0,0,0,0-0.1,0.1c-1.1,0.9-1.4,2.4-0.5,3.6c2.6,3.3,5.2,7.1,9.9,7.2
	C1234.8,959.5,1233.7,954.9,1236,951.8L1236,951.8z M1210.5,1009.9c4.4-1.5,7.8,2.5,10.9-0.8c3.1-3.3-1.2-6.5-1.4-10
	c0-0.8-1.1-1.5-1.7-2.2C1217.9,1001.9,1212,1003.1,1210.5,1009.9L1210.5,1009.9z M1379.8,985.7c-4.1,1.9-7.7,3.2-10.9,5.1
	c-2.6,1.5-1.9,3.9-0.5,6c1.7,2.6,2.5-0.4,3.8-0.7C1377.4,994.9,1379.7,991.6,1379.8,985.7L1379.8,985.7z M1249.7,1000.2
	c-3.9-0.8-7.2-1.3-10.4-0.5c-2.3,0.6-3,2.4-2,4.6c0.8,1.6,2.4,3,3.8,1.4C1243.3,1003.1,1247.7,1004.8,1249.7,1000.2L1249.7,1000.2z
	 M1201.3,940.4c0.4,4,2.9,5.9,4.7,8.2c1.2,1.4,3,0.9,4.4-0.3c1.8-1.6,1-3.2-0.7-3.9C1207,943.3,1205.6,939.9,1201.3,940.4
	L1201.3,940.4z M1287.8,1041.2c1.7-0.5,3.2-1.5,2.4-3.4c-0.8-2.2-0.6-5.9-4.3-5.4c-2,0.3-3.2,2.4-2.9,4.6
	C1283.3,1039.6,1285.1,1041,1287.8,1041.2L1287.8,1041.2z M1289.2,1019.7c0.8,2.4,3.1,3,5.2,3.3c1.7,0.3,2.3-1.3,2.2-2.5
	c-0.3-2.5-1.6-4.5-4.4-4.2C1290.4,1016.4,1289.1,1018,1289.2,1019.7z M1186.2,973.3c1.8-0.2,3.4-1.5,3.9-3.3c0.3-0.7,0-1.5-0.7-1.8
	c-0.2-0.1-0.5-0.1-0.7-0.1c-2.2,0.4-4.8,0.6-5,3.6C1183.5,972.6,1184.6,973.2,1186.2,973.3L1186.2,973.3z M1332.6,1089.2
	c2.9,0.1,3.8-1,3.8-2.9c0.1-1-0.6-1.9-1.5-2.1c-2-0.4-3,1-3.4,2.6c-0.4,0.9,0.1,2,1,2.3C1332.4,1089.2,1332.5,1089.2,1332.6,1089.2z
	 M1213.9,974.5c0.2,1,1,1.8,2,1.9c1.6,0.4,3.3-0.4,3.9-2c0.4-0.7,0.1-1.6-0.6-2c-0.1-0.1-0.3-0.1-0.4-0.2
	C1216.7,972.1,1215.2,973.2,1213.9,974.5L1213.9,974.5z M1216.6,946.6c0.4-0.3,1.2-0.6,1.2-0.9c0-0.6-0.2-1.1-0.7-1.4
	c-1-0.3-1.8,0.2-1.7,1.3C1215.5,946,1216.2,946.3,1216.6,946.6L1216.6,946.6z"/>
<path class="st0" d="M2584.7,727.7c-2.8,0.3-4.3-1.4-5.5-3.5c-13.2-25.1-36.4-37.9-60.8-49.2c-20.5-9.6-42.3-13.4-64.6-15.7
	c-27.4-2.8-55-4.2-82.2-9.1c-22-4-44.5-2.5-66.8-3c-11.9-0.3-23.7-2.3-35.5-4.8c-4.6-1-6.7-2.8-7.4-7.6c-1.8-12.2-4.6-24.2-8.4-35.9
	c-4.6-14-10.2-27.4-20.2-38.6c-0.6-0.7-0.6-1.9-0.9-2.8c9.9-10.5,22.8-17.1,34.6-24.8c8.8-5.8,13.6-13.7,17-22.6
	c5-12.9,12.2-25.3,11.6-39.8c7.1-14.5,4.3-30.5,6.7-45.8c3.6-23,6-46.5,14.2-68.3c14.6-39.3,31.6-77.7,56.5-112
	c9.1-12.4,20.7-22.8,34.1-30.3c26.2-14.9,53.4-27.5,83.7-31.1c34.7-4.1,68.9-3.6,101.8,11.1c21.7,9.7,39.3,24.2,52.1,43.7
	c10.2,15.6,16.7,33.2,16.3,52.6c-0.2,14.3,1.1,28.7-2.4,42.7c-2.9,11.5-6.6,22.7-10,34c-5.8,19.3-15.1,36.6-25.1,53.5
	c-8,13.5-15.8,27-22,41.3c-9,20.9-12.4,42.8-6.9,65.3c2.4,10,5.6,19.8,8.6,29.7c9,29.7,12.1,59.8,6.3,90.6
	c-2.2,11.7-3.2,23.7-6.6,35.2C2598.1,698,2592,713.1,2584.7,727.7z M2262.7,557.5c-1.1,2.7-2.9,5.5,1.2,7.2c0.6,0.2,1.2,0,1.7-0.4
	C2267.6,560.8,2265.2,559.1,2262.7,557.5c1.5-2,3.2-4,4.7-6.1c0.8-1.1,0.9-2.6-0.6-3.3c-0.9-0.3-1.8-0.2-2.6,0.1
	c-1.1,4.9-6.5,5.8-9.2,9.2C2258,560.2,2260.2,556.8,2262.7,557.5L2262.7,557.5z M2529.5,616.5c2.9-0.2,2.7,2,3.6,3.1
	c1,1.3,2.2,1,3.1-0.3c2.3-3.5-3.6-5.4-1.6-8.8c-2.7-1.5-5.6-1-8.4-0.8c-3.1,0.2-3.9,3-3.2,5.1c1.6,5.1-5.2,8.6-2,14.2
	c0.6,1.2-6.3,6-3.2,8.8c4,3.6,5.8-4.3,8.5-4.2c3.3,0.2,2.2-1.5,2.3-2.6C2529,626.1,2529.2,621.2,2529.5,616.5L2529.5,616.5z
	 M2569.5,487.1c1-3.5,1.8-5.9,2.3-8.4c2-8.9-2.1-13-13.8-11.5c3.5,2.2,8.2,3.7,3.8,7.8c-0.9,0.8,0,2.9,1.2,3.3
	C2566.8,479.6,2566,484,2569.5,487.1L2569.5,487.1z M2363,541c-6.9-1.6-10.9,3-16,3c-1.4,0-2.2,1.4-1.9,2.8c0.3,1.9,2,3.2,3.4,2.5
	C2353.1,546.9,2358.6,546.1,2363,541L2363,541z M2445.9,415.9c-3.4,2.5-5,4.9-3.6,9.9C2445.3,422.5,2447.2,420.2,2445.9,415.9z"/>
<path class="st0" d="M2024.3,973.5c13.1-1.1,25.8,2.4,38.7,2.9c4.6,0.2,9.2,1,13.9,1.1c30.3,0.6,60.6,0.2,90.8-2.3
	c26.5-2.2,53-3.9,79.5-5.9c40.6-3.1,81.2-0.6,121.8-1.8c29-0.8,57.8-3.3,85.6-12.4c19.8-6.5,39.9-12.6,58-23.5
	c16.9-10.1,31.8-23.1,44.1-38.4c2.3-2.9,4.2-6,7.7-7.6c0.2,2,0.3,4,0.5,5.9c-1.4,1.9-3.2,3.9,1.1,4.2c6.9,25.6,3.3,50.8-2.2,76
	c-0.5,2.2-1.3,4.5-3.6,5.6c-7.2,1.4-14.3,2.8-19.6-4.4c-0.8-1-2.2-1.1-3.6-0.6c-3,1-4.6,3.6-6.7,5.7c5.8,3.1-1.8,7.9,1.4,11.4
	c1.5,1.6,3.4,2.5,5.3,1.4c2.2-1.3,3.8-3.5,6.9-2.9c3.7,0.8,1.3,5.9,5.4,6.6c2.1-3.2,5-5.8,9.5-5c0,5.7-2.4,10.9-3.6,16.4
	c-0.4,2.3-2.2,4.2-4.5,4.8c0-2,0-3.9,0.2-5.8c0.5-4.6-0.9-6-4.8-4.9c-5.4,1.6-6.1,4-3,9.2c1.7,2.8,2.9,5.9,6.7,6.5
	c0.8,3.3,0.2,6.8-1.7,9.6c-2,0.2-4.1-0.1-5.8,0.7c-4.7,2.1-9.6,0.2-14.2,0.1c-3.2,0-0.5-6.6-3.2-9.4c-0.4-0.4-0.9-0.8-1.7-1.4
	c-2.1,7,0.8,13.5,1.4,20.1c-0.1,3-0.2,6.1,4.3,6c1,0,1.9,0.1,2.9,0.3c2.2,0.8,0.8,1.6,0.1,2.7c-1,1.6-2,3.3-2.8,5
	c-4,8-7.5,7.4,1.3,16.1c0.1,1.6-0.7,3-2.1,3.9c-5.3,1.3-5.3,1.3-3.2,8.6c-5.5,7.6-8.9,16.1-11.5,25c-5.8,20.6-17.3,37.9-31.2,53.9
	c-25.4,29.2-56.1,51-92.5,64c-29.1,10.4-59.6,16.7-90.5,18.6c-24.9,1.5-49.8,1.9-74.8,2c-3.9-3.2-8.8-1.1-13-2.3
	c-0.4,0.8-0.7,1.7-0.9,2.5l-15.9-0.2c-0.8-3.3,1.8-10.4-6.2-5.7c-1.7,1-2.3-0.2-3.3-0.9c-5.2-3.6-5.2-3.6-7,3.5
	c-5.3,2.3-10.3-1.1-15.4-1.2c-0.3-2.4,0.5-4.1,2.4-6c3.6-3.4,3-5.2-1.4-6.9c-4.8-1.8-9-0.4-10.9,3.9c-1.4,3.2-4.1,3-6.1,4.4
	c-15.1-1-27.8-8.5-40.5-15.5c-9.6-5.2-18.6-11.5-27.8-17.5c-10.4-6.8-18.6-15.9-26.4-25.5c-21-26.4-34.5-55.4-38-89.4
	c-3.4-33.5-0.2-66.2,6.5-98.9C2021.6,981.5,2025.4,978.2,2024.3,973.5z M2392.6,1131.5c-2.7,0-5.3,0-8-0.1c-1.8,0-3.7-0.7-3.7-2.6
	c-0.1-8.3-5.9-7.7-11.2-8.4c-0.9,3.2,2.4,6-0.4,8.1c-3.2,2.4-4.4-1.5-6.6-2.6c-0.6-0.3-1.2-0.5-1.9-0.6c-2.5-0.5-3.4-5.2-6.5-3.1
	c-3,1.9-1.4,5.5-1.5,8.3c0,0.7,0.2,1.3,0.5,1.9c2.1,3.9-1.7,7.6-0.3,11.9c0.5,1.6-5.2,0.7-8,1.4c-0.6,0.1-1.3,0.4-1.8,0.8
	c-1.6,1.4-2.9,3-0.2,4.6c3.8,2.3,15.1,1.3,19-1.5c1.6-1.2,1.4-2.5,1.5-4.2c0.1-3.3,5.6-7.2,7.1-5.4c3.6,4.2,4.9,2.9,6.5-1.4
	c1.1-3.1,3.7-1.7,6-1.4C2387.8,1137.8,2392.1,1137.7,2392.6,1131.5c0.2-0.1,0.5-0.2,0.7-0.3c0.1-0.1,0.1-0.3,0.2-0.5L2392.6,1131.5z
	 M2333.3,1135.6c-4.2,4.2-9.3,4.2-13.8,5.9c-3.9,1.4-7.4,5.6-5.7,7.8c2.9,3.8,0.3,7.6,1.6,10.9
	C2335.2,1158.4,2339.8,1152.4,2333.3,1135.6z M2274.7,1161.8c11.5,2.9,11.6,2.8,13.9-5.3c0.4-1.5,2.1-2.9,0.2-4.3
	c-1.4-1-3.2-1-4.7-0.1C2280.4,1154.2,2277.5,1157.3,2274.7,1161.8L2274.7,1161.8z M2296.7,1162c4.6,2.2,9.1,2,10.5-1.9
	c1.3-3.4,0.1-8.2-5.7-9.9C2300.9,1154.6,2298.7,1158.1,2296.7,1162L2296.7,1162z M2438.7,1074.9c2.5-2.3,4.9-4.6,5.7-7.7
	c0.6-2.3,1.7-5.9-1.8-6.7c-2.8-0.6-3.5,2.4-4.1,4.7C2437.8,1068.3,2435.2,1071.2,2438.7,1074.9L2438.7,1074.9z M2517.4,998.8
	c1.1,1.6,0.9,4.9,4.4,3.8c1.3-0.4,2.5-1.5,2-3c-0.8-2.5-3-3.4-5.4-3.3C2517.4,996.4,2517.2,997.6,2517.4,998.8L2517.4,998.8z"/>
<path class="st1" d="M1006.5,868.4c0.5,15.3-0.3,30.5-3.8,45.5c-6,25.2-18.8,46.5-36.7,65c-15.7,16.2-33.9,28.3-54.4,37.7
	c-23.8,11-49,19-74.8,23.8c-6.5,1.2-13.1,2.6-19.7,2.8c-29.5,1-59,4.6-88.6,4.3l-10-0.1c-24.3,0-48.6-1.2-72.8,0.3
	c-22.6,1.4-45.1,1.2-67.6,1.7c-49.1,2-96.8-5.9-143-22.2c-24.2-8.5-47.7-18.6-69.9-31.6c-12-7.2-22.5-16.7-30.9-28
	C317.8,946,306,921,299.8,894.3c-4.9-21-4.3-41.6,3.7-61.6c5.2-12.9,12-25.5,21.3-35.9c14.4-16.1,29.1-32,47.2-44.3
	c18.8-12.7,39.6-22.1,61.5-27.9c3.1-0.8,6.7-0.5,9.3-3.2c18.3-2.9,36.6-5.5,54.8-8.7c13.4-2.3,26.8-3.7,40.2-5.5
	c18.9-2.7,37.8-0.8,56.7-1.9c15.8-0.9,31.5-3.8,47.1-6.7c3.6-0.7,7.2-1.1,10.8-1.2c12,0,24-0.5,36,0.1c10.7,0.6,21.1-2.2,31.7-2.2
	c19,0,37.5,2.9,56.2,5.4c30.8,4.1,59.8,14.3,89.4,22.6c15.3,4.3,30.5,9,44.9,15.8c27.6,13,53.1,28.6,70.4,55
	c12.6,19.1,21.6,39.4,23.4,62.4C1005,860.7,1007.4,864.3,1006.5,868.4z M386.4,895.7c0.7,3.6,1.4,7.3,4.5,9.9
	c3.4,9.5,10,17.4,18.8,22.4c21.8,13,45.4,21.9,69.6,29.2c36.6,11,74.2,13.7,112.2,12c5.3,0.1,10.7,0.9,15.9,0.2
	c17-2.2,34.1-1.7,51.1-1.8c26.2-0.1,52.3-0.1,78.5-0.2c13.7,0.9,27.2-1.6,40.9-2c24.3-0.8,48.5-2.3,71.8-10.2
	c24.8-8.4,48.8-17.6,64.9-40.3c10.2-14.5,14.2-29.8,10-47.1c-1-16.6-8.8-29.7-21.4-39.9c-12.5-10-27.1-16.3-42-22.2
	c-10.3-4.1-22.4-4.3-30.8-13c-0.5-0.4-1.2-0.6-1.8-0.5c-11.7,3.1-22.1-2.8-32.7-5.5c-22.3-5.8-44.6-9.5-67.6-9.2
	c-10.6,0.1-21.3-0.2-31.9,0.1c-8.8,0.3-18-2.2-26.1,3.6c-0.7,0.5-2,0.3-2.9,0.3c-20.2-0.4-40.3,2.3-60.4,3.8
	c-19.1,1.4-38.4,0.3-57.6,2c-11.2,1-22.4,2.1-33.4,4.5c-18,2.8-36,5.1-53.8,8.8c-30,6.1-53.5,22.2-72.7,45.4
	c-4.1,4.8-7.4,10.2-9.8,16.1c-1.2,3-2.3,6.1-1.7,9.6C379.2,880.2,380.9,888.6,386.4,895.7L386.4,895.7z"/>
<path class="st1" d="M409,613.4c-14.9-0.2-29.9-0.5-44.8,1.6c-1,0.1-2,0.2-3,0.2c-26.6,0.3-53.1,3.2-79.8,2.5
	c-8.3-0.2-16.6,1.3-24.8,1.3c-29.7,0.3-58.8-3.3-87.3-12.8c-21.5-7.2-43-14.1-63.3-24.2c-31.7-15.7-53.8-40.5-68.5-72.4
	c-1.2-2.7-1.8-5.8-4.6-7.5c0.4-6-1.5-11.8-2.6-17.5c-4-20.4-1.3-40,6.3-59c2.3-5.5,3.9-11.2,4.8-17.1c4.3,0.4,4.3-3.6,5.6-5.9
	c13.6-22.3,31.2-39.8,54.8-52c22.8-11.8,46.9-18.4,71.7-23.2c25.7-4.9,51.6-9.2,77.3-13.9c19.2-3.5,38.2-8.9,58-8.6
	c2-0.1,3.9-0.6,5.7-1.4c10.2-4.5,21.1-5.6,32.1-6.1c3.9-0.2,8,0.4,11.6-2c9.6,0,19.3-0.1,29,0.1c19.2,0.4,38.2,2.8,57.2,5.3
	c16.4,2.1,32.6,5.6,48.4,10.4c14.2,4.4,28.6,8.3,41.5,16c4.8,2.8,10.2,4.8,15.5,6.8c23.8,9.2,45.1,22.5,64.5,38.8
	c9.3,7.8,17.6,17,23.1,28.3c5.2,10.7,12.1,20.6,16.1,32c6.7,19,10,37.9,7.4,58.3c-3.4,26.3-14.9,48.1-33.6,66
	c-13.8,13.2-31.1,21.3-48.8,28.2c-17,6.6-34.4,12.3-52.5,14.9c-11.8,1.7-23.5,3.7-35.3,5.3c-17.7,2.4-35.6,2.6-53.2,5.4
	c-5.9,0.9-12,0.3-17.9,0.3C416,611.5,412.3,611.3,409,613.4z M418.7,531.5c13.3-0.2,26.4-3.1,39.7-2.1c0.7,0,1.3-0.1,2-0.2
	c15.3-2.5,30.7-4.8,46-7.2c20.9-3.3,40.2-10,59.2-19.3c10-4.9,13.6-12.7,14.8-21.7c2.4-18.9-6.1-34.9-19.1-47.2
	c-15-14.2-34.3-22.6-52.6-31.9c-9.8-5-20.6-7-30.8-10.9c-15.9-6.2-32.6-8.4-49.1-11.5c-9.9-1.9-20-0.5-29.7-2.4
	c-8.4-1.6-16.5-0.9-24.8-1.3c-3-0.2-5.2,0.8-5.7,4.1c-5.6,0.7-10.2,4.3-16.2,4.1c-15.6-0.6-31.2,2.5-46.8,1.9c-3,0-6,0.4-8.9,1
	c-19.4,3-38.3,8.2-57.7,11.1c-26,3.9-51.9,7.8-77.2,15.3c-10.5,3.1-20.5,7.8-29.6,14c-11,7.5-17.5,18.2-20.9,30.7
	c-2.4,8.1-1.4,16.8,2.6,24.2c7.1,13,17.6,22.4,30.4,29.4c8.8,4.8,18.3,8.1,27.7,11.3c27.5,9.5,55.2,17.4,84.8,15.2
	c6.1-0.5,12.7-1.7,18.5,2.2c0.8,0.4,1.8,0.4,2.7,0c4-3.8,8.8-2.1,13.3-2.3c11.3-0.4,22.7-0.1,33.9-1
	C356.3,534.5,387.5,533,418.7,531.5z"/>
<path class="st0" d="M358.3,295.5c-3.6,2.4-7.7,1.8-11.6,2c-11,0.5-21.8,1.6-32.1,6.1c-1.8,0.9-3.7,1.4-5.7,1.4
	c-19.8-0.4-38.8,5-58,8.6c-25.8,4.8-51.6,9-77.3,13.9c-24.8,4.7-49,11.3-71.7,23.2c-23.6,12.2-41.2,29.7-54.8,52
	c-1.4,2.3-1.4,6.3-5.6,5.9c-2.3-14.8-4.4-29.6-7.1-44.3c-3.8-20.7-3.8-41.7-4-62.6c-0.2-19.3-2.5-38.5-1.5-57.8
	c2.1-39.2,13.6-75,39.5-105.4c34.3-40.4,79.3-61.2,130.5-68c30-4,60.5-2.3,89.6,8.8c37.3,14.3,66,37.8,81.8,75.4
	c10.7,25.6,11.8,51.6,5.5,78.4c-4.4,18.8-11,36.9-16.1,55.5C359.1,290.9,358.8,293.2,358.3,295.5z M322.9,148.3
	c0.2,2.3,1.1,3.1,3.2,2.4c5.2-1.8,7.8-6.7,11.6-10.1c0.4-0.3,0-2-0.5-2.6c-1.1-1.5-1.9-0.6-3,0.5c-3,2.9-5.8,6-9.8,7.8
	C323.7,146.5,323.4,147.6,322.9,148.3z"/>
<path class="st2" d="M2524.7,1035.4c-0.5-6.6-3.5-13-1.4-20.1c0.8,0.7,1.3,1,1.7,1.4c2.7,2.8,0,9.3,3.2,9.4
	c4.6,0.1,9.5,1.9,14.2-0.1c1.7-0.7,3.9-0.5,5.8-0.7c-2.3,15-9.4,27.9-17.9,40.1c-8.8-8.7-5.3-8.2-1.3-16.1c0.8-1.7,1.7-3.4,2.8-5
	c0.7-1,2.2-1.9-0.1-2.7c-0.9-0.2-1.9-0.3-2.9-0.3C2528.8,1038.5,2528.7,1035.6,2524.7,1035.4z"/>
<path class="st2" d="M1316.9,941.2c1.3,8.3-3.4,14.3-7.4,20.8c-2.5,4.1-5.9,3.8-9.4,3.4s-3.4-3.5-3.3-6.2c0.2-4.4-2.2-5.9-6.2-5.6
	c-1.6-0.1-3.2-0.2-4-1.9c5.2-6.4,9.8-13,8-22c4.8,0.8,10.6-1.6,14.1,3.9c-0.2,2.1-7.6,4.3,0,6.4l-4.1,3.6c-1-0.1-1.9-0.3-2.8-0.5
	c-1.3-0.4-2.5-0.9-3,1c-0.1,0.6,0,1.2,0.3,1.8c0.7,1,1.7,0.4,2.6,0.1c1.3-0.3,2.3-1.2,2.9-2.3c4.3,1.1,8.9,3.6,12.1-2.1
	L1316.9,941.2z"/>
<path class="st2" d="M2558.9,989.5c-4.5-0.8-7.4,1.8-9.5,5c-4.1-0.8-1.7-5.9-5.4-6.6c-3.1-0.6-4.7,1.5-6.9,2.8
	c-1.9,1.2-3.8,0.2-5.3-1.3c-3.2-3.5,4.4-8.2-1.4-11.4c2.1-2.1,3.7-4.6,6.7-5.7c1.4-0.5,2.9-0.5,3.6,0.6c5.3,7.2,12.4,5.8,19.6,4.4
	C2560.2,981.4,2561.6,985.7,2558.9,989.5z"/>
<path class="st2" d="M1429.8,1011.8c-2-0.2-4.5-2.8-5.4-1.4c-3.3,5-5.8,7-9.2,0.2c-0.8-1.5-3-0.7-4.5,0.1c-1.7,0.9-3.3,2.4-5.2,2.7
	c-4.3,0.8-7-2-8.3-5.5c-1.5-3.8,0.5-6.7,4.2-7.4c3.2-0.6,7.3-5.4,9.7,1.3c0.2,0.4,1.4,1,1.5,0.9c4.6-5.5,8.1,1.5,12.2,1
	C1427.5,1005.7,1430.5,1007.7,1429.8,1011.8z"/>
<path class="st1" d="M1358.6,944.8c-5.6-0.7-8.8,5.4-14.6,4.9c-1.4-0.1-1.9,2.7-1.7,4.2c0.5,6-3.2,8.1-8.4,9.9
	c-3.3-9.8,0.6-18.1,3.8-26.5C1344.8,939.4,1352,941.3,1358.6,944.8z"/>
<path class="st1" d="M1263.8,928.4c-1.9,3.5-3.7,7-5.7,10.4c-1.3,2.2-5.2,2.9-1.9,7.2c1.6,2.1-3.1,5.2-4.2,8.6
	c-2-2.1-1.7-4.8-3.6-6.8c-4.1-4.1-5.9-8.7-0.4-13.5c2-1.8,1.2-4.3,0.2-6.5C1253.3,927.4,1258.6,927.2,1263.8,928.4z"/>
<path class="st2" d="M2146.9,1232.5c2-1.4,4.7-1.2,6.1-4.4c1.9-4.3,6.1-5.7,10.9-3.9c4.3,1.6,5,3.4,1.4,6.9c-2,1.9-2.7,3.6-2.4,6
	C2157.3,1236.3,2151.6,1236.1,2146.9,1232.5z"/>
<path class="st1" d="M1308.8,939.9c-7.6-2.1-0.3-4.3,0-6.4c2.2-2.5,4.3-3.8,8.1-2.3c3,1.2,4.6,4.6,8.2,4.6c-0.4,5.3-3.8,6-8.1,5.4
	l-0.2,0.2C1314.6,937.8,1311.5,939.6,1308.8,939.9z"/>
<path class="st2" d="M2550,1015.8c-3.8-0.6-5-3.8-6.7-6.5c-3.2-5.2-2.4-7.7,3-9.2c3.9-1.1,5.2,0.3,4.8,4.9c-0.2,1.9-0.1,3.9-0.2,5.8
	C2550.6,1012.4,2550.3,1014.1,2550,1015.8z"/>
<path class="st2" d="M2178.2,1238.3c1.8-7.1,1.8-7.1,7-3.6c1,0.7,1.6,1.9,3.3,0.9c8-4.6,5.4,2.4,6.2,5.7
	C2189.2,1240.8,2183.1,1242.7,2178.2,1238.3z"/>
<path class="st2" d="M1276.6,928.9c-0.3,3.5,1.1,8.9-3,9.5c-4.8,0.7-1.9-5.9-4.6-8.2c-0.4-0.4-0.5-1.2-0.7-1.8
	C1271.1,927.9,1274,926.8,1276.6,928.9z"/>
<path class="st2" d="M2210.6,1241.6c0.3-0.9,0.6-1.7,0.9-2.5c4.3,1.1,9.1-0.9,13,2.3C2220.2,1243.8,2215,1243.8,2210.6,1241.6z"/>
<path class="st2" d="M1284.6,929.5c-2.2,3.4,0.3,5.3,2.2,7.5c1,1.2,2.3,2.8,0.1,4c-1.7,0.9-3.1-0.1-4.1-1.5c-2.1-2.8-2.3-6-2.5-9.3
	L1284.6,929.5z"/>
<path class="st2" d="M2525.1,1078c-2.1-7.3-2.1-7.3,3.2-8.6C2528.6,1072.7,2528,1075.8,2525.1,1078z"/>
<path class="st1" d="M1238.4,928.9c-2.8,4.4-4.7,1.6-6.6-0.8C1234.1,927.5,1236.4,926.9,1238.4,928.9z"/>
<path class="st1" d="M2566.2,895.7c-4.4-0.3-2.5-2.3-1.1-4.2C2568.1,892.2,2569.5,893.3,2566.2,895.7z"/>
<path class="st2" d="M1636.9,316.9c-6,2-6,2-3.2,7.7c1.3,2.7,1.3,4.6-2.5,4.1c-0.9-0.1-2.6-0.5-2.7-0.2c-4.1,10.2-10.3,3.6-15.8,1.9
	c-1.1-0.5-2.2-1.2-3.2-1.9c2.8-3.5,3.3-7.5,3.3-11.8c0-2.6,1.6-4.9,4.2-4.4c3.6,0.7,6.9,2.4,10.4,3.7c2.9-5.6,6,0.1,8.9-0.1
	C1636.6,316,1636.7,316.6,1636.9,316.9z"/>
<path class="st2" d="M1606.2,496.6c-1.7,3.3-5.2,2.8-5.3,5.8s-1,5.3-4.6,4.9c-3-0.4-6.1-1.2-7.2-4.3c-0.9-2.4-3-4.7-1.7-7.5
	c1.5-3.1,4.6-1.8,7-2C1598.5,493.2,1601.9,495.4,1606.2,496.6z"/>
<path class="st2" d="M840.6,407.5c0.3,2.2,0.2,4.5,1.8,6.6c5.2,6.7,5,7.4-2.3,12c-1.1,0.7-2,1.6-3.5,2.7c-2.4-2-4.8-4.8-3.3-7.3
	C836.1,416.9,834.2,410,840.6,407.5L840.6,407.5z"/>
<path class="st2" d="M1648.8,313.7c-5.4,0.1-7.8-1.7-7.9-5.8c-0.1-3.4,1.2-5.9,5-6.1c2.4-0.1,8.7,6.7,8.2,9
	C1653.4,313.9,1650.8,313.5,1648.8,313.7z M1644.5,305.9l-0.7,0.5c0.2,0.2,0.3,0.5,0.6,0.6c0.8,0.1,1.1-0.2,0.8-0.8
	C1645.2,306.1,1644.7,306,1644.5,305.9L1644.5,305.9z"/>
<path class="st1" d="M1694,340.6c-1.9,6.8-5.4,10-10,8.5c-0.8-0.3-4.1-1.3-1.9-3.8C1685.2,341.9,1688.4,338.3,1694,340.6L1694,340.6
	z"/>
<path class="st2" d="M1645,340.3c4.5-6.3,9.2-8.4,13.2-6.5c1.2,0.5,1.8,1.8,1.3,3c0,0.1-0.1,0.2-0.1,0.3
	C1657.8,341.1,1654.2,342.1,1645,340.3z"/>
<path class="st2" d="M1607.8,290.4c1.1-0.2,2.1,0.3,2.5,1.3c0.6,1.2,1.3,2.4,0.2,3.6c-2,2.2-3.9,4.4-6.8,5.5c-2.6,1-4.7,0.5-6-1.8
	c-1.4-2.6,1-3.3,2.6-4.3C1602.8,293.3,1605.4,291.8,1607.8,290.4z"/>
<path class="st2" d="M1736.8,353c3,5.4,2,8.4-2.1,10.1c-2.1,0.9-4.5-0.1-4.8-2.1C1729.1,356.3,1734.2,356.5,1736.8,353z"/>
<path class="st2" d="M1693.1,335.5c-1.9-0.4-5.4,1-5.3-2.4c0-3.4,3.3-3.5,6-3.4c2,0,4.4,0.1,4.4,2.7
	C1698.3,335.7,1695.5,335.5,1693.1,335.5z"/>
<path class="st2" d="M1734.2,339.4c-0.3,4.9-1.7,7.5-4.5,9.4c-1.1,0.8-2.5,0.8-3.6-0.1c-1.3-1.1-0.8-2.3,0-3.4
	C1728.1,342.6,1730.9,340.5,1734.2,339.4z"/>
<path class="st2" d="M1702,345.6c1.2,0.3,2.1,0.8,1.9,2c-0.4,2.7-2.2,3.9-4.9,3.7c-1-0.1-1.9-0.8-1.7-1.9
	C1697.8,346.6,1699.5,345.5,1702,345.6z"/>
<path class="st2" d="M840.7,407.6c0.4-2.4-0.7-5.7,3.6-5.5c0.6,0.1,1.2,0.5,1.4,1.1C846.1,407,843.2,407.1,840.7,407.6L840.7,407.6z
	"/>
<path class="st2" d="M1694,340.6L1694,340.6l1.6-0.2c-0.2,0.2-0.5,0.5-0.7,0.5S1694.3,340.8,1694,340.6z"/>
<path class="st2" d="M278.6,922.8c0,2.4,0,3.3,0,4.3c-0.1,1.3,0,2.7-1.6,3.3c-2,0.7-3.1-0.7-3.9-2.1c-2.7-4.5-4.8-9.4-6-14.5
	c-0.8-3.3,1.3-4.7,4.7-3.5C277,912.2,278.7,915.6,278.6,922.8z"/>
<path class="st2" d="M153.6,1204.3c4.3,0.4,8.4,2.3,11.5,5.4c1.8,1.7,2.1,4.4,0.6,6.4c-1.9,2.5-4,1.1-5.9-0.4
	C156.2,1212.9,152.2,1210.5,153.6,1204.3z"/>
<path class="st2" d="M268.6,883.5c-3.2,1.2-0.4,6-4.2,7.1c-2.9-1.8-1.3-4.8-1.9-7.2c-0.7-2.4-3.6-5.5,0.1-6.6c3.5-1,6.1,1.6,6.1,5.8
	L268.6,883.5L268.6,883.5z"/>
<path class="st2" d="M268.6,883.5l0.9,0.8c-0.2,0-0.4,0-0.5-0.1C268.8,884,268.7,883.8,268.6,883.5L268.6,883.5z"/>
<path class="st0" d="M2123,837.6c15.2-5.8,30.9-10.3,45.5-17.6c25.7-12.9,47.8-30,65.4-52.8c7.2-9.4,10.8-20.6,14.9-31.4
	c0.7-1.9,1.3-3.8,1.9-5.7c3-9.4,3-9.3,12.4-7.8c17,2.8,34.2,4.4,51.5,4.8c22.9,0.4,45.8,2.3,68.5,5.8c15.4,2.4,31.1,3.1,46.6,4.5
	c11.2,1,22.5,2,33.6,3.9c12.7,2.1,24.1,7.4,35.1,13.8c10.3,5.9,14,15.6,16,27.2c5.4,30.8-28.2,78.8-57.6,87.9
	c-23,7.1-45.5,13.9-69.7,15.9c-38,3.2-75.9,0.5-113.8,1.6c-25.6,0.8-51.1,2.6-76.6,5.2c-12.2,1.2-24.6,1.2-36.8,2.2
	c-18.2,1.4-36.5,2.8-54.8,2.5c-13.7-0.2-27.3,0.4-40.8-2c7.2-9.3,13.8-19.2,21.9-27.6c4.6-4.8,8.8-10.8,16-12.7
	c6.8,4.1,13.1,4.4,18.7-2.1c-4.4-4.1-4.4-4.1-2.1-11.3L2123,837.6z"/>
<path class="st0" d="M1898.2,547.6c-1.3,15.2-3.8,30.3-7.4,45.2c-6,24.1-18.7,43.9-37.1,60.2c-8.2,7.2-16.9,14.1-25.6,20.8
	c-22.1,17-48.1,25.1-74.7,31.6c-28.4,7-56.7,4.3-85-1c-24.9-4.6-49.2-11.4-73.6-17.8c-3.1-2.4-3.9-6-4.7-9.6
	c-4.6-20.5-1.6-38.6,14.2-54c30.3-29.4,64.8-50.5,107-57.7c18.6-3.2,37.1-7.4,55.7-10.8c6.8-1.3,13.8-2.2,20.7-2.6
	c19.2-1.1,38.5-2,57.7-2.6c9-0.3,17.8,0.3,26.6,3c5.5,1.7,12.3,3.9,16.9-3.6C1890.9,545.3,1894.9,547.4,1898.2,547.6z M1720.3,589.4
	c7.2-0.1,14.6,0,22.1-5.6C1733.4,583.4,1726.9,586.5,1720.3,589.4L1720.3,589.4z"/>
<path class="st3" d="M2159.5,726.6c-0.4-7,0-14.1,1.3-21c13.7,1.1,14,3,6.7,14.9C2165.8,723.3,2164.2,727.3,2159.5,726.6z"/>
<path class="st0" d="M1009.1,283.7c0.6-2.5,0.6-3.9,1.2-5c1.6-3-3-6.3,0.6-9.2c2.5-2.1,5.6-1.8,8.5-2.5c30.8-7,61.6-13.8,92.3-20.9
	c5.6-1.3,9.3,0,12.3,5.3c9,16.1,21.1,29.8,34.5,42.3c13.3,12.4,28.1,21.9,46.5,24.9c10.8,1.8,21.5,4.2,32.2,6.5
	c13.5,2.9,27.2,2.1,40.8,2c16.6-0.1,33.2,1,50.7,4.7c-12.2,18.6-26,33.7-46.5,41.6c-18.4,7.1-38,9.6-57.2,13.4s-38.6,6.9-57.8,10.8
	c-12.8,2.6-25.7,2.8-38.6,3.6c-11.3,0.8-22.6-0.2-33.9,1.8c-5,0.9-10-0.7-14.8-1.7c-13.5-3-27.1-1.9-40.6-2.3
	c-12.6-0.4-25.2-2.1-37.5-4.9c-15.9-3.6-31.9-6.6-48.3-6.8c-2.7-0.1-5.3-0.5-7.9-1.2c-22-4.9-27.2-13.8-28-35.1
	c-0.7-19.5,6.7-37.2,18-52.9c11.7-16.4,28.6-23.1,48.1-24.5c2.3,0,4.7-0.3,6.9-0.8c3.8-1.1,6.5-1.6,8.7,3.2
	C1000.9,279,1005,280.6,1009.1,283.7z M988.1,318.4c1.5,1.8,3.7,0.8,5.4,1.6c0.6,0.3,1.2,0.6,1.8,0.8c2.5,0.7,5.7,1.7,6.7-1.6
	c1.2-4.2-2.6-3.4-5-3.8c-1.9-0.3-3.8-1.1-5.7-1.1C988.6,314.3,988.2,316.4,988.1,318.4L988.1,318.4z M1002.2,308.6
	c4.2-7.7,4.2-7.7-2.5-12.2C997.6,300.6,1000.8,303.4,1002.2,308.6z"/>
<path class="st3" d="M1246.6,121.6c18.5,20,41.4,30.7,68.5,32c17.6,0.8,35.2-0.1,52.6,3.3c21.9,4.2,42.8,11.5,63.6,19.6
	c25.6,9.9,49.1,23.5,72.2,37.9c4.5,2.8,8.7,6.1,13,9.2c-9.7,8.2-21.3,11.8-33.3,14.6c-24.9,5.5-50.2,9.2-75.6,11
	c-10.8,0.8-10.8,0.2-14.9-9.8c-0.3-3.9-4.8-5.7-4.7-10c0-1.8-2.9-1.9-4.8-2.1l-0.5-5.9c-1.6-4.2-1.6-9.8-8.2-9.8
	c-0.5-0.4-1.3-0.6-1.5-1.2c-11.2-28.2-34.6-39.7-62-47.2c-16-4.4-32.1-4.6-48.2-5.7c-1.7-0.2-3.3-0.2-5,0c-4,0.7-6.5,2.7-3.5,6.7
	c2.3,3.2-0.4,3.9-1.3,5.1c-1.4,0.5-1.8,0.1-2.2-0.6c-5-11.4-5-11.4-17.2-11.5c-5.3-0.1-10.6-0.1-15.9-0.1c-4,0-7.8-0.4-10.4,3.9
	c-2,3.2-6,2.8-8.9,1.1c-4-2.3-5.8-8.1-4-11.4c4.8-9,10.5-16.8,21.2-19.8c7-2,13.7-5.1,20.4-8C1239.2,121.5,1242.9,121,1246.6,121.6z
	"/>
<path class="st2" d="M1290.9,229.6c-2-1.4-2.4-4.7-0.8-4.8c8.1-0.6,11.2-10,20.3-9.4c-3.6-5.4-9.2-3.7-12.8-6.4
	c-2.9-2.1-5.9-3.6-2.7-7.5c3-3.6,0.1-8.9,3.5-12.1c3.8-3.6,6.9,4.1,10.9,1c0.6-0.4,1.2-0.6,1.9-0.6c8.2-0.6,10-1.8,14.4-8.7
	c1-1.8,2.9-2.9,4.9-2.9c2.2,0.1,4.2,1.9,3.2,3.9c-2,4.3,7,2.8,3.5,7.3c-2,2.6-5.4,2.4-7.9,4c-3.6,2.3-6.4,6-6.7,10.1
	c-0.2,3.4-2,6-2.9,8.9c3.5,3.3,6.8,4.1,10.7,0.8c2.8-2.3,5.9-4.2,10-3.7c2.3,0.3,3.6,1.2,4.1,3.5c0.4,2,0.7,3.2-1.7,4.7
	c-6.8,4.4-13.6,9-16.2,17.5c-0.3,0.9-1,2.2-1.7,2.4c-10.2,1.8-6,8.8-5,14.7c-3.4,1.6-6.5,1.8-9.4-0.6c-2.9-4.6-5.3-9.8-10.9-11.9
	C1294.9,237.9,1292.3,234.3,1290.9,229.6z M1312.9,208.4c0,1.6,0.6,2.4,1.7,2.4c1,0,1.8-0.9,1.8-1.8c0-0.1,0-0.1,0-0.2
	c0-1.4-0.6-2.8-2.2-2.3C1313.5,206.6,1313.2,208,1312.9,208.4L1312.9,208.4z M1316.7,196.9c-0.9,0.7-2,1.5-1.5,2.9
	c0.2,0.8,1,1.2,1.8,1c0.1,0,0.3-0.1,0.4-0.2c0.7-0.6,1.1-1.4,1.1-2.3C1318.6,197.4,1318.2,196.4,1316.7,196.9L1316.7,196.9z"/>
<path class="st3" d="M1290.9,229.6c1.4,4.8,4,8.3,8.8,10.2c5.6,2.1,8,7.2,10.9,11.9c-18.9-0.8-37.9,0.2-56.8-1.8
	c-12-1.2-23.4-4.6-35-7.5c-4-1-7-3.6-9.9-7.2c3.5-2.6,7.2-1.5,10.6-1.8c20.8-1.4,41.7,1.1,62.5,0.5
	C1285.6,233.7,1289.6,234.5,1290.9,229.6z"/>
<path class="st2" d="M1383.2,227.3c1.9,0.2,4.8,0.3,4.8,2.1c0,4.3,4.4,6.1,4.7,10c-1.6,0.9-1.8,2.7-2.5,4.1
	c-4.2,8.1-6.4,8.6-14.4,3.4c-2.6,1.4-0.4,6.4-4.8,6.4c-3.2,0-6.6,1-8.8-2.7c-1.6-2.8-4-3.2-6.7-1c-3.4,2.7-8.4,1.7-11.7,5
	c-1.7,1.7-4.6,1.2-6.7,0.4c-3.1-1.2-1.8-3.7-1.2-5.9c0.4-1.5-0.5-2.2-1.5-3.3c-4.2-4.5-4.2-6.5,0.8-7.9c3.8-1.1,5.2-2.3,5.9-6.3
	c1.2-7.3,2.8-7.6,12.2-3.2c-5.3,0.9-7.1,4.1-8.1,7.9c-0.5,1.8,0.4,4.3,1.7,4c4.5-1,9.8-1.9,12.8-4.8c1.8-1.7,4.7-5.7,4-9.3
	c-1.2-5.6,2.3-7.4,6.2-8.3s5.1-2.5,4.5-6.1c6.6,0,6.7,5.5,8.2,9.8c-3.8,2.9-5.4,7.3-3.4,10.3c1,1.5,2.3,0.8,2.9-0.6
	C1382.7,229.9,1383,228.6,1383.2,227.3z M1376.8,227.4c-2.9,0.2-6.1-1.3-7.3,2.6s1.7,8.9,7.5,12.3
	C1374.5,236.9,1376.6,232.3,1376.8,227.4L1376.8,227.4z M1379.5,237.7c0.3,1,1.2,1.6,2.2,1.4c1.1,0,2-0.6,1.8-1.8s-1.1-1.4-2.2-1.4
	S1379.6,236.5,1379.5,237.7z"/>
<path class="st2" d="M1310.4,403.1c-2.1-2.1-3.2-5.7-2.1-6.3c6.6-4.1-1-4.1-0.8-7.1c-5.1,5.3-3.1,11-3.5,16c-0.4,4.5,0.9,8-5.6,5.7
	c-2.5-0.9-1.8,2-2.7,3.1c-4,4.5-6.9,4.1-9.2-1.6c-1.4-3.3-6.3-7.1,0.7-10.4c1.1-0.5-1.6-2.2-2.5-3.4c-3.6-4.5-3.3-5.5,1.9-8.4
	c5.9-3.2,12.3-5.1,19-5.7c0.6,0,1.3-0.1,1.9-0.3c1.9-0.8,0.9-5.8,4.4-3.7c3,1.8,5.3,4.8,7.7,7.5c0.8,0.9,1.1,3-0.3,3.4
	C1314,393.7,1314.8,399.8,1310.4,403.1z M1289.1,395.3c-0.3,1.4,0.4,2.3,1.6,2.9c0.5,0.3,1.1,0.2,1.4-0.3c0.1-0.1,0.1-0.2,0.1-0.3
	c0.6-1.2,0.2-2.6-0.9-3.4C1290.5,393.7,1289.6,394.3,1289.1,395.3z"/>
<path class="st2" d="M1278.8,195.4c-0.8-3.9-3.8-8,1.5-11.4c1.2-0.7,2.4-3.3,1.9-4.3c-4.8-10,6.9-8.2,9.3-13c0.5-1,2.4-0.2,3.4,0.8
	c1.5,1.7,1.9,3.7,0.6,5.4c-3,3.9-4.6,9.4-9,11.7c-4,2.1-3.2,3.9-2.2,7c1.8,5.5,2.4,11.3,6.8,18c-6.8-2.1-10.7-0.9-13.7,3.9
	s-8.3,4.2-15.5,3c4.5-2.7,9.8-3.9,6.1-9.1c-0.5,0.1-1,0.3-1.5,0.6c-2,1.8-4.5,2.2-6.2,0.3c-1.9-2.1,0.2-4.5,1.5-6.2
	c4.1-5.7,10.1-7,16.7-6.4c-0.9,3.6-5.6,2.9-7.2,5.9C1278.9,203.9,1280.2,202.8,1278.8,195.4z"/>
<path class="st1" d="M1286.5,951.6c0.8,1.7,2.4,1.9,4,1.9c0.5,5.4-4.2,7.1-7.1,9.9c-2.2,2.1-4.9,3.4-3.7,9.1
	c-6.1-7.5-11.8-4.9-17.4-2.3c-1.3,0.6-3.4,1.1-2.7,3.4c0.6,1.8,1.1,4.4,3.7,3.8c2.8-0.6,5.2-1.5,6.7,1.8c1.4,3-3.4,3.4-2.6,5.8
	c1.3,3.7-0.2,3.1-2.5,2.1c-0.6-1.6-1.3-3-3.4-2.7c-0.2,0-0.5,0.5-0.5,0.8c-0.1,2.2,1.4,2.7,3.1,2.7c0.4,5.8-2.7,8.4-9,9
	c1.5-6.3-1.9-12.5,1.5-18.9c1.9-3.7-0.2-8.5-1.8-12.3c-1.9-4.6-0.8-7.4,2.3-10.9c1.9-2.3,3.9-4.4,6.2-6.3c2-1.3,4.5-1.5,6.7-0.3
	c2.3,1.2,0.8,3.5,0.6,5.3c-0.4,3.2-0.8,6.4,1.5,10.5c3.6-5,10.2-5.9,10.7-12.6c0.7-1.1,2-1.5,3.2-1.2
	C1286.1,950.7,1286.3,951.2,1286.5,951.6z"/>
<path class="st2" d="M1236.8,1021.7c9.8-7,20.7-7.3,30.8-9.9c1.6-0.6,3.5,0.1,4.3,1.6c0.9,1.8,0.7,4-0.5,5.7
	c-0.9,1.5-2.7,2.1-4.3,1.4c-1.6-0.5-3.2-1-4.8-1.4c-3.4-0.9-9,2.7-10.2,6.3c-0.9,2.8-2.5,5.4-3.2,8.3c-1.1,4-4,4-7,3.8
	c-1.4,0-2.6-1-2.8-2.3c-0.1-1,0.2-2,0.9-2.6C1245.8,1025.8,1245.8,1025.7,1236.8,1021.7z"/>
<path class="st1" d="M1342.4,999.5c-1.9,3.1-3.5,4.5-3.4,5.8c0.1,8.6-7.3,10.1-12.6,13.5c-1.5,1.2-3.7,0.9-4.8-0.6
	c-0.1-0.2-0.2-0.3-0.3-0.5c-1.4-2.5-0.2-3.4,2.2-4c0.9-0.4,1.4-1.3,1.6-2.2C1325.6,1001.1,1333.4,1001.1,1342.4,999.5z"/>
<path class="st2" d="M1309.7,1006.3c2.2,2.5,5.9-0.1,8.5,3c-2.8,3.9-9,5.5-7.9,11.4c-3.5,0.2-3.7-2.1-5.2-2.7c-3.1-1.2-6.6-2-0.8-5
	c2.7-1.4-0.7-4.2,0.8-6.2c2.2-3,0.6-7.1,2.5-10.3C1311.5,1000,1311.5,1000,1309.7,1006.3z"/>
<path class="st2" d="M1306.4,1080.9c-0.6,7.8-1,14.1-3.8,20c-0.7,1.9-2.7,3-4.7,2.5c-1.7-0.1-3.1-1.5-3.2-3.2
	c-0.8-4.3-3.5-9.1,3.2-11.4C1301,1087.7,1301.6,1083.6,1306.4,1080.9z"/>
<path class="st2" d="M1236,951.8c-2.3,3.1-1.2,7.7-4.9,7.6c-4.6-0.1-7.3-4-9.9-7.2c-0.8-1.2-0.6-2.7,0.5-3.6c1-1,2.5-1,3.5-0.1
	c0,0,0,0,0.1,0.1C1228,951.4,1230,955.9,1236,951.8z"/>
<path class="st2" d="M1210.5,1009.9c1.5-6.8,7.4-8,7.9-13c0.6,0.7,1.6,1.5,1.7,2.2c0.1,3.4,4.6,6.5,1.4,10
	S1214.9,1008.4,1210.5,1009.9z"/>
<path class="st2" d="M1379.8,985.7c-0.2,6-2.5,9.2-7.7,10.4c-1.2,0.3-2,3.3-3.8,0.7c-1.4-2.1-2.1-4.5,0.5-6
	C1372.2,988.8,1375.8,987.5,1379.8,985.7z"/>
<path class="st2" d="M1249.7,1000.2c-2,4.5-6.4,2.9-8.6,5.5c-1.4,1.6-3,0.2-3.8-1.4c-1-2.2-0.3-4,2-4.6
	C1242.5,998.9,1245.8,999.4,1249.7,1000.2z"/>
<path class="st2" d="M1201.3,940.4c4.3-0.5,5.7,2.9,8.4,3.9c1.7,0.6,2.5,2.3,0.7,3.9c-1.4,1.2-3.3,1.8-4.4,0.4
	C1204.2,946.4,1201.7,944.4,1201.3,940.4z"/>
<path class="st2" d="M1287.8,1041.2c-2.8-0.2-4.5-1.5-4.8-4.2c-0.3-2.2,0.9-4.3,2.9-4.6c3.8-0.5,3.5,3.2,4.3,5.4
	C1291,1039.6,1289.5,1040.7,1287.8,1041.2z"/>
<path class="st2" d="M1289.2,1019.7c-0.1-1.8,1.2-3.3,3-3.4c2.8-0.2,4.1,1.8,4.4,4.2c0.2,1.3-0.5,2.8-2.2,2.5
	C1292.3,1022.7,1290,1022.1,1289.2,1019.7z"/>
<path class="st2" d="M1186.2,973.3c-1.5-0.1-2.6-0.6-2.6-1.6c0.2-3,2.8-3.2,5-3.6c0.8-0.1,1.5,0.4,1.6,1.2c0,0.2,0,0.5-0.1,0.7
	C1189.5,971.8,1188,973.1,1186.2,973.3z"/>
<path class="st2" d="M1332.6,1089.2c-1-0.2-1.5-1.2-1.3-2.2c0-0.1,0-0.1,0.1-0.2c0.4-1.6,1.4-3,3.4-2.6c1,0.2,1.6,1.1,1.5,2.1
	C1336.3,1088.2,1335.5,1089.3,1332.6,1089.2z"/>
<path class="st2" d="M1286,950.2c-1.2-0.3-2.5,0.2-3.2,1.2c-2.6-0.1-4.9-1.1-3.8-4.1c1.1-2.7,3.2-0.9,4.9-0.1
	C1285.1,947.7,1286,948.9,1286,950.2z"/>
<path class="st1" d="M1213.9,974.5c1.3-1.4,2.8-2.5,4.8-2.3c0.8,0.2,1.3,0.9,1.2,1.7c0,0.2-0.1,0.3-0.2,0.4c-0.6,1.6-2.3,2.4-3.9,2
	C1214.8,976.3,1214,975.6,1213.9,974.5z"/>
<path class="st2" d="M1216.6,946.6c-0.4-0.4-1.1-0.7-1.1-1.1c-0.1-1.1,0.7-1.6,1.7-1.3c0.4,0.3,0.7,0.9,0.7,1.4
	C1217.8,946.1,1217,946.3,1216.6,946.6z"/>
<path class="st2" d="M2529.5,616.5c-0.3,4.8-0.5,9.6-1,14.5c-0.1,1.1,1,2.8-2.3,2.6c-2.7-0.2-4.5,7.8-8.5,4.2
	c-3.1-2.8,3.9-7.6,3.2-8.8c-3.2-5.7,3.7-9.2,2-14.2c-0.7-2.1,0.1-4.9,3.2-5.1c2.8-0.2,5.8-0.7,8.4,0.8c-2,3.4,3.9,5.3,1.6,8.8
	c-0.9,1.3-2,1.7-3.1,0.3C2532.2,618.4,2532.4,616.2,2529.5,616.5z"/>
<path class="st2" d="M2569.5,487c-3.5-3-2.7-7.4-6.4-8.8c-1.2-0.5-2.1-2.5-1.2-3.3c4.5-4.1-0.3-5.6-3.8-7.8
	c11.6-1.5,15.8,2.5,13.8,11.5C2571.2,481.1,2570.4,483.6,2569.5,487z"/>
<path class="st2" d="M2363,541c-4.4,5.1-9.9,5.9-14.4,8.3c-1.5,0.8-3.1-0.6-3.4-2.5c-0.2-1.5,0.6-2.8,1.9-2.8
	C2352.1,544,2356.1,539.4,2363,541z"/>
<path class="st2" d="M2262.7,557.5c-2.4-0.7-4.7,2.7-7.7,0c2.8-3.4,8.1-4.4,9.2-9.2c0.8-0.3,1.8-0.4,2.6-0.1
	c1.5,0.7,1.4,2.2,0.6,3.3C2265.9,553.5,2264.2,555.5,2262.7,557.5L2262.7,557.5z"/>
<path class="st2" d="M2262.6,557.5c2.6,1.6,5,3.2,2.9,6.8c-0.5,0.4-1.1,0.6-1.7,0.4C2259.7,563,2261.6,560.2,2262.6,557.5
	L2262.6,557.5z"/>
<path class="st2" d="M2445.9,415.9c1.2,4.3-0.6,6.6-3.6,9.9C2440.9,420.9,2442.5,418.4,2445.9,415.9z"/>
<path class="st2" d="M2392.6,1131.5c-0.5,6.2-4.9,6.3-9.5,5.7c-2.3-0.3-4.9-1.7-6,1.4c-1.5,4.3-2.9,5.6-6.5,1.4
	c-1.6-1.8-7,2.1-7.1,5.4c-0.1,1.7,0.1,3-1.5,4.2c-3.9,2.8-15.1,3.8-19,1.5c-2.7-1.6-1.4-3.2,0.2-4.6c0.5-0.4,1.1-0.7,1.8-0.8
	c2.8-0.8,8.5,0.1,8-1.5c-1.4-4.3,2.4-8,0.3-11.9c-0.3-0.6-0.5-1.2-0.5-1.9c0.1-2.8-1.4-6.4,1.5-8.3c3.2-2,4,2.6,6.5,3.1
	c0.7,0.1,1.3,0.3,1.9,0.6c2.1,1.1,3.3,5,6.6,2.6c2.8-2.1-0.4-4.9,0.4-8.1c5.3,0.7,11.1,0.1,11.2,8.4c0,1.9,1.9,2.5,3.7,2.6
	C2387.3,1131.5,2389.9,1131.5,2392.6,1131.5L2392.6,1131.5z"/>
<path class="st2" d="M2333.3,1135.6c6.5,16.8,1.8,22.7-17.9,24.6c-1.4-3.3,1.3-7.1-1.6-10.9c-1.7-2.2,1.7-6.4,5.7-7.8
	C2324,1139.8,2329.1,1139.8,2333.3,1135.6z"/>
<path class="st2" d="M2274.7,1161.8c2.8-4.5,5.6-7.6,9.4-9.7c1.5-0.9,3.3-0.8,4.7,0.1c1.9,1.4,0.2,2.8-0.2,4.3
	C2286.3,1164.6,2286.2,1164.7,2274.7,1161.8z"/>
<path class="st2" d="M2296.7,1162c2-3.9,4.1-7.4,4.8-11.8c5.8,1.7,7,6.5,5.7,9.9C2305.8,1164,2301.3,1164.2,2296.7,1162z"/>
<path class="st2" d="M2438.7,1075c-3.5-3.7-0.9-6.7-0.2-9.7c0.6-2.3,1.3-5.3,4.1-4.7c3.5,0.8,2.4,4.4,1.8,6.6
	C2443.5,1070.4,2441.2,1072.7,2438.7,1075z"/>
<path class="st2" d="M2517.4,998.8c-0.2-1.2,0.1-2.4,1-2.5c2.4-0.1,4.6,0.7,5.4,3.3c0.4,1.5-0.7,2.5-2,3
	C2518.2,1003.7,2518.5,1000.4,2517.4,998.8z"/>
<path class="st3" d="M2524.7,1035.4c4,0.1,4.1,3.1,4.3,6C2524.5,1041.5,2524.6,1038.5,2524.7,1035.4z"/>
<path class="st2" d="M2392.6,1131.5l0.9-0.8c-0.1,0.2-0.1,0.4-0.2,0.5C2393.1,1131.4,2392.9,1131.4,2392.6,1131.5L2392.6,1131.5z"/>
<path class="st0" d="M515.9,791.8c11.3,13.9,23.4,27.2,33.6,42c20.4,29.4,34.3,61.4,40,96.7c2,12.7,1.4,25.8,2,38.7
	c-38,1.7-75.6-1-112.3-12c-24.2-7.3-47.8-16.2-69.6-29.2c-8.7-5-15.4-12.9-18.7-22.3c2.3,0.2,4.9,0.5,6.2-2c1.4-2.7-1.5-4-2.6-5.9
	c-1.9-3.3-5.2-2-8.1-2c-5.5-7.1-7.2-15.5-8.6-24c-0.6-3.5,0.5-6.6,1.7-9.6c2.4-5.9,5.7-11.3,9.8-16.1c19.2-23.2,42.8-39.3,72.7-45.4
	C479.9,796.9,497.9,794.6,515.9,791.8z M551.7,868.1c1.3-2.3,1.5-4.8,3.8-6.1c1.7-0.9,3.7-2,2.7-4.5c-0.4-0.8-1.2-1.4-2.2-1.7
	c-2.7-0.5-4.1,1.3-5.3,3.4C549.1,862.2,548.6,864.9,551.7,868.1L551.7,868.1z M557.2,902.5c0,1.2,0.5,2.1,1.5,2.2
	c2.4,0.1,3.5-1.6,3.8-3.8c0.2-1.3-0.1-2.9-1.9-2.7C558.1,898.5,558.1,900.9,557.2,902.5z"/>
<path class="st0" d="M737,967.4c5.1-12.1,13.5-22,22.2-31.5c13.2-14.5,29.5-24.5,47.7-31.8c38.3-15.3,77.3-28.2,117.7-36.4
	c4.3,17.3,0.3,32.6-10,47.1c-16.1,22.8-40.1,32-64.9,40.3c-23.3,7.9-47.5,9.3-71.8,10.2C764.3,965.8,750.7,968.2,737,967.4z"/>
<path class="st2" d="M386.4,895.7c2.9,0,6.2-1.2,8.1,2c1.1,1.8,4,3.2,2.6,5.9c-1.3,2.5-3.9,2.1-6.2,2
	C387.8,903,387.2,899.3,386.4,895.7z"/>
<path class="st0" d="M418.7,531.5c-31.2,1.5-62.4,3-93.6,5.4c-11.3,0.8-22.6,0.6-33.9,1c-4.5,0.2-9.3-1.5-13.3,2.3
	c-0.8,0.4-1.8,0.4-2.7,0c-5.8-3.9-12.4-2.6-18.5-2.2c-29.6,2.2-57.4-5.8-84.8-15.2c-9.4-3.2-18.9-6.6-27.7-11.3
	c-12.9-7-23.3-16.3-30.4-29.4c-4-7.4-5-16.1-2.6-24.2c3.3-12.5,9.9-23.2,20.9-30.7c9.1-6.2,19.1-10.9,29.6-14
	c25.3-7.6,51.2-11.5,77.2-15.3c19.4-2.9,38.4-8,57.7-11.1c2.9-0.6,5.9-1,8.9-1c15.7,0.6,31.2-2.5,46.8-1.9c6,0.2,10.6-3.5,16.2-4.1
	c5.2,10.1,12.2,19,18.7,28.3c2.9,4.1,6.1,8,6.3,13.3c-3,1.2-3,2.7-0.9,5c5.8,6.5,5.9,6.6,1.4,13.8c-1.4,2.3-0.1,3.6,0.8,5.2
	c1,1.8,2.5,1.6,4.2,0.9c2.7-1.2,5.4-2.2,8.1-3.3c0.6,1.9,1.3,3.7,2.1,5.5c7.6,13.9,9.9,29,11.1,44.6
	C421.4,506,420.2,518.7,418.7,531.5z M375.3,478.5c0.3-3.8,3.4-6.8,2.3-10.8c-0.8-2.6-2.3-3.3-5.1-2.5s-2.9,2.1-1.3,4
	C373.4,471.9,371.7,475.7,375.3,478.5L375.3,478.5z"/>
<path class="st0" d="M1308.8,939.9c2.8-0.3,5.9-2.1,7.9,1.5c-3.2,5.7-7.8,3.2-12.1,2.1l0.1,0.1L1308.8,939.9z"/>
<path class="st0" d="M1304.6,943.5c-0.6,1.2-1.6,2-2.9,2.4c-0.9,0.3-1.8,0.9-2.6-0.1c-0.3-0.5-0.4-1.2-0.3-1.8c0.4-1.9,1.7-1.3,3-1
	C1302.8,943.3,1303.7,943.5,1304.6,943.5L1304.6,943.5z"/>
<path class="st0" d="M1644.5,305.9c0.2,0.1,0.6,0.1,0.7,0.3c0.3,0.6-0.1,0.9-0.8,0.8c-0.2,0-0.4-0.4-0.6-0.6L1644.5,305.9z"/>
<path class="st2" d="M2102.3,855.2c3.4-7.1,9.9-10.3,16.5-13.4c-2.2,7.2-2.2,7.2,2.1,11.3C2115.4,859.6,2109,859.3,2102.3,855.2z"/>
<path class="st1" d="M1720.3,589.5c6.5-3,13-6.1,22.1-5.6C1734.9,589.5,1727.5,589.3,1720.3,589.5z"/>
<path class="st2" d="M988,318.4c0.1-2,0.6-4.1,3.1-4c1.9,0,3.8,0.8,5.7,1.1c2.4,0.4,6.2-0.4,5,3.8c-0.9,3.3-4.1,2.3-6.7,1.6
	c-0.6-0.2-1.2-0.5-1.8-0.8C991.8,319.2,989.5,320.2,988,318.4z"/>
<path class="st2" d="M1002.2,308.6c-1.3-5.2-4.6-8-2.5-12.2C1006.4,300.9,1006.4,300.9,1002.2,308.6z"/>
<path class="st1" d="M1383.2,227.3c-0.2,1.3-0.6,2.6-1,3.8c-0.6,1.3-1.9,2.1-2.9,0.6c-2-2.9-0.4-7.4,3.4-10.3
	C1382.8,223.4,1383,225.3,1383.2,227.3z"/>
<path class="st1" d="M1312.9,208.4c0.3-0.4,0.6-1.8,1.2-1.9c1.7-0.4,2.2,0.9,2.2,2.3c0.1,1-0.6,1.9-1.6,2c-0.1,0-0.1,0-0.2,0
	C1313.5,210.8,1312.9,210,1312.9,208.4z"/>
<path class="st1" d="M1316.7,196.9c1.5-0.4,1.9,0.5,1.8,1.4c-0.1,0.9-0.5,1.7-1.1,2.3c-0.7,0.4-1.6,0.2-2-0.4
	c-0.1-0.1-0.1-0.3-0.2-0.4C1314.7,198.3,1315.8,197.5,1316.7,196.9z"/>
<path class="st1" d="M1376.8,227.4c-0.2,4.9-2.3,9.5,0.2,15c-5.8-3.4-8.7-8.5-7.5-12.3S1373.9,227.6,1376.8,227.4z"/>
<path class="st1" d="M1379.5,237.7c0-1.2,0.8-1.7,1.9-1.8s2,0.3,2.2,1.4s-0.7,1.8-1.8,1.8C1380.8,239.3,1379.8,238.7,1379.5,237.7z"
	/>
<path class="st1" d="M1289.1,395.3c0.6-1,1.4-1.6,2.3-1c1.1,0.8,1.4,2.2,0.9,3.4c-0.1,0.5-0.7,0.9-1.2,0.7c-0.1,0-0.2-0.1-0.3-0.1
	C1289.5,397.6,1288.8,396.7,1289.1,395.3z"/>
<path class="st1" d="M1278.8,195.4c1.3,7.4,0.1,8.5-7.6,6.2c1.7-3.1,6.4-2.3,7.2-5.9L1278.8,195.4z"/>
<path class="st0" d="M1264.2,988c-1.8-0.1-3.3-0.5-3.1-2.7c0-0.3,0.3-0.8,0.5-0.8c2.1-0.3,2.8,1.1,3.4,2.7
	C1264.7,987.4,1264.5,987.7,1264.2,988z"/>
<path class="st2" d="M551.7,868.1c-3.1-3.2-2.6-5.9-1-8.8c1.2-2.1,2.6-3.9,5.3-3.4c0.9,0.2,1.7,0.8,2.2,1.6c0.9,2.5-1.1,3.5-2.7,4.5
	C553.2,863.4,553,865.8,551.7,868.1z"/>
<path class="st2" d="M557.2,902.5c0.9-1.6,1-4,3.4-4.3c1.8-0.2,2.1,1.4,1.9,2.7c-0.3,2.1-1.4,3.8-3.8,3.8
	C557.6,904.6,557.1,903.7,557.2,902.5z"/>
<path class="st2" d="M393.6,421.3c5.9,2.6,8.2,8.1,10.6,13.4c1.2,2.7,2,5.5,3,8.2c-2.7,1.1-5.4,2.2-8.1,3.3
	c-1.7,0.7-3.2,0.9-4.2-0.9c-0.9-1.6-2.2-3-0.8-5.2c4.5-7.2,4.5-7.4-1.4-13.8C390.5,423.9,390.6,422.5,393.6,421.3z"/>
<path class="st2" d="M375.3,478.5c-3.6-2.8-1.9-6.7-4.1-9.3c-1.6-1.9-1.6-3.1,1.3-4s4.4-0.1,5.1,2.5
	C378.8,471.8,375.6,474.8,375.3,478.5z"/>
</svg>
