<svg viewBox="0 0 42.57 60.96">
  <defs>
    <style>
      .svg_map_1 {
        fill: #111;
      }

      .svg_map_2 {
        fill: #da2037;
      }

      .svg_map_3 {
        fill: #ff4158;
      }

      .svg_map_4 {
        fill: #fff;
      }
    </style>
  </defs>
  <path class="svg_map_1" d="M38.61,13.84A17.64,17.64,0,0,0,23,.08H23C22.42,0,21.89,0,21.37,0A17.69,17.69,0,0,0,3.87,16a28.28,28.28,0,0,0,.35,7l-2.74.73A2,2,0,0,0,0,25.88L1.48,42a2,2,0,0,0,.85,1.46,2,2,0,0,0,1.15.36A1.91,1.91,0,0,0,4,43.78l2.67-.72A2,2,0,0,0,8.14,41L7.8,37.3h0l.71-.19c.1.22.19.45.29.68L9,40a2,2,0,0,0,.85,1.46,2,2,0,0,0,.73.31c.74,1.57,1.53,3.16,2.35,4.73l.07.17.15.34a125.4,125.4,0,0,0,6.62,12.73,2.61,2.61,0,0,0,2,1.21H22a2.56,2.56,0,0,0,2-1c.18-.23,4.45-5.6,8.75-12.16,6-9.2,9.31-16.38,9.76-21.35A17.42,17.42,0,0,0,38.61,13.84ZM25.87,20.62a5.33,5.33,0,0,1-1.7,1.74l-.86-2a5.12,5.12,0,0,1,1.61-.26,3.77,3.77,0,0,1,.47,0,3.18,3.18,0,0,1,.43.06Z"/>
  <path class="svg_map_2" d="M26.26,9.41h-.07A15.59,15.59,0,0,0,9.28,23.52c-.5,5.6,1.39,13.23,5.62,22.67a124,124,0,0,0,6.49,12.5.54.54,0,0,0,.43.26h0a.55.55,0,0,0,.48-.2c0-.06,4.31-5.4,8.64-12C36.8,37.82,40,31,40.39,26.31A15.59,15.59,0,0,0,26.26,9.41ZM32,25.94a7.23,7.23,0,1,1-6.55-7.84A7.24,7.24,0,0,1,32,25.94Z"/>
  <path class="svg_map_3" d="M22.72,2.07h-.07A15.6,15.6,0,0,0,5.74,16.18c-.5,5.61,1.39,13.24,5.61,22.68a123,123,0,0,0,6.5,12.49.57.57,0,0,0,.43.27h0a.58.58,0,0,0,.48-.21s4.31-5.39,8.64-12c5.85-8.92,9-15.8,9.44-20.43A15.6,15.6,0,0,0,22.72,2.07ZM28.46,18.6a7.23,7.23,0,1,1-6.55-7.84A7.25,7.25,0,0,1,28.46,18.6Z"/>
  <g>
    <path class="svg_map_1" d="M6.8,25.39l2,5.65,1.06-6.46,3.64-1,1.48,16.16-2.67.72-.45-4.9-.53-7.23L10,35.62,8.55,36,6.14,29.67,7,37.13l.42,4.66-2.67.72L3.23,26.35Z"/>
    <path class="svg_map_1" d="M24.59,33.69,20.1,34.9l-.57,3.61-3.15.85L19.8,21.88l2.64-.71L28.74,36l-3,.8Zm-4-1.63,3.08-.83L21.6,25.72Z"/>
    <path class="svg_map_1" d="M32.78,28.87l.54,5.93-2.9.78L28.93,19.43l5-1.33A6.07,6.07,0,0,1,36,18a4.5,4.5,0,0,1,1.79.58,4.18,4.18,0,0,1,1.35,1.27,4.82,4.82,0,0,1,.75,1.93A5.07,5.07,0,0,1,39.8,24a5.43,5.43,0,0,1-.95,1.89,6.28,6.28,0,0,1-1.62,1.45,7.65,7.65,0,0,1-2.07.9Zm-.24-2.53,2.13-.54a3.12,3.12,0,0,0,1-.47,2.94,2.94,0,0,0,.76-.73,2.67,2.67,0,0,0,.44-1,2.78,2.78,0,0,0,.06-1.12,3.35,3.35,0,0,0-.26-.93,2,2,0,0,0-.51-.69,1.71,1.71,0,0,0-.76-.38,2.13,2.13,0,0,0-1,0l-2.37.62Z"/>
  </g>
  <g>
    <path class="svg_map_4" d="M5.45,24.73l2,5.65,1.06-6.46,3.65-1L13.58,39.1l-2.67.72-.44-4.91-.54-7.22L8.65,35l-1.45.39L4.8,29l.8,7.46L6,41.13l-2.68.72L1.88,25.7Z"/>
    <path class="svg_map_4" d="M23.24,33l-4.48,1.21-.58,3.61L15,38.71l3.42-17.48,2.64-.71,6.3,14.86-3,.8Zm-4-1.64,3.09-.83-2.07-5.5Z"/>
    <path class="svg_map_4" d="M31.44,28.22,32,34.14l-2.91.79L27.59,18.77l5-1.33a5.85,5.85,0,0,1,2.06-.14,4.44,4.44,0,0,1,1.79.57,4.12,4.12,0,0,1,1.35,1.28,5.37,5.37,0,0,1,.69,4.19,5.39,5.39,0,0,1-1,1.9,6.25,6.25,0,0,1-1.62,1.44,7.13,7.13,0,0,1-2.07.91Zm-.24-2.53,2.13-.54a3.74,3.74,0,0,0,1-.47A3.3,3.3,0,0,0,35.1,24a3,3,0,0,0,.44-.95,3,3,0,0,0,.06-1.12,3.33,3.33,0,0,0-.27-.94,2,2,0,0,0-.51-.69,1.78,1.78,0,0,0-.75-.38,2.18,2.18,0,0,0-1,0l-2.36.63Z"/>
  </g>
</svg>
