<svg id="レイヤー_1" data-name="レイヤー 1" xmlns="http://www.w3.org/2000/svg" viewBox="0 0 117.31 92.28">
  <defs>
    <style>
      .cls-1 {
        fill: #111;
      }

      .cls-2 {
        fill: #ff4158;
      }

      .cls-3 {
        fill: #fff;
      }
    </style>
  </defs>
  <title>アートボード 1</title>
  <path class="cls-1" d="M114.31,70.46h-2.72l1-5.43a3,3,0,0,0-.64-2.48,3,3,0,0,0-2.31-1.09h-3.44L115.37,14a3,3,0,0,0-3-3.57h-2.71l1-5.43a3,3,0,0,0-2.94-3.57H94.69a3,3,0,0,0-1.44.37,57,57,0,0,1-18.8,6.39A3,3,0,0,0,72,10.54l-2.12,11a3,3,0,0,0,3,3.57h2.71l-1,5.43a3,3,0,0,0,2.95,3.57h3.74L76,61.46H62.64a2.67,2.67,0,0,0-.64.08,88.38,88.38,0,0,0,2.75-10.73c3-15.33,1.35-27.18-4.61-34.33C57.09,5.84,49.28,0,38.1,0A30.78,30.78,0,0,0,15,10.48C8.53,17.54,4,27.69,1.48,40.67-1.54,56.4.07,68.53,6.14,75.84,9.23,86.45,16.93,92.28,27.88,92.28c13,0,23.69-7.94,30.58-22l-1.54,8a3,3,0,0,0,.64,2.48,3,3,0,0,0,2.31,1.08h2.71l-1,5.44a3,3,0,0,0,2.94,3.57h47.06a3,3,0,0,0,2.94-2.44l2.75-14.28a3.19,3.19,0,0,0,.08-.7A3,3,0,0,0,114.31,70.46ZM39,28.79a84.83,84.83,0,0,1-1.57,11.88C34.78,54.43,31.34,62,27.18,63.27a86,86,0,0,1,1.63-12.46C32.4,32.1,36.62,29.23,39,28.79Z"/>
  <g>
    <path class="cls-2" d="M9.05,50.24C14,24.61,27,12,42.72,12s24,12.81,19.09,38.24c-4.93,25.63-18.21,39-33.93,39S4.12,75.87,9.05,50.24Zm35.94,0c3.9-20.32.4-24.52-4.9-24.52s-10.32,4.2-14.23,24.52-.64,25.22,4.67,25.22S41.06,70.66,45,50.24Z"/>
    <path class="cls-2" d="M67.25,73.46H83.07L91.2,31.12H77.49l2.11-11A60,60,0,0,0,99.31,13.4h13.11L100.89,73.46h13.42l-2.77,14.42H64.48Z"/>
  </g>
  <g>
    <path class="cls-3" d="M4.43,41.24C9.35,15.61,22.39,3,38.1,3s24,12.81,19.09,38.24c-4.92,25.62-18.21,39-33.93,39S-.49,66.86,4.43,41.24Zm35.94,0c3.9-20.32.41-24.53-4.9-24.53S25.15,20.92,21.25,41.24s-.64,25.22,4.67,25.22S36.45,61.66,40.37,41.24Z"/>
    <path class="cls-3" d="M62.64,64.46H78.45l8.14-42.34H72.87l2.11-11A60.2,60.2,0,0,0,94.69,4.4h13.12L96.27,64.46h13.42l-2.77,14.42H59.87Z"/>
  </g>
</svg>
