<?xml version="1.0" encoding="utf-8"?>
<!-- Generator: Adobe Illustrator 23.0.6, SVG Export Plug-In . SVG Version: 6.00 Build 0)  -->
<svg version="1.1" id="レイヤー_1" xmlns="http://www.w3.org/2000/svg" xmlns:xlink="http://www.w3.org/1999/xlink" x="0px"
	 y="0px" viewBox="0 0 588.7 306.3" style="enable-background:new 0 0 588.7 306.3;" xml:space="preserve">
<style type="text/css">
	.st0{fill:#DAE0F7;}
	.st1{fill:#FFFFFF;}
	.st2{fill:#000111;}
</style>
<path class="st0" d="M586.8,72h-0.2l-59.3,5.9l5.8-64.5c0.1-0.6-0.1-1.1-0.5-1.6c-0.4-0.4-0.9-0.6-1.4-0.6H531L33.2,36.8
	c-1,0-1.8,0.8-1.9,1.8l-9.3,127c0,0.6,0.2,1.2,0.6,1.6c0.4,0.4,0.9,0.6,1.4,0.6h0.2L216,141V181l-70.9,8.2c-0.9,0.1-1.7,0.9-1.7,1.8
	l-7.6,113.1c0,0.6,0.2,1.2,0.6,1.6c0.4,0.3,0.8,0.5,1.3,0.5c0.1,0,0.2,0,0.3,0l368.3-77c0.9-0.2,1.5-0.9,1.6-1.8l6.4-71.5L581,146
	c0.9-0.1,1.6-0.9,1.7-1.8l6-70c0-0.1,0-0.2,0-0.3C588.7,72.9,587.8,72,586.8,72z"/>
<g>
	<path class="st1" d="M118.1,287.1c-0.2,0-0.5-0.1-0.7-0.3c-0.2-0.2-0.3-0.5-0.3-0.8l7.8-106c0-0.5,0.4-0.9,0.9-0.9l73.3-8.3v-42.1
		l-197,23H2c-0.3,0-0.5-0.1-0.7-0.3c-0.2-0.2-0.3-0.5-0.3-0.8l9.5-123c0-0.5,0.4-0.9,0.9-0.9L520,1c0.3,0,0.5,0.1,0.7,0.3
		c0.2,0.2,0.3,0.5,0.3,0.8l-6,65.7l61.9-6h0.1c0.6,0,1,0.4,1,1c0,0,0,0.1,0,0.1l-6.2,73.1c0,0.5-0.4,0.8-0.8,0.9l-69,9.9l-6.6,72.3
		c0,0.4-0.4,0.8-0.8,0.9l-376.2,67L118.1,287.1z"/>
	<path class="st2" d="M520,2l-6.1,66.9l63.1-6.1l-6.2,73.2L501,146l-6.7,73.1l-376.2,67l7.8-106l74.2-8.4v-44.2L2,150.7l9.5-123
		L520,2 M576.9,62.8L576.9,62.8 M520,0L520,0L11.4,25.7c-1,0-1.8,0.8-1.9,1.8L0,150.5c0,0.6,0.2,1.2,0.6,1.6
		c0.4,0.4,0.9,0.6,1.4,0.6h0.2l195.9-22.8v40.1l-72.5,8.2c-1,0.1-1.7,0.9-1.8,1.8L116.1,286c0,0.6,0.2,1.2,0.7,1.6
		c0.4,0.3,0.8,0.5,1.3,0.5c0.1,0,0.2,0,0.3,0l376.2-67c0.9-0.2,1.6-0.9,1.6-1.8l6.5-71.6l68.2-9.9c0.9-0.1,1.6-0.9,1.7-1.8l6.1-73
		c0-0.1,0-0.2,0-0.3c0-1.1-0.9-2-2-2h-0.2L516,66.7l5.9-64.5c0.1-0.6-0.1-1.1-0.5-1.6C521,0.2,520.5,0,520,0z M520,4L520,4z"/>
</g>
</svg>
